SplineFontDB: 3.0
FontName: Chathura-Regular
FullName: Chathura Regular
FamilyName: Chathura
Weight: Book
Copyright: Copyright (c) 2015 by Aditya Fonts. All rights reserved.
Version: 1.00 2015
ItalicAngle: 0
UnderlinePosition: -613
UnderlineWidth: 20
Ascent: 800
Descent: 200
InvalidEm: 0
sfntRevision: 0x00010000
LayerCount: 2
Layer: 0 1 "Back" 1
Layer: 1 1 "Fore" 0
XUID: [1021 73 2087734359 7214598]
FSType: 0
OS2Version: 3
OS2_WeightWidthSlopeOnly: 0
OS2_UseTypoMetrics: 1
CreationTime: 1374624000
ModificationTime: 1440399822
PfmFamily: 17
TTFWeight: 300
TTFWidth: 5
LineGap: 0
VLineGap: 0
Panose: 2 0 6 0 0 0 0 0 0 0
OS2TypoAscent: 895
OS2TypoAOffset: 0
OS2TypoDescent: -310
OS2TypoDOffset: 0
OS2TypoLinegap: 448
OS2WinAscent: 895
OS2WinAOffset: 0
OS2WinDescent: 653
OS2WinDOffset: 0
HheadAscent: 895
HheadAOffset: 0
HheadDescent: -653
HheadDOffset: 0
OS2SubXSize: 700
OS2SubYSize: 650
OS2SubXOff: 0
OS2SubYOff: 200
OS2SupXSize: 700
OS2SupYSize: 650
OS2SupXOff: 0
OS2SupYOff: 500
OS2StrikeYSize: 50
OS2StrikeYPos: 250
OS2CapHeight: 0
OS2XHeight: 0
OS2Vendor: 'AAD '
OS2CodePages: 00000003.00000000
OS2UnicodeRanges: 80200003.00000000.00000000.00000000
Lookup: 4 0 0 "'akhn' Akhand in Telugu lookup 0" { "'akhn' Akhand in Telugu lookup 0 subtable"  } ['akhn' ('telu' <'dflt' > ) ]
Lookup: 4 0 0 "'blwf' Below Base Forms in Telugu lookup 1" { "'blwf' Below Base Forms in Telugu lookup 1 subtable"  } ['blwf' ('telu' <'dflt' > ) ]
Lookup: 4 0 0 "'blwf' Below Base Forms in Telugu lookup 2" { "'blwf' Below Base Forms in Telugu lookup 2 subtable"  } ['blwf' ('telu' <'dflt' > ) ]
Lookup: 4 0 0 "'blwf' Below Base Forms in Telugu lookup 3" { "'blwf' Below Base Forms in Telugu lookup 3 subtable"  } ['blwf' ('telu' <'dflt' > ) ]
Lookup: 4 0 0 "'abvs' Above Base Substitutions in Telugu lookup 4" { "'abvs' Above Base Substitutions in Telugu lookup 4 subtable"  } ['abvs' ('telu' <'dflt' > ) ]

StartChar: .notdef
Encoding: 65536 -1 0
Width: 800
GlyphClass: 2
Flags: W
LayerCount: 2
Back
Fore
SplineSet
700 700 m 1,0,-1
 700 0 l 1,1,-1
 100 0 l 1,2,-1
 100 700 l 1,3,-1
 700 700 l 1,0,-1
650 650 m 1,4,-1
 150 650 l 1,5,-1
 150 50 l 1,6,-1
 650 50 l 1,7,-1
 650 650 l 1,4,-1
EndSplineSet
EndChar

StartChar: exclam
Encoding: 33 33 4
Width: 160
GlyphClass: 2
Flags: W
LayerCount: 2
Back
Fore
SplineSet
85 155 m 0,0,1
 84 147 84 147 82.5 144.5 c 128,-1,2
 81 142 81 142 79 142 c 2,3,-1
 60 141 l 2,4,5
 59 141 59 141 58 142 c 2,6,-1
 58 147 l 1,7,-1
 57 155 l 2,8,9
 56 176 56 176 56 226 c 128,-1,10
 56 276 56 276 56 364 c 2,11,-1
 56 419 l 2,12,13
 56 423 56 423 55 428.5 c 128,-1,14
 54 434 54 434 58 434 c 2,15,-1
 84 434 l 2,16,17
 88 434 88 434 87.5 428.5 c 128,-1,18
 87 423 87 423 87 419 c 2,19,-1
 87 364 l 1,20,-1
 87 259 l 2,21,22
 87 216 87 216 86 189.5 c 128,-1,23
 85 163 85 163 85 155 c 0,0,1
83 0 m 2,24,-1
 58 0 l 2,25,26
 55 0 55 0 55.5 5 c 128,-1,27
 56 10 56 10 56 14 c 2,28,-1
 56 83 l 2,29,30
 56 87 56 87 55 92.5 c 128,-1,31
 54 98 54 98 58 98 c 2,32,-1
 83 98 l 2,33,34
 87 98 87 98 86.5 92.5 c 128,-1,35
 86 87 86 87 86 83 c 2,36,-1
 86 14 l 2,37,38
 86 10 86 10 86.5 5 c 128,-1,39
 87 0 87 0 83 0 c 2,24,-1
EndSplineSet
EndChar

StartChar: quotedbl
Encoding: 34 34 5
Width: 218
GlyphClass: 2
Flags: W
LayerCount: 2
Back
Fore
SplineSet
155 332 m 2,0,1
 154 318 154 318 143 318 c 2,2,-1
 141 318 l 2,3,4
 131 318 131 318 130 332 c 2,5,-1
 127 440 l 2,6,7
 127 454 127 454 139 454 c 2,8,-1
 148 454 l 2,9,10
 158 454 158 454 158 440 c 2,11,-1
 155 332 l 2,0,1
79 332 m 2,12,13
 77 318 77 318 68 318 c 2,14,-1
 66 318 l 2,15,16
 60 318 60 318 58 321.5 c 128,-1,17
 56 325 56 325 55 332 c 2,18,-1
 50 440 l 2,19,20
 50 447 50 447 53.5 450.5 c 128,-1,21
 57 454 57 454 62 454 c 2,22,-1
 71 454 l 2,23,24
 83 454 83 454 83 440 c 2,25,-1
 79 332 l 2,12,13
EndSplineSet
EndChar

StartChar: numbersign
Encoding: 35 35 6
Width: 458
GlyphClass: 2
Flags: W
LayerCount: 2
Back
Fore
SplineSet
395 285 m 2,0,-1
 340 285 l 1,1,-1
 301 148 l 1,2,-1
 352 148 l 2,3,4
 357 148 357 148 361.5 144.5 c 128,-1,5
 366 141 366 141 366 135 c 2,6,-1
 366 126 l 2,7,8
 366 119 366 119 361.5 115.5 c 128,-1,9
 357 112 357 112 352 112 c 2,10,-1
 292 112 l 1,11,-1
 265 14 l 2,12,13
 263 9 263 9 259.5 4.5 c 128,-1,14
 256 0 256 0 249 0 c 2,15,-1
 243 0 l 2,16,17
 232 0 232 0 230.5 8 c 128,-1,18
 229 16 229 16 231 21 c 2,19,-1
 256 112 l 1,20,-1
 145 112 l 1,21,-1
 118 14 l 2,22,23
 116 9 116 9 112 4.5 c 128,-1,24
 108 0 108 0 103 0 c 2,25,-1
 95 0 l 2,26,27
 86 0 86 0 84 5.5 c 128,-1,28
 82 11 82 11 84.5 24.5 c 128,-1,29
 87 38 87 38 93.5 59 c 128,-1,30
 100 80 100 80 109 112 c 1,31,-1
 63 112 l 2,32,33
 49 112 49 112 49 126 c 2,34,-1
 49 135 l 2,35,36
 49 148 49 148 63 148 c 2,37,-1
 118 148 l 1,38,-1
 157 285 l 1,39,-1
 106 285 l 2,40,41
 93 285 93 285 93 299 c 2,42,-1
 93 308 l 2,43,44
 93 322 93 322 106 322 c 2,45,-1
 166 322 l 1,46,-1
 193 421 l 2,47,48
 195 426 195 426 199.5 430 c 128,-1,49
 204 434 204 434 210 434 c 2,50,-1
 215 434 l 2,51,52
 225 434 225 434 227 426 c 128,-1,53
 229 418 229 418 227 414 c 2,54,-1
 202 322 l 1,55,-1
 313 322 l 1,56,-1
 340 421 l 2,57,58
 342 426 342 426 346 430 c 128,-1,59
 350 434 350 434 356 434 c 2,60,-1
 361 434 l 2,61,62
 369 434 369 434 371.5 430 c 128,-1,63
 374 426 374 426 374 418 c 2,64,-1
 374 412 l 1,65,-1
 349 322 l 1,66,-1
 395 322 l 2,67,68
 410 322 410 322 410 308 c 2,69,-1
 410 299 l 2,70,71
 410 285 410 285 395 285 c 2,0,-1
193 285 m 1,72,-1
 155 148 l 1,73,-1
 265 148 l 1,74,-1
 303 285 l 1,75,-1
 193 285 l 1,72,-1
EndSplineSet
EndChar

StartChar: dollar
Encoding: 36 36 7
Width: 335
GlyphClass: 2
Flags: W
LayerCount: 2
Back
Fore
SplineSet
193 -2 m 1,0,-1
 193 -51 l 2,1,2
 193 -67 193 -67 180 -67 c 2,3,-1
 172 -67 l 2,4,5
 160 -67 160 -67 160 -51 c 2,6,-1
 160 -2 l 1,7,-1
 145 -2 l 2,8,9
 105 -2 105 -2 82 23 c 128,-1,10
 59 48 59 48 59 96 c 2,11,-1
 59 118 l 2,12,13
 59 133 59 133 71 133 c 2,14,-1
 80 133 l 2,15,16
 93 133 93 133 93 118 c 2,17,-1
 93 96 l 2,18,19
 93 65 93 65 104.5 50.5 c 128,-1,20
 116 36 116 36 145 36 c 2,21,-1
 192 36 l 2,22,23
 245 36 245 36 245 96 c 2,24,-1
 245 143 l 2,25,26
 245 178 245 178 232.5 190 c 128,-1,27
 220 202 220 202 190 202 c 2,28,-1
 148 202 l 2,29,30
 105 202 105 202 82 222 c 128,-1,31
 59 242 59 242 59 294 c 2,32,-1
 59 340 l 2,33,34
 59 388 59 388 82 412.5 c 128,-1,35
 105 437 105 437 145 437 c 2,36,-1
 160 437 l 1,37,-1
 160 486 l 2,38,39
 160 501 160 501 172 501 c 2,40,-1
 180 501 l 2,41,42
 193 501 193 501 193 486 c 2,43,-1
 193 437 l 1,44,45
 233 434 233 434 255 409 c 128,-1,46
 277 384 277 384 277 340 c 2,47,-1
 277 320 l 2,48,49
 277 304 277 304 265 304 c 2,50,-1
 256 304 l 2,51,52
 245 304 245 304 245 320 c 2,53,-1
 245 340 l 2,54,55
 245 400 245 400 192 400 c 2,56,-1
 145 400 l 2,57,58
 93 400 93 400 93 340 c 2,59,-1
 93 294 l 2,60,61
 93 262 93 262 104.5 250 c 128,-1,62
 116 238 116 238 145 238 c 2,63,-1
 192 238 l 2,64,65
 277 238 277 238 277 144 c 2,66,-1
 277 96 l 2,67,68
 277 51 277 51 254.5 25.5 c 128,-1,69
 232 0 232 0 193 -2 c 1,0,-1
EndSplineSet
EndChar

StartChar: percent
Encoding: 37 37 8
Width: 479
GlyphClass: 2
Flags: W
LayerCount: 2
Back
Fore
SplineSet
133 229 m 2,0,-1
 123 229 l 2,1,2
 42 229 42 229 42 318 c 2,3,-1
 42 350 l 2,4,5
 42 437 42 437 123 437 c 2,6,-1
 133 437 l 2,7,8
 214 437 214 437 214 350 c 2,9,-1
 214 318 l 2,10,11
 214 229 214 229 133 229 c 2,0,-1
357 0 m 2,12,-1
 347 0 l 2,13,14
 266 0 266 0 266 88 c 2,15,-1
 266 120 l 2,16,17
 266 208 266 208 347 208 c 2,18,-1
 357 208 l 2,19,20
 438 208 438 208 438 120 c 2,21,-1
 438 88 l 2,22,23
 438 0 438 0 357 0 c 2,12,-1
172 12 m 2,24,25
 168 7 168 7 165 3.5 c 128,-1,26
 162 0 162 0 155 0 c 2,27,-1
 149 0 l 2,28,29
 138 0 138 0 137 8 c 128,-1,30
 136 16 136 16 138 22 c 2,31,-1
 309 423 l 2,32,33
 310 425 310 425 311 426.5 c 128,-1,34
 312 428 312 428 314 430 c 0,35,36
 318 434 318 434 325 434 c 2,37,-1
 330 434 l 2,38,39
 341 434 341 434 342.5 427.5 c 128,-1,40
 344 421 344 421 340 412 c 2,41,-1
 172 12 l 2,24,25
178 349 m 2,42,43
 178 380 178 380 168.5 390.5 c 128,-1,44
 159 401 159 401 133 401 c 2,45,-1
 123 401 l 2,46,47
 97 401 97 401 87.5 391 c 128,-1,48
 78 381 78 381 78 349 c 2,49,-1
 78 318 l 2,50,51
 78 286 78 286 87.5 276 c 128,-1,52
 97 266 97 266 123 266 c 2,53,-1
 133 266 l 2,54,55
 159 266 159 266 168.5 276 c 128,-1,56
 178 286 178 286 178 318 c 2,57,-1
 178 349 l 2,42,43
402 119 m 2,58,59
 402 151 402 151 392.5 161.5 c 128,-1,60
 383 172 383 172 357 172 c 2,61,-1
 347 172 l 2,62,63
 321 172 321 172 311.5 161.5 c 128,-1,64
 302 151 302 151 302 119 c 2,65,-1
 302 89 l 2,66,67
 302 58 302 58 311.5 47 c 128,-1,68
 321 36 321 36 347 36 c 2,69,-1
 357 36 l 2,70,71
 383 36 383 36 392.5 47 c 128,-1,72
 402 58 402 58 402 89 c 2,73,-1
 402 119 l 2,58,59
EndSplineSet
EndChar

StartChar: ampersand
Encoding: 38 38 9
Width: 379
GlyphClass: 2
Flags: W
LayerCount: 2
Back
Fore
SplineSet
277 -1 m 1,0,-1
 259 21 l 1,1,2
 239 0 239 0 219 0 c 2,3,-1
 69 0 l 2,4,5
 48 0 48 0 30 18.5 c 128,-1,6
 12 37 12 37 12 69 c 2,7,-1
 12 188 l 2,8,9
 12 201 12 201 14.5 210.5 c 128,-1,10
 17 220 17 220 23.5 229 c 128,-1,11
 30 238 30 238 41.5 247.5 c 128,-1,12
 53 257 53 257 72 270 c 1,13,14
 45 275 45 275 36 286.5 c 128,-1,15
 27 298 27 298 27 305 c 2,16,-1
 27 369 l 2,17,18
 27 392 27 392 38 405 c 128,-1,19
 49 418 49 418 81 418 c 2,20,-1
 165 418 l 2,21,22
 190 418 190 418 200 410.5 c 128,-1,23
 210 403 210 403 211 375 c 2,24,-1
 213 289 l 2,25,26
 213 270 213 270 192 254.5 c 128,-1,27
 171 239 171 239 133 239 c 1,28,29
 156 213 156 213 180 184 c 128,-1,30
 204 155 204 155 239 110 c 1,31,-1
 239 168 l 1,32,-1
 276 168 l 1,33,-1
 276 69 l 1,34,-1
 276 64 l 1,35,-1
 327 -1 l 1,36,-1
 277 -1 l 1,0,-1
174 358 m 2,37,38
 174 369 174 369 170.5 375.5 c 128,-1,39
 167 382 167 382 153 382 c 2,40,-1
 85 382 l 2,41,42
 73 382 73 382 68.5 374.5 c 128,-1,43
 64 367 64 367 64 356 c 2,44,-1
 64 304 l 2,45,46
 64 288 64 288 71.5 283.5 c 128,-1,47
 79 279 79 279 89 279 c 2,48,-1
 153 279 l 2,49,50
 167 279 167 279 170.5 288.5 c 128,-1,51
 174 298 174 298 174 306 c 2,52,-1
 174 358 l 2,37,38
83 237 m 1,53,54
 64 232 64 232 56.5 217.5 c 128,-1,55
 49 203 49 203 49 180 c 2,56,-1
 49 69 l 2,57,58
 49 67 49 67 49.5 62 c 128,-1,59
 50 57 50 57 53 51.5 c 128,-1,60
 56 46 56 46 62.5 41.5 c 128,-1,61
 69 37 69 37 81 37 c 2,62,-1
 207 37 l 2,63,64
 215 37 215 37 221.5 40 c 128,-1,65
 228 43 228 43 235 52 c 1,66,67
 196 101 196 101 159 145 c 128,-1,68
 122 189 122 189 83 237 c 1,53,54
EndSplineSet
EndChar

StartChar: quotesingle
Encoding: 39 39 10
Width: 125
GlyphClass: 2
Flags: W
LayerCount: 2
Back
Fore
SplineSet
75 332 m 2,0,1
 74 318 74 318 63 318 c 2,2,-1
 61 318 l 2,3,4
 50 318 50 318 49 331 c 2,5,-1
 47 440 l 2,6,7
 47 454 47 454 58 454 c 2,8,-1
 68 454 l 2,9,10
 78 454 78 454 78 440 c 2,11,-1
 75 332 l 2,0,1
EndSplineSet
EndChar

StartChar: parenleft
Encoding: 40 40 11
Width: 187
GlyphClass: 2
Flags: W
LayerCount: 2
Back
Fore
SplineSet
121 -69 m 2,0,-1
 119 -69 l 2,1,2
 88 -69 88 -69 68.5 -43.5 c 128,-1,3
 49 -18 49 -18 49 28 c 2,4,-1
 49 336 l 2,5,6
 49 382 49 382 68.5 408 c 128,-1,7
 88 434 88 434 119 434 c 2,8,-1
 121 434 l 2,9,10
 125 434 125 434 128.5 430.5 c 128,-1,11
 132 427 132 427 132 419 c 2,12,-1
 132 412 l 2,13,14
 132 404 132 404 128.5 400.5 c 128,-1,15
 125 397 125 397 121 397 c 2,16,-1
 119 397 l 2,17,18
 96 397 96 397 86 380.5 c 128,-1,19
 76 364 76 364 76 335 c 2,20,-1
 76 29 l 2,21,22
 76 0 76 0 86 -16 c 128,-1,23
 96 -32 96 -32 119 -32 c 2,24,-1
 121 -32 l 2,25,26
 125 -32 125 -32 128.5 -36 c 128,-1,27
 132 -40 132 -40 132 -48 c 2,28,-1
 132 -55 l 2,29,30
 132 -62 132 -62 128.5 -65.5 c 128,-1,31
 125 -69 125 -69 121 -69 c 2,0,-1
EndSplineSet
EndChar

StartChar: parenright
Encoding: 41 41 12
Width: 187
GlyphClass: 2
Flags: W
LayerCount: 2
Back
Fore
SplineSet
61 -69 m 2,0,-1
 59 -69 l 2,1,2
 49 -69 49 -69 49 -55 c 2,3,-1
 49 -48 l 2,4,5
 49 -32 49 -32 59 -32 c 2,6,-1
 61 -32 l 2,7,8
 84 -32 84 -32 94.5 -16 c 128,-1,9
 105 0 105 0 105 29 c 2,10,-1
 105 335 l 2,11,12
 105 364 105 364 94.5 380.5 c 128,-1,13
 84 397 84 397 61 397 c 2,14,-1
 59 397 l 2,15,16
 49 397 49 397 49 412 c 2,17,-1
 49 419 l 2,18,19
 49 434 49 434 59 434 c 2,20,-1
 61 434 l 2,21,22
 92 434 92 434 112 408 c 128,-1,23
 132 382 132 382 132 336 c 2,24,-1
 132 28 l 2,25,26
 132 -18 132 -18 112 -43.5 c 128,-1,27
 92 -69 92 -69 61 -69 c 2,0,-1
EndSplineSet
EndChar

StartChar: asterisk
Encoding: 42 42 13
Width: 275
GlyphClass: 2
Flags: W
LayerCount: 2
Back
Fore
SplineSet
207 351 m 0,0,1
 199 347 199 347 189 344 c 128,-1,2
 179 341 179 341 159 336 c 1,3,4
 172 322 172 322 176 316 c 128,-1,5
 180 310 180 310 184 304 c 2,6,-1
 191 294 l 2,7,8
 195 289 195 289 193 285 c 128,-1,9
 191 281 191 281 188 277 c 2,10,-1
 180 273 l 2,11,12
 172 265 172 265 165 275 c 0,13,14
 158 284 158 284 153 293.5 c 128,-1,15
 148 303 148 303 140 320 c 1,16,17
 128 303 128 303 122 292.5 c 128,-1,18
 116 282 116 282 110 273 c 0,19,20
 104 266 104 266 97 269 c 0,21,22
 95 271 95 271 92.5 272.5 c 128,-1,23
 90 274 90 274 88 276 c 0,24,25
 82 281 82 281 82 287 c 128,-1,26
 82 293 82 293 84 295 c 2,27,-1
 96 312 l 2,28,29
 98 316 98 316 101.5 320.5 c 128,-1,30
 105 325 105 325 116 336 c 1,31,-1
 67 352 l 2,32,33
 56 357 56 357 60 369 c 0,34,35
 63 377 63 377 65.5 382.5 c 128,-1,36
 68 388 68 388 78 387 c 2,37,-1
 96 379 l 2,38,39
 100 378 100 378 106 376 c 0,40,41
 108 375 108 375 111.5 373 c 128,-1,42
 115 371 115 371 126 363 c 1,43,44
 122 384 122 384 122 393 c 128,-1,45
 122 402 122 402 122 410 c 2,46,-1
 122 420 l 2,47,48
 122 425 122 425 125 429.5 c 128,-1,49
 128 434 128 434 134 434 c 2,50,-1
 142 434 l 2,51,52
 148 434 148 434 151.5 429.5 c 128,-1,53
 155 425 155 425 155 420 c 2,54,-1
 155 410 l 2,55,56
 155 402 155 402 154.5 393 c 128,-1,57
 154 384 154 384 154 367 c 1,58,59
 170 375 170 375 179.5 378.5 c 128,-1,60
 189 382 189 382 198 386 c 0,61,62
 207 389 207 389 212 381 c 0,63,64
 212 380 212 380 214 376 c 2,65,-1
 215 369 l 2,66,67
 220 360 220 360 214.5 356 c 128,-1,68
 209 352 209 352 207 351 c 0,0,1
EndSplineSet
EndChar

StartChar: plus
Encoding: 43 43 14
Width: 365
GlyphClass: 2
Flags: W
LayerCount: 2
Back
Fore
SplineSet
306 199 m 2,0,-1
 200 199 l 1,1,-1
 200 84 l 2,2,3
 200 81 200 81 196 74 c 0,4,5
 194 73 194 73 192 72 c 128,-1,6
 190 71 190 71 186 71 c 2,7,-1
 179 71 l 2,8,9
 171 71 171 71 171 72 c 2,10,-1
 167 86 l 1,11,-1
 167 199 l 1,12,-1
 58 199 l 2,13,14
 55 199 55 199 48 203 c 0,15,16
 46 205 46 205 46 213 c 2,17,-1
 46 220 l 2,18,19
 46 227 46 227 49 230 c 0,20,21
 57 234 57 234 58 234 c 2,22,-1
 167 234 l 1,23,-1
 167 347 l 2,24,25
 167 355 167 355 170 359 c 0,26,27
 171 360 171 360 172.5 361 c 128,-1,28
 174 362 174 362 179 362 c 2,29,-1
 186 362 l 2,30,31
 193 362 193 362 196 359 c 0,32,33
 200 350 200 350 200 347 c 2,34,-1
 200 234 l 1,35,-1
 306 234 l 2,36,37
 320 234 320 234 320 220 c 2,38,-1
 320 213 l 2,39,40
 320 199 320 199 306 199 c 2,0,-1
EndSplineSet
EndChar

StartChar: comma
Encoding: 44 44 15
Width: 126
GlyphClass: 2
Flags: W
LayerCount: 2
Back
Fore
SplineSet
73 10 m 0,0,1
 71 -7 71 -7 69.5 -19 c 128,-1,2
 68 -31 68 -31 68 -39 c 2,3,-1
 67 -52 l 2,4,5
 66 -54 66 -54 66 -54 c 1,6,-1
 66 -59 l 2,7,8
 66 -64 66 -64 63 -67 c 0,9,10
 59 -69 59 -69 58 -69 c 256,11,12
 57 -69 57 -69 56.5 -68.5 c 128,-1,13
 56 -68 56 -68 54 -68 c 0,14,15
 50 -67 50 -67 50 -62.5 c 128,-1,16
 50 -58 50 -58 49 -56 c 2,17,-1
 47 78 l 2,18,19
 47 82 47 82 46.5 87 c 128,-1,20
 46 92 46 92 50 92 c 2,21,-1
 70 92 l 2,22,23
 70 91 70 91 71 90 c 2,24,-1
 74 76 l 2,25,26
 75 59 75 59 75 42.5 c 128,-1,27
 75 26 75 26 73 10 c 0,0,1
EndSplineSet
EndChar

StartChar: hyphen
Encoding: 45 45 16
Width: 231
GlyphClass: 2
Flags: W
LayerCount: 2
Back
Fore
SplineSet
36 173 m 1,0,1
 42 178 42 178 48 178 c 2,2,-1
 183 178 l 2,3,4
 190 178 190 178 193 174 c 2,5,-1
 195 172 l 1,6,-1
 196 171 l 1,7,-1
 196 143 l 2,8,9
 196 144 196 144 193 141 c 0,10,11
 188 138 188 138 183 138 c 2,12,-1
 48 138 l 2,13,14
 41 138 41 138 37 141 c 0,15,16
 36 142 36 142 36 143 c 2,17,-1
 36 173 l 1,0,1
EndSplineSet
EndChar

StartChar: period
Encoding: 46 46 17
Width: 126
GlyphClass: 2
Flags: W
LayerCount: 2
Back
Fore
SplineSet
64 0 m 2,0,-1
 44 0 l 2,1,2
 43 0 43 0 42 2 c 256,3,4
 41 4 41 4 41 13 c 2,5,-1
 41 80 l 2,6,7
 41 89 41 89 42 91 c 256,8,9
 43 93 43 93 44 93 c 2,10,-1
 64 93 l 2,11,12
 65 93 65 93 66 91 c 0,13,14
 68 87 68 87 68 80 c 2,15,-1
 68 13 l 2,16,17
 68 8 68 8 67.5 6 c 128,-1,18
 67 4 67 4 66 2 c 256,19,20
 65 0 65 0 64 0 c 2,0,-1
EndSplineSet
EndChar

StartChar: slash
Encoding: 47 47 18
Width: 248
GlyphClass: 2
Flags: W
LayerCount: 2
Back
Fore
SplineSet
197 415 m 2,0,-1
 70 -17 l 2,1,2
 69 -17 69 -17 69 -18 c 0,3,4
 66 -21 66 -21 64 -24 c 0,5,6
 61 -27 61 -27 56 -27 c 2,7,-1
 49 -27 l 2,8,9
 41 -27 41 -27 38 -22 c 0,10,11
 35 -18 35 -18 38 -6 c 2,12,-1
 166 421 l 1,13,-1
 171 432 l 2,14,15
 175 434 175 434 179 434 c 2,16,-1
 187 434 l 2,17,18
 198 434 198 434 198 420 c 0,19,20
 198 416 198 416 197 415 c 2,0,-1
EndSplineSet
EndChar

StartChar: zero
Encoding: 48 48 19
Width: 308
GlyphClass: 2
Flags: W
LayerCount: 2
Back
Fore
SplineSet
179 0 m 2,0,-1
 125 0 l 2,1,2
 89 0 89 0 67 24.5 c 128,-1,3
 45 49 45 49 45 91 c 2,4,-1
 45 315 l 2,5,6
 45 357 45 357 67 380.5 c 128,-1,7
 89 404 89 404 125 404 c 2,8,-1
 179 404 l 2,9,10
 217 404 217 404 238.5 380.5 c 128,-1,11
 260 357 260 357 260 315 c 2,12,-1
 260 91 l 2,13,14
 260 49 260 49 238.5 24.5 c 128,-1,15
 217 0 217 0 179 0 c 2,0,-1
230 313 m 2,16,17
 230 371 230 371 179 371 c 2,18,-1
 125 371 l 2,19,20
 76 371 76 371 76 313 c 2,21,-1
 76 92 l 2,22,23
 76 33 76 33 125 33 c 2,24,-1
 179 33 l 2,25,26
 230 33 230 33 230 92 c 2,27,-1
 230 313 l 2,16,17
EndSplineSet
EndChar

StartChar: one
Encoding: 49 49 20
Width: 184
GlyphClass: 2
Flags: W
LayerCount: 2
Back
Fore
SplineSet
122 0 m 2,0,-1
 115 0 l 2,1,2
 106 0 106 0 106 13 c 2,3,-1
 106 364 l 1,4,-1
 51 324 l 2,5,6
 48 323 48 323 44 321.5 c 128,-1,7
 40 320 40 320 37 320 c 0,8,9
 35 320 35 320 34.5 322.5 c 128,-1,10
 34 325 34 325 34 333 c 2,11,-1
 34 337 l 2,12,13
 34 351 34 351 42 356 c 2,14,-1
 106 401 l 2,15,16
 110 404 110 404 116 404 c 2,17,-1
 122 404 l 2,18,19
 125 404 125 404 128 400.5 c 128,-1,20
 131 397 131 397 131 391 c 2,21,-1
 131 13 l 2,22,23
 131 7 131 7 128 3.5 c 128,-1,24
 125 0 125 0 122 0 c 2,0,-1
EndSplineSet
EndChar

StartChar: two
Encoding: 50 50 21
Width: 285
GlyphClass: 2
Flags: W
LayerCount: 2
Back
Fore
SplineSet
234 0 m 2,0,-1
 54 0 l 2,1,2
 43 0 43 0 43 13 c 2,3,-1
 43 64 l 2,4,5
 43 115 43 115 78 144 c 2,6,-1
 187 234 l 2,7,8
 214 256 214 256 214 291 c 2,9,-1
 214 316 l 2,10,11
 214 371 214 371 164 371 c 2,12,-1
 118 371 l 2,13,14
 70 371 70 371 70 316 c 2,15,-1
 70 288 l 2,16,17
 70 273 70 273 58 273 c 2,18,-1
 50 273 l 2,19,20
 40 273 40 273 40 288 c 2,21,-1
 40 316 l 2,22,23
 40 360 40 360 61.5 382 c 128,-1,24
 83 404 83 404 118 404 c 2,25,-1
 164 404 l 2,26,27
 200 404 200 404 221.5 382 c 128,-1,28
 243 360 243 360 243 316 c 2,29,-1
 243 290 l 2,30,31
 243 239 243 239 206 208 c 2,32,-1
 96 117 l 2,33,34
 72 96 72 96 72 66 c 2,35,-1
 72 33 l 1,36,-1
 234 33 l 2,37,38
 245 33 245 33 245 20 c 2,39,-1
 245 13 l 2,40,41
 245 0 245 0 234 0 c 2,0,-1
EndSplineSet
EndChar

StartChar: three
Encoding: 51 51 22
Width: 297
GlyphClass: 2
Flags: W
LayerCount: 2
Back
Fore
SplineSet
171 0 m 2,0,-1
 124 0 l 2,1,2
 88 0 88 0 66.5 22 c 128,-1,3
 45 44 45 44 45 88 c 2,4,-1
 45 118 l 2,5,6
 45 132 45 132 55 132 c 2,7,-1
 64 132 l 2,8,9
 75 132 75 132 75 118 c 2,10,-1
 75 88 l 2,11,12
 75 33 75 33 124 33 c 2,13,-1
 171 33 l 2,14,15
 220 33 220 33 220 88 c 2,16,-1
 220 131 l 2,17,18
 220 187 220 187 171 187 c 2,19,-1
 137 187 l 2,20,21
 126 187 126 187 126 200 c 2,22,-1
 126 207 l 2,23,24
 126 219 126 219 137 219 c 2,25,-1
 171 219 l 2,26,27
 220 219 220 219 220 276 c 2,28,-1
 220 316 l 2,29,30
 220 371 220 371 171 371 c 2,31,-1
 124 371 l 2,32,33
 75 371 75 371 75 316 c 2,34,-1
 75 293 l 2,35,36
 75 279 75 279 64 279 c 2,37,-1
 55 279 l 2,38,39
 45 279 45 279 45 293 c 2,40,-1
 45 316 l 2,41,42
 45 360 45 360 66.5 382 c 128,-1,43
 88 404 88 404 124 404 c 2,44,-1
 171 404 l 2,45,46
 207 404 207 404 228.5 382 c 128,-1,47
 250 360 250 360 250 316 c 2,48,-1
 250 276 l 2,49,50
 250 233 250 233 218 204 c 1,51,52
 250 175 250 175 250 132 c 2,53,-1
 250 88 l 2,54,55
 250 44 250 44 228.5 22 c 128,-1,56
 207 0 207 0 171 0 c 2,0,-1
EndSplineSet
EndChar

StartChar: four
Encoding: 52 52 23
Width: 313
GlyphClass: 2
Flags: W
LayerCount: 2
Back
Fore
SplineSet
271 82 m 2,0,-1
 236 82 l 1,1,-1
 236 13 l 2,2,3
 236 0 236 0 225 0 c 2,4,-1
 217 0 l 2,5,6
 206 0 206 0 206 13 c 2,7,-1
 206 82 l 1,8,-1
 45 82 l 2,9,10
 33 82 33 82 33 95 c 2,11,-1
 33 102 l 1,12,-1
 33 103 l 1,13,-1
 34 108 l 2,14,15
 36 110 36 110 36 112 c 128,-1,16
 36 114 36 114 38 116 c 2,17,-1
 192 394 l 2,18,19
 198 404 198 404 209 404 c 2,20,-1
 225 404 l 2,21,22
 236 404 236 404 236 391 c 2,23,-1
 236 114 l 1,24,-1
 271 114 l 2,25,26
 284 114 284 114 284 102 c 2,27,-1
 284 95 l 2,28,29
 284 82 284 82 271 82 c 2,0,-1
206 357 m 1,30,-1
 71 114 l 1,31,-1
 206 114 l 1,32,-1
 206 357 l 1,30,-1
EndSplineSet
EndChar

StartChar: five
Encoding: 53 53 24
Width: 284
GlyphClass: 2
Flags: W
LayerCount: 2
Back
Fore
SplineSet
164 0 m 2,0,-1
 122 0 l 2,1,2
 85 0 85 0 64 24.5 c 128,-1,3
 43 49 43 49 43 91 c 2,4,-1
 43 114 l 2,5,6
 43 128 43 128 53 128 c 2,7,-1
 61 128 l 2,8,9
 73 128 73 128 73 114 c 2,10,-1
 73 92 l 2,11,12
 73 33 73 33 122 33 c 2,13,-1
 164 33 l 2,14,15
 214 33 214 33 214 92 c 2,16,-1
 214 167 l 2,17,18
 214 224 214 224 164 224 c 2,19,-1
 112 224 l 2,20,21
 98 224 98 224 91.5 221 c 128,-1,22
 85 218 85 218 81 211 c 0,23,24
 79 207 79 207 77 204 c 128,-1,25
 75 201 75 201 73 197 c 0,26,27
 70 192 70 192 63 192 c 2,28,-1
 53 192 l 2,29,30
 43 192 43 192 43 205 c 2,31,-1
 43 391 l 2,32,33
 43 404 43 404 53 404 c 2,34,-1
 226 404 l 2,35,36
 238 404 238 404 238 391 c 2,37,-1
 238 385 l 2,38,39
 238 371 238 371 226 371 c 2,40,-1
 73 371 l 1,41,-1
 73 244 l 1,42,43
 86 252 86 252 94.5 254.5 c 128,-1,44
 103 257 103 257 112 257 c 2,45,-1
 164 257 l 2,46,47
 200 257 200 257 222 234.5 c 128,-1,48
 244 212 244 212 244 167 c 2,49,-1
 244 91 l 2,50,51
 244 49 244 49 222 24.5 c 128,-1,52
 200 0 200 0 164 0 c 2,0,-1
EndSplineSet
EndChar

StartChar: six
Encoding: 54 54 25
Width: 291
GlyphClass: 2
Flags: W
LayerCount: 2
Back
Fore
SplineSet
169 0 m 2,0,-1
 120 0 l 2,1,2
 84 0 84 0 62.5 24.5 c 128,-1,3
 41 49 41 49 41 91 c 2,4,-1
 41 315 l 2,5,6
 41 357 41 357 62.5 380.5 c 128,-1,7
 84 404 84 404 120 404 c 2,8,-1
 221 404 l 2,9,10
 234 404 234 404 234 391 c 2,11,-1
 234 385 l 2,12,13
 234 371 234 371 221 371 c 2,14,-1
 120 371 l 2,15,16
 71 371 71 371 71 313 c 2,17,-1
 71 244 l 1,18,-1
 169 244 l 2,19,20
 207 244 207 244 228.5 220 c 128,-1,21
 250 196 250 196 250 154 c 2,22,-1
 250 91 l 2,23,24
 250 49 250 49 228.5 24.5 c 128,-1,25
 207 0 207 0 169 0 c 2,0,-1
220 153 m 2,26,27
 220 211 220 211 169 211 c 2,28,-1
 71 211 l 1,29,-1
 71 92 l 2,30,31
 71 33 71 33 120 33 c 2,32,-1
 169 33 l 2,33,34
 220 33 220 33 220 92 c 2,35,-1
 220 153 l 2,26,27
EndSplineSet
EndChar

StartChar: seven
Encoding: 55 55 26
Width: 223
GlyphClass: 2
Flags: W
LayerCount: 2
Back
Fore
SplineSet
205 375 m 2,0,-1
 87 12 l 2,1,2
 84 4 84 4 80.5 2 c 128,-1,3
 77 0 77 0 73 0 c 2,4,-1
 67 0 l 2,5,6
 60 0 60 0 58.5 3 c 128,-1,7
 57 6 57 6 57 14 c 2,8,-1
 57 20 l 1,9,-1
 173 371 l 1,10,-1
 27 371 l 2,11,12
 16 371 16 371 16 385 c 2,13,-1
 16 391 l 2,14,15
 16 404 16 404 27 404 c 2,16,-1
 195 404 l 2,17,18
 208 404 208 404 208 391 c 2,19,-1
 208 386 l 2,20,21
 208 378 208 378 205 375 c 2,0,-1
EndSplineSet
EndChar

StartChar: eight
Encoding: 56 56 27
Width: 297
GlyphClass: 2
Flags: W
LayerCount: 2
Back
Fore
SplineSet
176 0 m 2,0,-1
 118 0 l 2,1,2
 82 0 82 0 60 22 c 128,-1,3
 38 44 38 44 38 88 c 2,4,-1
 38 132 l 2,5,6
 38 173 38 173 69 204 c 1,7,8
 52 219 52 219 45 236.5 c 128,-1,9
 38 254 38 254 38 276 c 2,10,-1
 38 316 l 2,11,12
 38 360 38 360 60 382 c 128,-1,13
 82 404 82 404 118 404 c 2,14,-1
 176 404 l 2,15,16
 212 404 212 404 234 382 c 128,-1,17
 256 360 256 360 256 316 c 2,18,-1
 256 276 l 2,19,20
 256 253 256 253 249 236 c 128,-1,21
 242 219 242 219 225 204 c 1,22,23
 256 173 256 173 256 132 c 2,24,-1
 256 88 l 2,25,26
 256 44 256 44 234 22 c 128,-1,27
 212 0 212 0 176 0 c 2,0,-1
226 316 m 2,28,29
 226 371 226 371 176 371 c 2,30,-1
 118 371 l 2,31,32
 69 371 69 371 69 316 c 2,33,-1
 69 276 l 2,34,35
 69 219 69 219 118 219 c 2,36,-1
 176 219 l 2,37,38
 226 219 226 219 226 276 c 2,39,-1
 226 316 l 2,28,29
226 131 m 2,40,41
 226 187 226 187 176 187 c 2,42,-1
 118 187 l 2,43,44
 69 187 69 187 69 131 c 2,45,-1
 69 88 l 2,46,47
 69 33 69 33 118 33 c 2,48,-1
 176 33 l 2,49,50
 226 33 226 33 226 88 c 2,51,-1
 226 131 l 2,40,41
EndSplineSet
EndChar

StartChar: nine
Encoding: 57 57 28
Width: 284
GlyphClass: 2
Flags: W
LayerCount: 2
Back
Fore
SplineSet
167 0 m 2,0,-1
 66 0 l 2,1,2
 62 0 62 0 58.5 3 c 128,-1,3
 55 6 55 6 55 13 c 2,4,-1
 55 20 l 2,5,6
 55 26 55 26 58.5 29.5 c 128,-1,7
 62 33 62 33 66 33 c 2,8,-1
 167 33 l 2,9,10
 217 33 217 33 217 92 c 2,11,-1
 217 160 l 1,12,-1
 117 160 l 2,13,14
 81 160 81 160 59.5 184 c 128,-1,15
 38 208 38 208 38 250 c 2,16,-1
 38 315 l 2,17,18
 38 357 38 357 59.5 380.5 c 128,-1,19
 81 404 81 404 117 404 c 2,20,-1
 167 404 l 2,21,22
 203 404 203 404 225.5 380.5 c 128,-1,23
 248 357 248 357 248 315 c 2,24,-1
 248 91 l 2,25,26
 248 49 248 49 225.5 24.5 c 128,-1,27
 203 0 203 0 167 0 c 2,0,-1
217 313 m 2,28,29
 217 371 217 371 167 371 c 2,30,-1
 117 371 l 2,31,32
 68 371 68 371 68 313 c 2,33,-1
 68 251 l 2,34,35
 68 193 68 193 117 193 c 2,36,-1
 217 193 l 1,37,-1
 217 313 l 2,28,29
EndSplineSet
EndChar

StartChar: colon
Encoding: 58 58 29
Width: 110
GlyphClass: 2
Flags: W
LayerCount: 2
Back
Fore
SplineSet
46 258 m 2,0,1
 44 259 44 259 43 261 c 0,2,3
 41 264 41 264 41 273 c 2,4,-1
 41 329 l 2,5,6
 41 338 41 338 44 341 c 0,7,8
 45 344 45 344 44 344 c 2,9,-1
 64 344 l 2,10,11
 65 344 65 344 64 343.5 c 128,-1,12
 63 343 63 343 64 341 c 0,13,14
 68 337 68 337 68 329 c 2,15,-1
 68 273 l 2,16,17
 68 265 68 265 64 262 c 2,18,-1
 62 258 l 1,19,-1
 46 258 l 2,0,1
62 90 m 1,20,-1
 67 86 l 2,21,22
 68 85 68 85 68 75 c 2,23,-1
 68 14 l 2,24,25
 68 9 68 9 65 3 c 0,26,27
 63 0 63 0 64 0 c 2,28,-1
 45 0 l 2,29,30
 45 1 45 1 41 6 c 1,31,32
 41 6 41 6 41 14 c 2,33,-1
 41 75 l 2,34,35
 41 83 41 83 43 88 c 0,36,37
 45 90 45 90 44 90 c 2,38,-1
 62 90 l 1,20,-1
EndSplineSet
EndChar

StartChar: semicolon
Encoding: 59 59 30
Width: 109
GlyphClass: 2
Flags: W
LayerCount: 2
Back
Fore
SplineSet
46 258 m 2,0,1
 45 259 45 259 43 263 c 0,2,3
 42 265 42 265 41.5 267 c 128,-1,4
 41 269 41 269 41 274 c 2,5,-1
 41 329 l 2,6,7
 41 338 41 338 44 341 c 0,8,9
 45 344 45 344 44 344 c 2,10,-1
 64 344 l 2,11,12
 65 344 65 344 64 343.5 c 128,-1,13
 63 343 63 343 64 341 c 0,14,15
 68 337 68 337 68 329 c 2,16,-1
 68 274 l 2,17,18
 68 267 68 267 64 263 c 2,19,-1
 62 258 l 1,20,-1
 46 258 l 2,0,1
67 5 m 0,21,22
 64 -11 64 -11 63 -22 c 128,-1,23
 62 -33 62 -33 62 -42 c 2,24,-1
 61 -54 l 2,25,26
 60 -55 60 -55 60 -57 c 2,27,-1
 60 -59 l 2,28,29
 60 -64 60 -64 57 -67 c 0,30,31
 53 -69 53 -69 52 -69 c 0,32,33
 50 -69 50 -69 48 -68 c 0,34,35
 45 -68 45 -68 44.5 -63.5 c 128,-1,36
 44 -59 44 -59 43 -57 c 2,37,-1
 41 69 l 2,38,39
 41 73 41 73 40.5 77 c 128,-1,40
 40 81 40 81 44 81 c 2,41,-1
 64 81 l 1,42,-1
 65 80 l 1,43,-1
 68 67 l 2,44,45
 69 50 69 50 69 34.5 c 128,-1,46
 69 19 69 19 67 5 c 0,21,22
EndSplineSet
EndChar

StartChar: less
Encoding: 60 60 31
Width: 353
GlyphClass: 2
Flags: W
LayerCount: 2
Back
Fore
SplineSet
312 51 m 0,0,1
 311 50 311 50 300 53 c 2,2,-1
 35 147 l 2,3,4
 31 149 31 149 27 153 c 0,5,6
 25 155 25 155 25 163 c 2,7,-1
 25 174 l 2,8,9
 25 180 25 180 27 183 c 0,10,11
 33 189 33 189 36 189 c 2,12,-1
 302 296 l 2,13,14
 306 300 306 300 314 296 c 0,15,16
 319 293 319 293 319 284 c 2,17,-1
 319 276 l 2,18,19
 319 264 319 264 310 260 c 2,20,-1
 68 169 l 1,21,-1
 310 87 l 1,22,-1
 313 85 l 2,23,24
 315 80 315 80 317 79.5 c 128,-1,25
 319 79 319 79 319 72 c 2,26,-1
 319 63 l 2,27,28
 319 58 319 58 312 51 c 0,0,1
EndSplineSet
EndChar

StartChar: equal
Encoding: 61 61 32
Width: 383
GlyphClass: 2
Flags: W
LayerCount: 2
Back
Fore
SplineSet
59 244 m 2,0,-1
 316 244 l 2,1,2
 323 244 323 244 326 241 c 0,3,4
 330 239 330 239 330 232 c 2,5,-1
 330 224 l 2,6,7
 330 221 330 221 325 214 c 0,8,9
 322 211 322 211 316 211 c 2,10,-1
 58 211 l 2,11,12
 54 211 54 211 48 216 c 0,13,14
 46 218 46 218 46 224 c 2,15,-1
 46 232 l 2,16,17
 46 237 46 237 47.5 239 c 128,-1,18
 49 241 49 241 59 244 c 2,0,-1
325 81 m 0,19,20
 322 78 322 78 316 78 c 2,21,-1
 58 78 l 2,22,23
 53 78 53 78 49 81 c 0,24,25
 46 84 46 84 46 91 c 2,26,-1
 46 99 l 2,27,28
 46 105 46 105 48 107 c 0,29,30
 52 111 52 111 58 111 c 2,31,-1
 316 111 l 2,32,33
 319 111 319 111 327 106 c 0,34,35
 330 103 330 103 330 99 c 2,36,-1
 330 91 l 2,37,38
 330 86 330 86 325 81 c 0,19,20
EndSplineSet
EndChar

StartChar: greater
Encoding: 62 62 33
Width: 398
GlyphClass: 2
Flags: W
LayerCount: 2
Back
Fore
SplineSet
336 151 m 0,0,1
 333 149 333 149 331.5 147.5 c 128,-1,2
 330 146 330 146 328 145 c 2,3,-1
 63 51 l 2,4,5
 52 48 52 48 51 49 c 0,6,7
 45 52 45 52 45 61 c 2,8,-1
 45 70 l 2,9,10
 45 75 45 75 46 76.5 c 128,-1,11
 47 78 47 78 49 81 c 2,12,-1
 51 83 l 2,13,14
 52 84 52 84 52 85 c 2,15,-1
 295 167 l 1,16,-1
 53 258 l 2,17,18
 45 261 45 261 45 274 c 2,19,-1
 45 282 l 2,20,21
 45 291 45 291 49 294 c 0,22,23
 57 298 57 298 61 294 c 2,24,-1
 327 187 l 1,25,26
 327 187 327 187 331 185 c 2,27,-1
 336 181 l 2,28,29
 339 176 339 176 339 172 c 2,30,-1
 339 161 l 2,31,32
 339 154 339 154 336 151 c 0,0,1
EndSplineSet
EndChar

StartChar: question
Encoding: 63 63 34
Width: 297
GlyphClass: 2
Flags: W
LayerCount: 2
Back
Fore
SplineSet
212 247 m 2,0,-1
 189 226 l 2,1,2
 184 221 184 221 181 217.5 c 128,-1,3
 178 214 178 214 176 211 c 0,4,5
 168 199 168 199 168 191.5 c 128,-1,6
 168 184 168 184 168 171 c 2,7,-1
 168 146 l 2,8,9
 168 140 168 140 164.5 135.5 c 128,-1,10
 161 131 161 131 155 131 c 2,11,-1
 148 131 l 2,12,13
 141 131 141 131 138 136 c 128,-1,14
 135 141 135 141 135 146 c 2,15,-1
 135 168 l 2,16,17
 135 197 135 197 142 215 c 0,18,19
 150 231 150 231 164 245 c 128,-1,20
 178 259 178 259 190 271 c 256,21,22
 202 283 202 283 206.5 293 c 128,-1,23
 211 303 211 303 211 316 c 2,24,-1
 211 338 l 2,25,26
 211 397 211 397 158 397 c 2,27,-1
 131 397 l 2,28,29
 80 397 80 397 80 338 c 2,30,-1
 80 308 l 2,31,32
 80 292 80 292 68 292 c 2,33,-1
 59 292 l 2,34,35
 48 292 48 292 48 308 c 2,36,-1
 48 339 l 2,37,38
 48 384 48 384 70.5 408.5 c 128,-1,39
 93 433 93 433 131 433 c 2,40,-1
 158 433 l 2,41,42
 197 433 197 433 220 408.5 c 128,-1,43
 243 384 243 384 243 339 c 2,44,-1
 243 315 l 2,45,46
 243 276 243 276 212 247 c 2,0,-1
157 0 m 2,47,-1
 145 0 l 2,48,49
 138 0 138 0 135.5 4.5 c 128,-1,50
 133 9 133 9 133 14 c 2,51,-1
 133 74 l 2,52,53
 133 91 133 91 145 91 c 2,54,-1
 157 91 l 2,55,56
 169 91 169 91 169 74 c 2,57,-1
 169 14 l 2,58,59
 169 9 169 9 165.5 4.5 c 128,-1,60
 162 0 162 0 157 0 c 2,47,-1
EndSplineSet
EndChar

StartChar: at
Encoding: 64 64 35
Width: 479
GlyphClass: 2
Flags: W
LayerCount: 2
Back
Fore
SplineSet
333 53 m 2,0,-1
 319 53 l 2,1,2
 311 53 311 53 305.5 56 c 128,-1,3
 300 59 300 59 293 73 c 1,4,5
 264 54 264 54 233 54 c 0,6,7
 190 54 190 54 166 78 c 128,-1,8
 142 102 142 102 142 150 c 2,9,-1
 142 218 l 2,10,11
 142 265 142 265 166 289.5 c 128,-1,12
 190 314 190 314 233 314 c 2,13,-1
 315 314 l 2,14,15
 329 314 329 314 329 299 c 2,16,-1
 329 87 l 1,17,18
 361 90 361 90 375 105 c 128,-1,19
 389 120 389 120 389 149 c 2,20,-1
 389 309 l 2,21,22
 389 370 389 370 333 370 c 2,23,-1
 214 370 l 2,24,25
 163 370 163 370 126 331 c 0,26,27
 89 293 89 293 89 234 c 2,28,-1
 89 134 l 2,29,30
 89 74 89 74 126 36 c 0,31,32
 162 -2 162 -2 214 -2 c 2,33,-1
 328 -2 l 2,34,35
 341 -2 341 -2 341 -18 c 2,36,-1
 341 -25 l 2,37,38
 341 -40 341 -40 328 -40 c 2,39,-1
 215 -40 l 2,40,41
 151 -40 151 -40 102 7 c 256,42,43
 53 54 53 54 53 135 c 2,44,-1
 53 233 l 2,45,46
 53 313 53 313 102 360 c 256,47,48
 151 407 151 407 215 407 c 2,49,-1
 333 407 l 2,50,51
 376 407 376 407 400.5 380.5 c 128,-1,52
 425 354 425 354 425 310 c 2,53,-1
 425 148 l 2,54,55
 425 103 425 103 400.5 78 c 128,-1,56
 376 53 376 53 333 53 c 2,0,-1
301 261 m 2,57,58
 301 273 301 273 294 280 c 128,-1,59
 287 287 287 287 275 286 c 2,60,-1
 238 282 l 2,61,62
 209 280 209 280 190 266 c 128,-1,63
 171 252 171 252 171 217 c 2,64,-1
 171 150 l 2,65,66
 171 81 171 81 233 81 c 2,67,-1
 234 81 l 2,68,69
 301 81 301 81 301 147 c 2,70,-1
 301 261 l 2,57,58
EndSplineSet
EndChar

StartChar: A
Encoding: 65 65 36
Width: 320
GlyphClass: 2
Flags: W
LayerCount: 2
Back
Fore
SplineSet
284 0 m 2,0,-1
 275 0 l 2,1,2
 269 0 269 0 266 4 c 128,-1,3
 263 8 263 8 261 14 c 2,4,-1
 231 108 l 1,5,-1
 87 108 l 1,6,-1
 55 12 l 2,7,8
 50 0 50 0 41 0 c 2,9,-1
 34 0 l 2,10,11
 27 0 27 0 23.5 6 c 128,-1,12
 20 12 20 12 22 18 c 2,13,-1
 138 390 l 1,14,-1
 141 396 l 2,15,16
 142 397 142 397 142 397.5 c 128,-1,17
 142 398 142 398 143 399 c 0,18,19
 147 404 147 404 152 404 c 2,20,-1
 165 404 l 2,21,22
 175 404 175 404 180 392 c 2,23,-1
 296 18 l 2,24,25
 298 12 298 12 294.5 6 c 128,-1,26
 291 0 291 0 284 0 c 2,0,-1
158 350 m 1,27,28
 142 289 142 289 126.5 236 c 128,-1,29
 111 183 111 183 100 147 c 1,30,-1
 218 147 l 1,31,-1
 158 350 l 1,27,28
EndSplineSet
EndChar

StartChar: B
Encoding: 66 66 37
Width: 316
GlyphClass: 2
Flags: W
LayerCount: 2
Back
Fore
SplineSet
189 0 m 2,0,-1
 61 0 l 2,1,2
 48 0 48 0 48 14 c 2,3,-1
 48 389 l 2,4,5
 48 404 48 404 61 404 c 2,6,-1
 185 404 l 2,7,8
 224 404 224 404 245.5 382 c 128,-1,9
 267 360 267 360 267 315 c 2,10,-1
 267 276 l 2,11,12
 267 254 267 254 260 237.5 c 128,-1,13
 253 221 253 221 236 206 c 1,14,15
 271 172 271 172 271 133 c 2,16,-1
 271 89 l 2,17,18
 271 45 271 45 248 22.5 c 128,-1,19
 225 0 225 0 189 0 c 2,0,-1
234 315 m 2,20,21
 234 368 234 368 185 368 c 2,22,-1
 82 368 l 1,23,-1
 82 222 l 1,24,-1
 185 222 l 2,25,26
 208 222 208 222 221 235 c 128,-1,27
 234 248 234 248 234 277 c 2,28,-1
 234 315 l 2,20,21
236 133 m 2,29,30
 236 159 236 159 225 173 c 128,-1,31
 214 187 214 187 185 187 c 2,32,-1
 82 187 l 1,33,-1
 82 36 l 1,34,-1
 189 36 l 2,35,36
 236 36 236 36 236 89 c 2,37,-1
 236 133 l 2,29,30
EndSplineSet
EndChar

StartChar: C
Encoding: 67 67 38
Width: 317
GlyphClass: 2
Flags: W
LayerCount: 2
Back
Fore
SplineSet
195 0 m 2,0,-1
 124 0 l 2,1,2
 85 0 85 0 64 23.5 c 128,-1,3
 43 47 43 47 43 92 c 2,4,-1
 43 312 l 2,5,6
 43 354 43 354 64.5 379 c 128,-1,7
 86 404 86 404 124 404 c 2,8,-1
 195 404 l 2,9,10
 233 404 233 404 254.5 379 c 128,-1,11
 276 354 276 354 276 312 c 2,12,-1
 276 285 l 2,13,14
 276 278 276 278 273 273 c 128,-1,15
 270 268 270 268 263 268 c 2,16,-1
 256 268 l 2,17,18
 243 268 243 268 243 285 c 2,19,-1
 243 312 l 2,20,21
 243 368 243 368 195 368 c 2,22,-1
 124 368 l 2,23,24
 77 368 77 368 77 312 c 2,25,-1
 77 93 l 2,26,27
 77 36 77 36 124 36 c 2,28,-1
 195 36 l 2,29,30
 243 36 243 36 243 93 c 2,31,-1
 243 120 l 2,32,33
 243 135 243 135 256 135 c 2,34,-1
 263 135 l 2,35,36
 269 135 269 135 272.5 130 c 128,-1,37
 276 125 276 125 276 120 c 2,38,-1
 276 92 l 2,39,40
 276 47 276 47 255 23.5 c 128,-1,41
 234 0 234 0 195 0 c 2,0,-1
EndSplineSet
EndChar

StartChar: D
Encoding: 68 68 39
Width: 330
GlyphClass: 2
Flags: W
LayerCount: 2
Back
Fore
SplineSet
197 0 m 2,0,-1
 63 0 l 2,1,2
 51 0 51 0 51 14 c 2,3,-1
 51 389 l 2,4,5
 51 404 51 404 63 404 c 2,6,-1
 197 404 l 2,7,8
 235 404 235 404 256.5 379 c 128,-1,9
 278 354 278 354 278 312 c 2,10,-1
 278 92 l 2,11,12
 278 47 278 47 257 23.5 c 128,-1,13
 236 0 236 0 197 0 c 2,0,-1
245 312 m 2,14,15
 245 368 245 368 197 368 c 2,16,-1
 85 368 l 1,17,-1
 85 36 l 1,18,-1
 197 36 l 2,19,20
 245 36 245 36 245 93 c 2,21,-1
 245 312 l 2,14,15
EndSplineSet
EndChar

StartChar: E
Encoding: 69 69 40
Width: 278
GlyphClass: 2
Flags: W
LayerCount: 2
Back
Fore
SplineSet
222 0 m 2,0,-1
 62 0 l 2,1,2
 50 0 50 0 50 14 c 2,3,-1
 50 389 l 2,4,5
 50 404 50 404 62 404 c 2,6,-1
 222 404 l 2,7,8
 235 404 235 404 235 390 c 2,9,-1
 235 382 l 2,10,11
 235 375 235 375 230.5 371.5 c 128,-1,12
 226 368 226 368 222 368 c 2,13,-1
 82 368 l 1,14,-1
 82 224 l 1,15,-1
 209 224 l 2,16,17
 213 224 213 224 217.5 220.5 c 128,-1,18
 222 217 222 217 222 209 c 2,19,-1
 222 202 l 2,20,21
 222 188 222 188 209 188 c 2,22,-1
 82 188 l 1,23,-1
 82 36 l 1,24,-1
 222 36 l 2,25,26
 235 36 235 36 235 22 c 2,27,-1
 235 14 l 2,28,29
 235 7 235 7 230.5 3.5 c 128,-1,30
 226 0 226 0 222 0 c 2,0,-1
EndSplineSet
EndChar

StartChar: F
Encoding: 70 70 41
Width: 266
GlyphClass: 2
Flags: W
LayerCount: 2
Back
Fore
SplineSet
219 368 m 2,0,-1
 79 368 l 1,1,-1
 79 218 l 1,2,-1
 205 218 l 2,3,4
 209 218 209 218 213.5 214.5 c 128,-1,5
 218 211 218 211 218 205 c 2,6,-1
 218 198 l 2,7,8
 218 189 218 189 213.5 186 c 128,-1,9
 209 183 209 183 205 183 c 2,10,-1
 79 183 l 1,11,-1
 79 14 l 2,12,13
 79 9 79 9 76 4.5 c 128,-1,14
 73 0 73 0 66 0 c 2,15,-1
 59 0 l 2,16,17
 46 0 46 0 46 14 c 2,18,-1
 46 389 l 2,19,20
 46 395 46 395 49 399.5 c 128,-1,21
 52 404 52 404 59 404 c 2,22,-1
 219 404 l 2,23,24
 232 404 232 404 232 390 c 2,25,-1
 232 382 l 2,26,27
 232 375 232 375 227.5 371.5 c 128,-1,28
 223 368 223 368 219 368 c 2,0,-1
EndSplineSet
EndChar

StartChar: G
Encoding: 71 71 42
Width: 306
GlyphClass: 2
Flags: W
LayerCount: 2
Back
Fore
SplineSet
181 0 m 2,0,-1
 120 0 l 2,1,2
 82 0 82 0 61.5 23.5 c 128,-1,3
 41 47 41 47 41 92 c 2,4,-1
 41 312 l 2,5,6
 41 355 41 355 61.5 379.5 c 128,-1,7
 82 404 82 404 120 404 c 2,8,-1
 181 404 l 2,9,10
 219 404 219 404 240 379.5 c 128,-1,11
 261 355 261 355 261 312 c 2,12,-1
 261 285 l 2,13,14
 261 268 261 268 248 268 c 2,15,-1
 240 268 l 2,16,17
 233 268 233 268 230.5 273 c 128,-1,18
 228 278 228 278 228 285 c 2,19,-1
 228 312 l 2,20,21
 228 368 228 368 181 368 c 2,22,-1
 120 368 l 2,23,24
 74 368 74 368 74 312 c 2,25,-1
 74 93 l 2,26,27
 74 36 74 36 120 36 c 2,28,-1
 181 36 l 2,29,30
 228 36 228 36 228 93 c 2,31,-1
 228 178 l 1,32,-1
 161 178 l 2,33,34
 150 178 150 178 150 192 c 2,35,-1
 150 199 l 2,36,37
 150 204 150 204 153 209 c 128,-1,38
 156 214 156 214 161 214 c 2,39,-1
 242 214 l 2,40,41
 261 214 261 214 261 193 c 2,42,-1
 261 92 l 2,43,44
 261 47 261 47 240 23.5 c 128,-1,45
 219 0 219 0 181 0 c 2,0,-1
EndSplineSet
EndChar

StartChar: H
Encoding: 72 72 43
Width: 326
GlyphClass: 2
Flags: W
LayerCount: 2
Back
Fore
SplineSet
260 0 m 2,0,-1
 253 0 l 2,1,2
 240 0 240 0 240 14 c 2,3,-1
 240 188 l 1,4,-1
 81 188 l 1,5,-1
 81 14 l 2,6,7
 81 9 81 9 77.5 4.5 c 128,-1,8
 74 0 74 0 67 0 c 2,9,-1
 59 0 l 2,10,11
 46 0 46 0 46 14 c 2,12,-1
 46 389 l 2,13,14
 46 404 46 404 59 404 c 2,15,-1
 67 404 l 2,16,17
 75 404 75 404 78 399 c 128,-1,18
 81 394 81 394 81 389 c 2,19,-1
 81 224 l 1,20,-1
 240 224 l 1,21,-1
 240 389 l 2,22,23
 240 404 240 404 253 404 c 2,24,-1
 260 404 l 2,25,26
 267 404 267 404 270 399 c 128,-1,27
 273 394 273 394 273 389 c 2,28,-1
 273 14 l 2,29,30
 273 9 273 9 270 4.5 c 128,-1,31
 267 0 267 0 260 0 c 2,0,-1
EndSplineSet
EndChar

StartChar: I
Encoding: 73 73 44
Width: 113
GlyphClass: 2
Flags: W
LayerCount: 2
Back
Fore
SplineSet
58 0 m 2,0,-1
 50 0 l 2,1,2
 45 0 45 0 42 5 c 128,-1,3
 39 10 39 10 39 15 c 2,4,-1
 39 389 l 2,5,6
 39 404 39 404 50 404 c 2,7,-1
 58 404 l 2,8,9
 71 404 71 404 71 389 c 2,10,-1
 71 15 l 2,11,12
 71 0 71 0 58 0 c 2,0,-1
EndSplineSet
EndChar

StartChar: J
Encoding: 74 74 45
Width: 284
GlyphClass: 2
Flags: W
LayerCount: 2
Back
Fore
SplineSet
159 0 m 2,0,-1
 106 0 l 2,1,2
 68 0 68 0 47.5 23.5 c 128,-1,3
 27 47 27 47 27 92 c 2,4,-1
 27 140 l 2,5,6
 27 145 27 145 30 149.5 c 128,-1,7
 33 154 33 154 38 154 c 2,8,-1
 46 154 l 2,9,10
 59 154 59 154 59 140 c 2,11,-1
 59 93 l 2,12,13
 59 36 59 36 106 36 c 2,14,-1
 159 36 l 2,15,16
 208 36 208 36 208 93 c 2,17,-1
 208 389 l 2,18,19
 208 394 208 394 210.5 399 c 128,-1,20
 213 404 213 404 220 404 c 2,21,-1
 228 404 l 2,22,23
 241 404 241 404 241 390 c 2,24,-1
 241 92 l 2,25,26
 241 47 241 47 219.5 23.5 c 128,-1,27
 198 0 198 0 159 0 c 2,0,-1
EndSplineSet
EndChar

StartChar: K
Encoding: 75 75 46
Width: 310
GlyphClass: 2
Flags: W
LayerCount: 2
Back
Fore
SplineSet
267 0 m 2,0,-1
 260 0 l 2,1,2
 248 0 248 0 245 10 c 2,3,-1
 129 198 l 1,4,-1
 78 127 l 1,5,-1
 78 14 l 2,6,7
 78 9 78 9 74.5 4.5 c 128,-1,8
 71 0 71 0 64 0 c 2,9,-1
 57 0 l 2,10,11
 43 0 43 0 43 14 c 2,12,-1
 43 389 l 2,13,14
 43 404 43 404 57 404 c 2,15,-1
 64 404 l 2,16,17
 72 404 72 404 75 399 c 128,-1,18
 78 394 78 394 78 389 c 2,19,-1
 78 184 l 1,20,-1
 225 394 l 2,21,22
 232 404 232 404 240 404 c 2,23,-1
 251 404 l 2,24,25
 259 404 259 404 261 395.5 c 128,-1,26
 263 387 263 387 260 383 c 2,27,-1
 152 228 l 1,28,-1
 277 21 l 2,29,30
 282 13 282 13 280 6.5 c 128,-1,31
 278 0 278 0 267 0 c 2,0,-1
EndSplineSet
EndChar

StartChar: L
Encoding: 76 76 47
Width: 265
GlyphClass: 2
Flags: W
LayerCount: 2
Back
Fore
SplineSet
223 0 m 2,0,-1
 56 0 l 2,1,2
 43 0 43 0 43 14 c 2,3,-1
 43 389 l 2,4,5
 43 395 43 395 46 399.5 c 128,-1,6
 49 404 49 404 56 404 c 2,7,-1
 63 404 l 2,8,9
 71 404 71 404 74 399 c 128,-1,10
 77 394 77 394 77 389 c 2,11,-1
 77 37 l 1,12,-1
 223 37 l 2,13,14
 228 37 228 37 231.5 32.5 c 128,-1,15
 235 28 235 28 235 23 c 2,16,-1
 235 14 l 2,17,18
 235 7 235 7 231.5 3.5 c 128,-1,19
 228 0 228 0 223 0 c 2,0,-1
EndSplineSet
EndChar

StartChar: M
Encoding: 77 77 48
Width: 397
GlyphClass: 2
Flags: W
LayerCount: 2
Back
Fore
SplineSet
336 0 m 2,0,-1
 328 0 l 2,1,2
 315 0 315 0 315 14 c 2,3,-1
 315 320 l 1,4,-1
 218 93 l 2,5,6
 213 84 213 84 202 84 c 2,7,-1
 193 84 l 2,8,9
 182 84 182 84 178 93 c 2,10,-1
 81 322 l 1,11,-1
 81 14 l 2,12,13
 81 9 81 9 78 4.5 c 128,-1,14
 75 0 75 0 68 0 c 2,15,-1
 60 0 l 2,16,17
 46 0 46 0 46 14 c 2,18,-1
 46 389 l 2,19,20
 46 404 46 404 60 404 c 2,21,-1
 75 404 l 2,22,23
 84 404 84 404 87 396 c 2,24,-1
 198 136 l 1,25,-1
 307 396 l 2,26,27
 310 404 310 404 320 404 c 2,28,-1
 336 404 l 2,29,30
 343 404 343 404 346 399 c 128,-1,31
 349 394 349 394 349 389 c 2,32,-1
 349 14 l 2,33,34
 349 9 349 9 346 4.5 c 128,-1,35
 343 0 343 0 336 0 c 2,0,-1
EndSplineSet
EndChar

StartChar: N
Encoding: 78 78 49
Width: 327
GlyphClass: 2
Flags: W
LayerCount: 2
Back
Fore
SplineSet
267 0 m 2,0,-1
 261 0 l 2,1,2
 253 0 253 0 247 9 c 2,3,-1
 81 322 l 1,4,-1
 81 14 l 2,5,6
 81 9 81 9 77.5 4.5 c 128,-1,7
 74 0 74 0 67 0 c 2,8,-1
 60 0 l 2,9,10
 46 0 46 0 46 14 c 2,11,-1
 46 389 l 2,12,13
 46 404 46 404 60 404 c 2,14,-1
 67 404 l 2,15,16
 77 404 77 404 77 398 c 2,17,-1
 247 84 l 1,18,-1
 247 389 l 2,19,20
 247 394 247 394 249.5 399 c 128,-1,21
 252 404 252 404 259 404 c 2,22,-1
 267 404 l 2,23,24
 274 404 274 404 277 399 c 128,-1,25
 280 394 280 394 280 389 c 2,26,-1
 280 14 l 2,27,28
 280 9 280 9 277 4.5 c 128,-1,29
 274 0 274 0 267 0 c 2,0,-1
EndSplineSet
EndChar

StartChar: O
Encoding: 79 79 50
Width: 313
GlyphClass: 2
Flags: W
LayerCount: 2
Back
Fore
SplineSet
189 0 m 2,0,-1
 121 0 l 2,1,2
 83 0 83 0 62 23.5 c 128,-1,3
 41 47 41 47 41 92 c 2,4,-1
 41 312 l 2,5,6
 41 354 41 354 62 379 c 128,-1,7
 83 404 83 404 121 404 c 2,8,-1
 189 404 l 2,9,10
 227 404 227 404 249 379 c 128,-1,11
 271 354 271 354 271 312 c 2,12,-1
 271 92 l 2,13,14
 271 47 271 47 249.5 23.5 c 128,-1,15
 228 0 228 0 189 0 c 2,0,-1
237 312 m 2,16,17
 237 368 237 368 189 368 c 2,18,-1
 121 368 l 2,19,20
 74 368 74 368 74 312 c 2,21,-1
 74 93 l 2,22,23
 74 36 74 36 121 36 c 2,24,-1
 189 36 l 2,25,26
 237 36 237 36 237 93 c 2,27,-1
 237 312 l 2,16,17
EndSplineSet
EndChar

StartChar: P
Encoding: 80 80 51
Width: 303
GlyphClass: 2
Flags: W
LayerCount: 2
Back
Fore
SplineSet
181 148 m 2,0,-1
 80 148 l 1,1,-1
 80 14 l 2,2,3
 80 9 80 9 77 4.5 c 128,-1,4
 74 0 74 0 67 0 c 2,5,-1
 59 0 l 2,6,7
 46 0 46 0 46 14 c 2,8,-1
 46 389 l 2,9,10
 46 404 46 404 59 404 c 2,11,-1
 181 404 l 2,12,13
 219 404 219 404 240 379.5 c 128,-1,14
 261 355 261 355 261 312 c 2,15,-1
 261 240 l 2,16,17
 261 198 261 198 240 173 c 128,-1,18
 219 148 219 148 181 148 c 2,0,-1
229 312 m 2,19,20
 229 368 229 368 181 368 c 2,21,-1
 80 368 l 1,22,-1
 80 185 l 1,23,-1
 181 185 l 2,24,25
 204 185 204 185 216.5 198.5 c 128,-1,26
 229 212 229 212 229 241 c 2,27,-1
 229 312 l 2,19,20
EndSplineSet
EndChar

StartChar: Q
Encoding: 81 81 52
Width: 326
GlyphClass: 2
Flags: W
LayerCount: 2
Back
Fore
SplineSet
213 -2 m 1,0,-1
 246 -63 l 2,1,2
 248 -68 248 -68 248 -76 c 128,-1,3
 248 -84 248 -84 237 -84 c 2,4,-1
 228 -84 l 2,5,6
 220 -84 220 -84 213 -75 c 2,7,-1
 174 -5 l 1,8,-1
 130 -5 l 2,9,10
 92 -5 92 -5 70.5 20 c 128,-1,11
 49 45 49 45 49 89 c 2,12,-1
 49 313 l 2,13,14
 49 355 49 355 70.5 379.5 c 128,-1,15
 92 404 92 404 130 404 c 2,16,-1
 198 404 l 2,17,18
 236 404 236 404 257.5 379.5 c 128,-1,19
 279 355 279 355 279 313 c 2,20,-1
 279 89 l 2,21,22
 279 19 279 19 213 -2 c 1,0,-1
246 312 m 2,23,24
 246 367 246 367 198 367 c 2,25,-1
 130 367 l 2,26,27
 82 367 82 367 82 312 c 2,28,-1
 82 90 l 2,29,30
 82 33 82 33 130 33 c 2,31,-1
 198 33 l 2,32,33
 246 33 246 33 246 90 c 2,34,-1
 246 312 l 2,23,24
EndSplineSet
EndChar

StartChar: R
Encoding: 82 82 53
Width: 302
GlyphClass: 2
Flags: W
LayerCount: 2
Back
Fore
SplineSet
255 0 m 2,0,-1
 244 0 l 2,1,2
 234 0 234 0 231 8 c 2,3,-1
 167 162 l 1,4,-1
 78 162 l 1,5,-1
 78 14 l 2,6,7
 78 0 78 0 63 0 c 2,8,-1
 57 0 l 2,9,10
 52 0 52 0 47.5 2.5 c 128,-1,11
 43 5 43 5 43 14 c 2,12,-1
 43 390 l 2,13,14
 43 404 43 404 57 404 c 2,15,-1
 177 404 l 2,16,17
 216 404 216 404 237.5 380.5 c 128,-1,18
 259 357 259 357 259 312 c 2,19,-1
 259 254 l 2,20,21
 259 221 259 221 245.5 199.5 c 128,-1,22
 232 178 232 178 201 164 c 1,23,-1
 264 19 l 2,24,25
 265 15 265 15 265.5 7.5 c 128,-1,26
 266 0 266 0 255 0 c 2,0,-1
226 312 m 2,27,28
 226 369 226 369 177 369 c 2,29,-1
 78 369 l 1,30,-1
 78 198 l 1,31,-1
 177 198 l 2,32,33
 226 198 226 198 226 254 c 2,34,-1
 226 312 l 2,27,28
EndSplineSet
EndChar

StartChar: S
Encoding: 83 83 54
Width: 303
GlyphClass: 2
Flags: W
LayerCount: 2
Back
Fore
SplineSet
183 0 m 2,0,-1
 118 0 l 2,1,2
 79 0 79 0 58 23.5 c 128,-1,3
 37 47 37 47 37 92 c 2,4,-1
 37 115 l 2,5,6
 37 131 37 131 49 131 c 2,7,-1
 58 131 l 2,8,9
 71 131 71 131 71 115 c 2,10,-1
 71 93 l 2,11,12
 71 36 71 36 118 36 c 2,13,-1
 183 36 l 2,14,15
 231 36 231 36 231 93 c 2,16,-1
 231 121 l 2,17,18
 231 143 231 143 214 158 c 128,-1,19
 197 173 197 173 169 180 c 0,20,21
 147 185 147 185 125 190.5 c 128,-1,22
 103 196 103 196 83 207 c 256,23,24
 63 218 63 218 50 234.5 c 128,-1,25
 37 251 37 251 37 277 c 2,26,-1
 37 312 l 2,27,28
 37 354 37 354 58.5 379 c 128,-1,29
 80 404 80 404 118 404 c 2,30,-1
 183 404 l 2,31,32
 221 404 221 404 242.5 379 c 128,-1,33
 264 354 264 354 264 312 c 2,34,-1
 264 296 l 2,35,36
 264 279 264 279 251 279 c 2,37,-1
 244 279 l 2,38,39
 231 279 231 279 231 296 c 2,40,-1
 231 312 l 2,41,42
 231 368 231 368 183 368 c 2,43,-1
 118 368 l 2,44,45
 71 368 71 368 71 312 c 2,46,-1
 71 278 l 2,47,48
 71 261 71 261 84 247.5 c 128,-1,49
 97 234 97 234 131 226 c 0,50,51
 154 221 154 221 175.5 215.5 c 128,-1,52
 197 210 197 210 218 198 c 0,53,54
 238 187 238 187 251 169.5 c 128,-1,55
 264 152 264 152 264 123 c 2,56,-1
 264 92 l 2,57,58
 264 47 264 47 243 23.5 c 128,-1,59
 222 0 222 0 183 0 c 2,0,-1
EndSplineSet
EndChar

StartChar: T
Encoding: 84 84 55
Width: 259
GlyphClass: 2
Flags: W
LayerCount: 2
Back
Fore
SplineSet
226 368 m 2,0,-1
 147 368 l 1,1,-1
 147 14 l 2,2,3
 147 9 147 9 143.5 4.5 c 128,-1,4
 140 0 140 0 133 0 c 2,5,-1
 127 0 l 2,6,7
 120 0 120 0 117 4.5 c 128,-1,8
 114 9 114 9 114 14 c 2,9,-1
 114 368 l 1,10,-1
 34 368 l 2,11,12
 29 368 29 368 25 371 c 128,-1,13
 21 374 21 374 21 382 c 2,14,-1
 21 390 l 2,15,16
 21 404 21 404 34 404 c 2,17,-1
 226 404 l 2,18,19
 239 404 239 404 239 390 c 2,20,-1
 239 382 l 2,21,22
 239 368 239 368 226 368 c 2,0,-1
EndSplineSet
EndChar

StartChar: U
Encoding: 85 85 56
Width: 310
GlyphClass: 2
Flags: W
LayerCount: 2
Back
Fore
SplineSet
185 0 m 2,0,-1
 124 0 l 2,1,2
 86 0 86 0 65 23.5 c 128,-1,3
 44 47 44 47 44 92 c 2,4,-1
 44 389 l 2,5,6
 44 394 44 394 46.5 399 c 128,-1,7
 49 404 49 404 57 404 c 2,8,-1
 63 404 l 2,9,10
 71 404 71 404 74 399 c 128,-1,11
 77 394 77 394 77 389 c 2,12,-1
 77 93 l 2,13,14
 77 36 77 36 124 36 c 2,15,-1
 185 36 l 2,16,17
 232 36 232 36 232 93 c 2,18,-1
 232 389 l 2,19,20
 232 404 232 404 245 404 c 2,21,-1
 253 404 l 2,22,23
 266 404 266 404 266 390 c 2,24,-1
 266 92 l 2,25,26
 266 47 266 47 244.5 23.5 c 128,-1,27
 223 0 223 0 185 0 c 2,0,-1
EndSplineSet
EndChar

StartChar: V
Encoding: 86 86 57
Width: 302
GlyphClass: 2
Flags: W
LayerCount: 2
Back
Fore
SplineSet
171 12 m 2,0,1
 169 7 169 7 166 3.5 c 128,-1,2
 163 0 163 0 158 0 c 2,3,-1
 144 0 l 2,4,5
 135 0 135 0 132 8 c 0,6,7
 132 10 132 10 131.5 10.5 c 128,-1,8
 131 11 131 11 131 12 c 2,9,-1
 24 388 l 2,10,11
 22 393 22 393 24.5 398.5 c 128,-1,12
 27 404 27 404 35 404 c 2,13,-1
 44 404 l 2,14,15
 50 404 50 404 52 400.5 c 128,-1,16
 54 397 54 397 56 392 c 2,17,-1
 151 66 l 1,18,-1
 244 390 l 1,19,-1
 247 396 l 1,20,-1
 247 398 l 1,21,-1
 248 399 l 1,22,-1
 250 401 l 2,23,24
 252 404 252 404 257 404 c 2,25,-1
 267 404 l 2,26,27
 275 404 275 404 277 398.5 c 128,-1,28
 279 393 279 393 277 388 c 2,29,-1
 171 12 l 2,0,1
EndSplineSet
EndChar

StartChar: W
Encoding: 87 87 58
Width: 486
GlyphClass: 2
Flags: W
LayerCount: 2
Back
Fore
SplineSet
378 13 m 2,0,1
 375 0 375 0 363 0 c 2,2,-1
 348 0 l 2,3,4
 336 0 336 0 332 12 c 2,5,-1
 245 337 l 1,6,-1
 158 12 l 2,7,8
 156 7 156 7 152.5 3.5 c 128,-1,9
 149 0 149 0 143 0 c 2,10,-1
 128 0 l 2,11,12
 120 0 120 0 116.5 2.5 c 128,-1,13
 113 5 113 5 111 13 c 2,14,-1
 27 386 l 2,15,16
 25 395 25 395 30 399.5 c 128,-1,17
 35 404 35 404 42 404 c 2,18,-1
 49 404 l 2,19,20
 60 404 60 404 65 390 c 2,21,-1
 136 67 l 1,22,-1
 223 392 l 2,23,24
 226 397 226 397 229.5 400.5 c 128,-1,25
 233 404 233 404 239 404 c 2,26,-1
 250 404 l 2,27,28
 256 404 256 404 259.5 400.5 c 128,-1,29
 263 397 263 397 265 392 c 2,30,-1
 353 66 l 1,31,-1
 425 391 l 2,32,33
 427 396 427 396 430 400 c 128,-1,34
 433 404 433 404 441 404 c 2,35,-1
 449 404 l 2,36,37
 460 404 460 404 461.5 398.5 c 128,-1,38
 463 393 463 393 461 388 c 2,39,-1
 378 13 l 2,0,1
EndSplineSet
EndChar

StartChar: X
Encoding: 88 88 59
Width: 297
GlyphClass: 2
Flags: W
LayerCount: 2
Back
Fore
SplineSet
262 0 m 2,0,-1
 253 0 l 2,1,2
 251 0 251 0 247 1.5 c 128,-1,3
 243 3 243 3 238 8 c 2,4,-1
 149 182 l 1,5,-1
 60 8 l 2,6,7
 55 3 55 3 51 1.5 c 128,-1,8
 47 0 47 0 45 0 c 2,9,-1
 36 0 l 2,10,11
 28 0 28 0 25 6.5 c 128,-1,12
 22 13 22 13 27 21 c 2,13,-1
 128 213 l 1,14,-1
 33 383 l 2,15,16
 29 392 29 392 30.5 398 c 128,-1,17
 32 404 32 404 43 404 c 2,18,-1
 51 404 l 2,19,20
 61 404 61 404 67 393 c 2,21,-1
 149 245 l 1,22,-1
 232 393 l 2,23,24
 236 399 236 399 238 401 c 0,25,26
 241 404 241 404 246 404 c 2,27,-1
 255 404 l 2,28,29
 265 404 265 404 267 398 c 128,-1,30
 269 392 269 392 264 383 c 2,31,-1
 170 213 l 1,32,-1
 273 19 l 1,33,-1
 273 14 l 2,34,35
 273 0 273 0 262 0 c 2,0,-1
EndSplineSet
EndChar

StartChar: Y
Encoding: 89 89 60
Width: 296
GlyphClass: 2
Flags: W
LayerCount: 2
Back
Fore
SplineSet
165 155 m 1,0,-1
 165 14 l 2,1,2
 165 0 165 0 151 0 c 2,3,-1
 144 0 l 2,4,5
 137 0 137 0 134.5 4.5 c 128,-1,6
 132 9 132 9 132 14 c 2,7,-1
 132 155 l 1,8,-1
 24 384 l 2,9,10
 21 390 21 390 22.5 397 c 128,-1,11
 24 404 24 404 34 404 c 2,12,-1
 44 404 l 2,13,14
 51 404 51 404 56 397 c 2,15,-1
 59 393 l 1,16,-1
 148 198 l 1,17,-1
 238 394 l 2,18,19
 240 398 240 398 243 400 c 0,20,21
 245 402 245 402 246.5 403 c 128,-1,22
 248 404 248 404 253 404 c 2,23,-1
 261 404 l 2,24,25
 271 404 271 404 272.5 398 c 128,-1,26
 274 392 274 392 272 385 c 2,27,-1
 165 155 l 1,0,-1
EndSplineSet
EndChar

StartChar: Z
Encoding: 90 90 61
Width: 279
GlyphClass: 2
Flags: W
LayerCount: 2
Back
Fore
SplineSet
239 0 m 2,0,-1
 36 0 l 2,1,2
 32 0 32 0 28 3.5 c 128,-1,3
 24 7 24 7 24 14 c 2,4,-1
 24 25 l 2,5,6
 24 27 24 27 24 29.5 c 128,-1,7
 24 32 24 32 26 35 c 2,8,-1
 206 368 l 1,9,-1
 42 368 l 2,10,11
 37 368 37 368 33 371 c 128,-1,12
 29 374 29 374 29 382 c 2,13,-1
 29 390 l 2,14,15
 29 404 29 404 42 404 c 2,16,-1
 233 404 l 2,17,18
 247 404 247 404 247 390 c 2,19,-1
 247 379 l 2,20,21
 247 378 247 378 246.5 377 c 128,-1,22
 246 376 246 376 246 374 c 2,23,-1
 245 368 l 1,24,-1
 64 36 l 1,25,-1
 239 36 l 2,26,27
 244 36 244 36 248.5 32.5 c 128,-1,28
 253 29 253 29 253 22 c 2,29,-1
 253 14 l 2,30,31
 253 5 253 5 248.5 2.5 c 128,-1,32
 244 0 244 0 239 0 c 2,0,-1
EndSplineSet
EndChar

StartChar: bracketleft
Encoding: 91 91 62
Width: 153
GlyphClass: 2
Flags: W
LayerCount: 2
Back
Fore
SplineSet
108 -66 m 0,0,1
 105 -69 105 -69 102 -69 c 2,2,-1
 49 -69 l 2,3,4
 40 -69 40 -69 40 -55 c 2,5,-1
 40 419 l 2,6,7
 40 435 40 435 49 435 c 2,8,-1
 102 435 l 2,9,10
 106 435 106 435 109 431 c 0,11,12
 112 428 112 428 112 420 c 2,13,-1
 112 414 l 2,14,15
 112 407 112 407 108 403 c 0,16,17
 105 399 105 399 102 399 c 2,18,-1
 63 399 l 1,19,-1
 63 -34 l 1,20,-1
 102 -34 l 2,21,22
 106 -34 106 -34 108 -36 c 2,23,-1
 109 -37 l 2,24,25
 112 -45 112 -45 112 -49 c 2,26,-1
 112 -56 l 2,27,28
 112 -60 112 -60 108 -66 c 0,0,1
EndSplineSet
EndChar

StartChar: backslash
Encoding: 92 92 63
Width: 220
GlyphClass: 2
Flags: W
LayerCount: 2
Back
Fore
SplineSet
186 -22 m 0,0,1
 184 -28 184 -28 176 -28 c 2,2,-1
 171 -28 l 2,3,4
 168 -28 168 -28 166.5 -27 c 128,-1,5
 165 -26 165 -26 163 -25 c 2,6,-1
 160 -21 l 2,7,8
 158 -19 158 -19 157 -17 c 2,9,-1
 31 421 l 2,10,11
 29 425 29 425 31 436 c 0,12,13
 32 438 32 438 33.5 439.5 c 128,-1,14
 35 441 35 441 40 441 c 2,15,-1
 48 441 l 2,16,17
 56 441 56 441 60 430 c 2,18,-1
 187 -9 l 2,19,20
 189 -17 189 -17 186 -22 c 0,0,1
EndSplineSet
EndChar

StartChar: bracketright
Encoding: 93 93 64
Width: 154
GlyphClass: 2
Flags: W
LayerCount: 2
Back
Fore
SplineSet
106 -66 m 0,0,1
 105 -68 105 -68 104.5 -68.5 c 128,-1,2
 104 -69 104 -69 101 -69 c 2,3,-1
 48 -69 l 2,4,5
 44 -69 44 -69 41 -66 c 256,6,7
 38 -63 38 -63 38 -56 c 2,8,-1
 38 -49 l 2,9,10
 38 -41 38 -41 40 -38 c 0,11,12
 46 -34 46 -34 48 -34 c 2,13,-1
 86 -34 l 1,14,-1
 86 399 l 1,15,-1
 48 399 l 2,16,17
 45 399 45 399 41 403 c 0,18,19
 38 406 38 406 38 414 c 2,20,-1
 38 420 l 2,21,22
 38 428 38 428 41 431 c 0,23,24
 44 435 44 435 48 435 c 2,25,-1
 101 435 l 2,26,27
 106 435 106 435 107 431 c 0,28,29
 110 422 110 422 110 419 c 2,30,-1
 110 -55 l 2,31,32
 110 -59 110 -59 106 -66 c 0,0,1
EndSplineSet
EndChar

StartChar: asciicircum
Encoding: 94 94 65
Width: 290
GlyphClass: 2
Flags: W
LayerCount: 2
Back
Fore
SplineSet
229 222 m 2,0,-1
 223 222 l 2,1,2
 220 222 220 222 218 224 c 0,3,4
 213 229 213 229 210 230 c 2,5,-1
 138 386 l 1,6,-1
 67 229 l 2,7,8
 60 222 60 222 53 222 c 2,9,-1
 49 222 l 2,10,11
 41 222 41 222 38 227 c 0,12,13
 35 233 35 233 38 240 c 2,14,-1
 115 409 l 2,15,16
 118 413 118 413 120 415.5 c 128,-1,17
 122 418 122 418 124 420 c 0,18,19
 126 420 126 420 127.5 420.5 c 128,-1,20
 129 421 129 421 132 421 c 2,21,-1
 144 421 l 2,22,23
 147 421 147 421 155 418 c 0,24,25
 159 416 159 416 161 411 c 2,26,-1
 239 240 l 2,27,28
 243 232 243 232 240 229 c 0,29,30
 237 222 237 222 229 222 c 2,0,-1
EndSplineSet
EndChar

StartChar: underscore
Encoding: 95 95 66
Width: 225
GlyphClass: 2
Flags: W
LayerCount: 2
Back
Fore
SplineSet
27 -61 m 1,0,-1
 27 -34 l 1,1,-1
 30 -31 l 2,2,3
 32 -29 32 -29 33.5 -29 c 128,-1,4
 35 -29 35 -29 39 -29 c 2,5,-1
 187 -29 l 2,6,7
 194 -29 194 -29 196 -32 c 2,8,-1
 200 -34 l 1,9,-1
 200 -63 l 1,10,-1
 200 -61 l 2,11,12
 198 -63 198 -63 195 -65 c 0,13,14
 194 -68 194 -68 192 -68 c 128,-1,15
 190 -68 190 -68 187 -68 c 2,16,-1
 39 -68 l 2,17,18
 36 -68 36 -68 34 -68 c 128,-1,19
 32 -68 32 -68 31 -65 c 2,20,-1
 27 -61 l 1,0,-1
EndSplineSet
EndChar

StartChar: grave
Encoding: 96 96 67
Width: 139
GlyphClass: 2
Flags: W
LayerCount: 2
Back
Fore
SplineSet
91 348 m 2,0,-1
 88 348 l 2,1,2
 83 348 83 348 79 355 c 2,3,-1
 45 409 l 2,4,5
 40 417 40 417 43 422 c 128,-1,6
 46 427 46 427 50 427 c 2,7,-1
 60 427 l 2,8,9
 67 427 67 427 70 420 c 2,10,-1
 97 364 l 2,11,12
 101 356 101 356 98.5 352 c 128,-1,13
 96 348 96 348 91 348 c 2,0,-1
EndSplineSet
EndChar

StartChar: a
Encoding: 97 97 68
Width: 255
GlyphClass: 2
Flags: W
LayerCount: 2
Back
Fore
SplineSet
204 0 m 2,0,-1
 198 0 l 2,1,2
 191 0 191 0 185 13 c 1,3,4
 158 0 158 0 140 0 c 2,5,-1
 104 0 l 2,6,7
 70 0 70 0 51 22 c 128,-1,8
 32 44 32 44 32 82 c 2,9,-1
 32 212 l 2,10,11
 32 250 32 250 51 272 c 128,-1,12
 70 294 70 294 104 294 c 2,13,-1
 204 294 l 2,14,15
 216 294 216 294 216 282 c 2,16,-1
 216 13 l 2,17,18
 216 0 216 0 204 0 c 2,0,-1
189 234 m 2,19,20
 189 238 189 238 187 246 c 0,21,22
 185 253 185 253 180 257 c 128,-1,23
 175 261 175 261 164 263 c 2,24,-1
 104 263 l 2,25,26
 60 263 60 263 60 212 c 2,27,-1
 60 83 l 2,28,29
 60 31 60 31 104 31 c 2,30,-1
 139 31 l 2,31,32
 188 31 188 31 188 80 c 0,33,34
 188 148 188 148 188.5 179 c 128,-1,35
 189 210 189 210 189 221 c 2,36,-1
 189 234 l 2,19,20
EndSplineSet
EndChar

StartChar: b
Encoding: 98 98 69
Width: 262
GlyphClass: 2
Flags: W
LayerCount: 2
Back
Fore
SplineSet
149 0 m 2,0,-1
 48 0 l 2,1,2
 43 0 43 0 40.5 4 c 128,-1,3
 38 8 38 8 38 13 c 2,4,-1
 38 392 l 2,5,6
 38 405 38 405 48 405 c 2,7,-1
 55 405 l 2,8,9
 66 405 66 405 66 392 c 2,10,-1
 66 289 l 1,11,12
 83 299 83 299 92.5 302 c 128,-1,13
 102 305 102 305 113 305 c 2,14,-1
 149 305 l 2,15,16
 182 305 182 305 202 282 c 128,-1,17
 222 259 222 259 222 220 c 2,18,-1
 222 84 l 2,19,20
 222 43 222 43 202 21.5 c 128,-1,21
 182 0 182 0 149 0 c 2,0,-1
193 219 m 2,22,23
 193 272 193 272 149 272 c 2,24,-1
 113 272 l 2,25,26
 66 272 66 272 66 222 c 2,27,-1
 66 33 l 1,28,-1
 149 33 l 2,29,30
 193 33 193 33 193 85 c 2,31,-1
 193 219 l 2,22,23
EndSplineSet
EndChar

StartChar: c
Encoding: 99 99 70
Width: 208
GlyphClass: 2
Flags: W
LayerCount: 2
Back
Fore
SplineSet
168 0 m 2,0,-1
 102 0 l 2,1,2
 70 0 70 0 51 22 c 128,-1,3
 32 44 32 44 32 82 c 2,4,-1
 32 212 l 2,5,6
 32 250 32 250 51 272 c 128,-1,7
 70 294 70 294 102 294 c 2,8,-1
 168 294 l 2,9,10
 179 294 179 294 179 282 c 2,11,-1
 179 275 l 2,12,13
 179 269 179 269 175.5 266 c 128,-1,14
 172 263 172 263 168 263 c 2,15,-1
 102 263 l 2,16,17
 60 263 60 263 60 212 c 2,18,-1
 60 83 l 2,19,20
 60 31 60 31 102 31 c 2,21,-1
 168 31 l 2,22,23
 179 31 179 31 179 19 c 2,24,-1
 179 12 l 2,25,26
 179 5 179 5 175.5 2.5 c 128,-1,27
 172 0 172 0 168 0 c 2,0,-1
EndSplineSet
EndChar

StartChar: d
Encoding: 100 100 71
Width: 261
GlyphClass: 2
Flags: W
LayerCount: 2
Back
Fore
SplineSet
204 0 m 2,0,-1
 198 0 l 2,1,2
 193 0 193 0 191 2 c 128,-1,3
 189 4 189 4 185 14 c 1,4,5
 171 6 171 6 161 3 c 128,-1,6
 151 0 151 0 140 0 c 2,7,-1
 104 0 l 2,8,9
 70 0 70 0 51 21 c 128,-1,10
 32 42 32 42 32 84 c 2,11,-1
 32 215 l 2,12,13
 32 256 32 256 51 277.5 c 128,-1,14
 70 299 70 299 104 299 c 2,15,-1
 140 299 l 2,16,17
 151 299 151 299 161 296 c 128,-1,18
 171 293 171 293 188 283 c 1,19,-1
 188 392 l 2,20,21
 188 405 188 405 198 405 c 2,22,-1
 204 405 l 2,23,24
 216 405 216 405 216 392 c 2,25,-1
 216 13 l 2,26,27
 216 0 216 0 204 0 c 2,0,-1
188 217 m 2,28,29
 188 267 188 267 139 267 c 2,30,-1
 104 267 l 2,31,32
 60 267 60 267 60 215 c 2,33,-1
 60 85 l 2,34,35
 60 33 60 33 104 33 c 2,36,-1
 139 33 l 2,37,38
 188 33 188 33 188 81 c 2,39,-1
 188 217 l 2,28,29
EndSplineSet
EndChar

StartChar: e
Encoding: 101 101 72
Width: 256
GlyphClass: 2
Flags: W
LayerCount: 2
Back
Fore
SplineSet
209 129 m 2,0,-1
 60 129 l 1,1,-1
 60 83 l 2,2,3
 60 31 60 31 104 31 c 2,4,-1
 205 31 l 2,5,6
 217 31 217 31 217 19 c 2,7,-1
 217 12 l 2,8,9
 217 6 217 6 213 3 c 128,-1,10
 209 0 209 0 205 0 c 2,11,-1
 104 0 l 2,12,13
 70 0 70 0 51 22 c 128,-1,14
 32 44 32 44 32 82 c 2,15,-1
 32 212 l 2,16,17
 32 250 32 250 51 272 c 128,-1,18
 70 294 70 294 104 294 c 2,19,-1
 147 294 l 2,20,21
 182 294 182 294 201 272 c 128,-1,22
 220 250 220 250 220 212 c 2,23,-1
 220 143 l 2,24,25
 220 129 220 129 209 129 c 2,0,-1
192 212 m 2,26,27
 192 263 192 263 147 263 c 2,28,-1
 104 263 l 2,29,30
 60 263 60 263 60 212 c 2,31,-1
 60 160 l 1,32,-1
 192 160 l 1,33,-1
 192 212 l 2,26,27
EndSplineSet
EndChar

StartChar: f
Encoding: 102 102 73
Width: 172
GlyphClass: 2
Flags: W
LayerCount: 2
Back
Fore
SplineSet
132 267 m 2,0,-1
 93 267 l 1,1,-1
 93 13 l 2,2,3
 93 8 93 8 90 4 c 128,-1,4
 87 0 87 0 83 0 c 2,5,-1
 77 0 l 2,6,7
 68 0 68 0 68 13 c 2,8,-1
 68 267 l 1,9,-1
 38 267 l 2,10,11
 28 267 28 267 28 279 c 2,12,-1
 28 286 l 2,13,14
 28 299 28 299 38 299 c 2,15,-1
 68 299 l 1,16,-1
 68 323 l 2,17,18
 68 366 68 366 82.5 385.5 c 128,-1,19
 97 405 97 405 125 405 c 2,20,-1
 132 405 l 2,21,22
 136 405 136 405 139.5 402.5 c 128,-1,23
 143 400 143 400 143 393 c 2,24,-1
 143 387 l 2,25,26
 143 378 143 378 140 375 c 128,-1,27
 137 372 137 372 132 372 c 2,28,-1
 125 372 l 2,29,30
 108 372 108 372 100.5 360.5 c 128,-1,31
 93 349 93 349 93 322 c 2,32,-1
 93 299 l 1,33,-1
 132 299 l 2,34,35
 143 299 143 299 143 286 c 2,36,-1
 143 279 l 2,37,38
 143 274 143 274 139.5 270.5 c 128,-1,39
 136 267 136 267 132 267 c 2,0,-1
EndSplineSet
EndChar

StartChar: g
Encoding: 103 103 74
Width: 257
GlyphClass: 2
Flags: W
LayerCount: 2
Back
Fore
SplineSet
146 -77 m 2,0,-1
 58 -77 l 2,1,2
 54 -77 54 -77 50.5 -74 c 128,-1,3
 47 -71 47 -71 47 -64 c 2,4,-1
 47 -57 l 2,5,6
 47 -45 47 -45 58 -45 c 2,7,-1
 146 -45 l 2,8,9
 190 -45 190 -45 190 8 c 2,10,-1
 190 26 l 1,11,12
 174 18 174 18 163 15.5 c 128,-1,13
 152 13 152 13 143 13 c 2,14,-1
 107 13 l 2,15,16
 74 13 74 13 54.5 34 c 128,-1,17
 35 55 35 55 35 97 c 2,18,-1
 35 210 l 2,19,20
 35 252 35 252 54.5 273 c 128,-1,21
 74 294 74 294 107 294 c 2,22,-1
 208 294 l 2,23,24
 213 294 213 294 216 290.5 c 128,-1,25
 219 287 219 287 219 282 c 2,26,-1
 219 7 l 2,27,28
 219 -35 219 -35 199 -56 c 128,-1,29
 179 -77 179 -77 146 -77 c 2,0,-1
105 261 m 2,30,31
 82 261 82 261 73 248.5 c 128,-1,32
 64 236 64 236 64 210 c 2,33,-1
 64 97 l 2,34,35
 64 45 64 45 107 45 c 2,36,-1
 143 45 l 2,37,38
 189 45 189 45 189 95 c 2,39,-1
 192 262 l 1,40,-1
 105 261 l 2,30,31
EndSplineSet
EndChar

StartChar: h
Encoding: 104 104 75
Width: 261
GlyphClass: 2
Flags: W
LayerCount: 2
Back
Fore
SplineSet
210 0 m 2,0,-1
 203 0 l 2,1,2
 193 0 193 0 193 13 c 2,3,-1
 193 215 l 2,4,5
 193 267 193 267 149 267 c 2,6,-1
 113 267 l 2,7,8
 66 267 66 267 66 217 c 2,9,-1
 66 13 l 2,10,11
 66 0 66 0 55 0 c 2,12,-1
 48 0 l 2,13,14
 43 0 43 0 40.5 4 c 128,-1,15
 38 8 38 8 38 13 c 2,16,-1
 38 392 l 2,17,18
 38 405 38 405 48 405 c 2,19,-1
 55 405 l 2,20,21
 66 405 66 405 66 392 c 2,22,-1
 66 286 l 1,23,24
 81 294 81 294 92.5 296.5 c 128,-1,25
 104 299 104 299 113 299 c 2,26,-1
 149 299 l 2,27,28
 182 299 182 299 202 277.5 c 128,-1,29
 222 256 222 256 222 215 c 2,30,-1
 222 13 l 2,31,32
 222 0 222 0 210 0 c 2,0,-1
EndSplineSet
EndChar

StartChar: i
Encoding: 105 105 76
Width: 106
GlyphClass: 2
Flags: W
LayerCount: 2
Back
Fore
SplineSet
64 332 m 2,0,-1
 36 332 l 2,1,2
 34 332 34 332 35.5 337 c 128,-1,3
 37 342 37 342 37 346 c 2,4,-1
 37 391 l 2,5,6
 37 396 37 396 35.5 400 c 128,-1,7
 34 404 34 404 36 404 c 2,8,-1
 64 404 l 2,9,10
 66 404 66 404 65.5 400 c 128,-1,11
 65 396 65 396 65 391 c 2,12,-1
 65 346 l 2,13,14
 65 342 65 342 65.5 337 c 128,-1,15
 66 332 66 332 64 332 c 2,0,-1
64 0 m 2,16,-1
 36 0 l 2,17,18
 34 0 34 0 35.5 4.5 c 128,-1,19
 37 9 37 9 37 13 c 2,20,-1
 37 286 l 2,21,22
 37 291 37 291 35.5 295 c 128,-1,23
 34 299 34 299 36 299 c 2,24,-1
 64 299 l 2,25,26
 66 299 66 299 65.5 295 c 128,-1,27
 65 291 65 291 65 286 c 2,28,-1
 65 13 l 2,29,30
 65 9 65 9 65.5 4.5 c 128,-1,31
 66 0 66 0 64 0 c 2,16,-1
EndSplineSet
EndChar

StartChar: j
Encoding: 106 106 77
Width: 101
GlyphClass: 2
Flags: W
LayerCount: 2
Back
Fore
SplineSet
56 335 m 2,0,-1
 45 335 l 2,1,2
 37 335 37 335 37 347 c 2,3,-1
 37 391 l 2,4,5
 37 404 37 404 45 404 c 2,6,-1
 56 404 l 2,7,8
 59 404 59 404 62 400 c 128,-1,9
 65 396 65 396 65 391 c 2,10,-1
 65 347 l 2,11,12
 65 342 65 342 62 338.5 c 128,-1,13
 59 335 59 335 56 335 c 2,0,-1
-1 -77 m 2,14,-1
 -9 -77 l 2,15,16
 -12 -77 -12 -77 -15 -74.5 c 128,-1,17
 -18 -72 -18 -72 -18 -64 c 2,18,-1
 -18 -58 l 2,19,20
 -18 -52 -18 -52 -15 -48 c 128,-1,21
 -12 -44 -12 -44 -9 -44 c 2,22,-1
 -1 -44 l 2,23,24
 19 -44 19 -44 28 -30 c 128,-1,25
 37 -16 37 -16 37 8 c 2,26,-1
 37 284 l 2,27,28
 37 298 37 298 45 298 c 2,29,-1
 56 298 l 2,30,31
 59 298 59 298 62 294 c 128,-1,32
 65 290 65 290 65 284 c 2,33,-1
 65 7 l 2,34,35
 65 -32 65 -32 48.5 -54.5 c 128,-1,36
 32 -77 32 -77 -1 -77 c 2,14,-1
EndSplineSet
EndChar

StartChar: k
Encoding: 107 107 78
Width: 230
GlyphClass: 2
Flags: W
LayerCount: 2
Back
Fore
SplineSet
200 0 m 2,0,-1
 192 0 l 2,1,2
 181 0 181 0 177 8 c 2,3,-1
 93 146 l 2,4,5
 87 154 87 154 93 163 c 2,6,-1
 168 291 l 2,7,8
 170 295 170 295 175.5 297 c 128,-1,9
 181 299 181 299 183 299 c 2,10,-1
 189 299 l 2,11,12
 196 299 196 299 198 293 c 128,-1,13
 200 287 200 287 197 282 c 2,14,-1
 123 154 l 1,15,-1
 208 17 l 2,16,17
 213 10 213 10 210.5 5 c 128,-1,18
 208 0 208 0 200 0 c 2,0,-1
55 0 m 2,19,-1
 48 0 l 2,20,21
 43 0 43 0 40.5 4 c 128,-1,22
 38 8 38 8 38 13 c 2,23,-1
 38 392 l 2,24,25
 38 405 38 405 48 405 c 2,26,-1
 55 405 l 2,27,28
 66 405 66 405 66 392 c 2,29,-1
 66 13 l 2,30,31
 66 0 66 0 55 0 c 2,19,-1
EndSplineSet
EndChar

StartChar: l
Encoding: 108 108 79
Width: 113
GlyphClass: 2
Flags: W
LayerCount: 2
Back
Fore
SplineSet
55 0 m 2,0,-1
 48 0 l 2,1,2
 43 0 43 0 40.5 4 c 128,-1,3
 38 8 38 8 38 13 c 2,4,-1
 38 392 l 2,5,6
 38 405 38 405 48 405 c 2,7,-1
 55 405 l 2,8,9
 67 405 67 405 67 392 c 2,10,-1
 67 13 l 2,11,12
 67 0 67 0 55 0 c 2,0,-1
EndSplineSet
EndChar

StartChar: m
Encoding: 109 109 80
Width: 410
GlyphClass: 2
Flags: W
LayerCount: 2
Back
Fore
SplineSet
358 0 m 2,0,-1
 351 0 l 2,1,2
 345 0 345 0 342.5 4 c 128,-1,3
 340 8 340 8 340 13 c 2,4,-1
 340 212 l 2,5,6
 340 263 340 263 292 263 c 2,7,-1
 272 263 l 2,8,9
 247 263 247 263 233 249.5 c 128,-1,10
 219 236 219 236 219 212 c 2,11,-1
 219 13 l 2,12,13
 219 8 219 8 216 4 c 128,-1,14
 213 0 213 0 208 0 c 2,15,-1
 200 0 l 2,16,17
 189 0 189 0 189 13 c 2,18,-1
 189 212 l 2,19,20
 189 263 189 263 141 263 c 2,21,-1
 119 263 l 2,22,23
 69 263 69 263 69 214 c 2,24,-1
 69 13 l 2,25,26
 69 0 69 0 56 0 c 2,27,-1
 49 0 l 2,28,29
 43 0 43 0 40.5 4 c 128,-1,30
 38 8 38 8 38 13 c 2,31,-1
 38 282 l 2,32,33
 38 287 38 287 40.5 290.5 c 128,-1,34
 43 294 43 294 49 294 c 2,35,-1
 56 294 l 2,36,37
 60 294 60 294 63.5 292 c 128,-1,38
 67 290 67 290 72 282 c 1,39,40
 85 289 85 289 96 291.5 c 128,-1,41
 107 294 107 294 118 294 c 2,42,-1
 141 294 l 2,43,44
 177 294 177 294 205 265 c 1,45,46
 222 282 222 282 238.5 288 c 128,-1,47
 255 294 255 294 272 294 c 2,48,-1
 292 294 l 2,49,50
 328 294 328 294 349.5 272 c 128,-1,51
 371 250 371 250 371 212 c 2,52,-1
 371 13 l 2,53,54
 371 0 371 0 358 0 c 2,0,-1
EndSplineSet
EndChar

StartChar: n
Encoding: 110 110 81
Width: 259
GlyphClass: 2
Flags: W
LayerCount: 2
Back
Fore
SplineSet
210 0 m 2,0,-1
 203 0 l 2,1,2
 193 0 193 0 193 13 c 2,3,-1
 193 212 l 2,4,5
 193 263 193 263 149 263 c 2,6,-1
 113 263 l 2,7,8
 66 263 66 263 66 214 c 2,9,-1
 66 13 l 2,10,11
 66 0 66 0 55 0 c 2,12,-1
 48 0 l 2,13,14
 38 0 38 0 38 13 c 2,15,-1
 38 282 l 2,16,17
 38 287 38 287 40.5 290.5 c 128,-1,18
 43 294 43 294 48 294 c 2,19,-1
 55 294 l 2,20,21
 58 294 58 294 60.5 291.5 c 128,-1,22
 63 289 63 289 68 281 c 1,23,24
 91 294 91 294 113 294 c 2,25,-1
 149 294 l 2,26,27
 182 294 182 294 202 272 c 128,-1,28
 222 250 222 250 222 212 c 2,29,-1
 222 13 l 2,30,31
 222 0 222 0 210 0 c 2,0,-1
EndSplineSet
EndChar

StartChar: o
Encoding: 111 111 82
Width: 257
GlyphClass: 2
Flags: W
LayerCount: 2
Back
Fore
SplineSet
146 0 m 2,0,-1
 104 0 l 2,1,2
 70 0 70 0 51 22 c 128,-1,3
 32 44 32 44 32 82 c 2,4,-1
 32 212 l 2,5,6
 32 250 32 250 51 272 c 128,-1,7
 70 294 70 294 104 294 c 2,8,-1
 146 294 l 2,9,10
 179 294 179 294 199 272 c 128,-1,11
 219 250 219 250 219 212 c 2,12,-1
 219 82 l 2,13,14
 219 44 219 44 199 22 c 128,-1,15
 179 0 179 0 146 0 c 2,0,-1
190 212 m 2,16,17
 190 263 190 263 146 263 c 2,18,-1
 104 263 l 2,19,20
 60 263 60 263 60 212 c 2,21,-1
 60 83 l 2,22,23
 60 31 60 31 104 31 c 2,24,-1
 146 31 l 2,25,26
 190 31 190 31 190 83 c 2,27,-1
 190 212 l 2,16,17
EndSplineSet
EndChar

StartChar: p
Encoding: 112 112 83
Width: 267
GlyphClass: 2
Flags: W
LayerCount: 2
Back
Fore
SplineSet
156 -4 m 2,0,-1
 120 -4 l 2,1,2
 109 -4 109 -4 99.5 -1 c 128,-1,3
 90 2 90 2 73 12 c 1,4,-1
 73 -76 l 2,5,6
 73 -81 73 -81 70 -85 c 128,-1,7
 67 -89 67 -89 62 -89 c 2,8,-1
 55 -89 l 2,9,10
 50 -89 50 -89 47.5 -85 c 128,-1,11
 45 -81 45 -81 45 -76 c 2,12,-1
 45 282 l 2,13,14
 45 287 45 287 47.5 290.5 c 128,-1,15
 50 294 50 294 55 294 c 2,16,-1
 62 294 l 2,17,18
 65 294 65 294 67.5 291.5 c 128,-1,19
 70 289 70 289 75 281 c 1,20,21
 100 294 100 294 120 294 c 2,22,-1
 156 294 l 2,23,24
 189 294 189 294 209 273 c 128,-1,25
 229 252 229 252 229 211 c 2,26,-1
 229 79 l 2,27,28
 229 37 229 37 209 16.5 c 128,-1,29
 189 -4 189 -4 156 -4 c 2,0,-1
200 211 m 2,30,31
 200 262 200 262 156 262 c 2,32,-1
 120 262 l 2,33,34
 73 262 73 262 73 214 c 2,35,-1
 73 77 l 2,36,37
 73 29 73 29 120 29 c 2,38,-1
 156 29 l 2,39,40
 200 29 200 29 200 80 c 2,41,-1
 200 211 l 2,30,31
EndSplineSet
EndChar

StartChar: q
Encoding: 113 113 84
Width: 261
GlyphClass: 2
Flags: W
LayerCount: 2
Back
Fore
SplineSet
210 -89 m 2,0,-1
 203 -89 l 2,1,2
 194 -89 194 -89 194 -76 c 2,3,-1
 194 10 l 1,4,5
 184 5 184 5 178 2 c 128,-1,6
 172 -1 172 -1 167 -2.5 c 128,-1,7
 162 -4 162 -4 157 -4 c 128,-1,8
 152 -4 152 -4 144 -4 c 2,9,-1
 110 -4 l 2,10,11
 76 -4 76 -4 57 16.5 c 128,-1,12
 38 37 38 37 38 79 c 2,13,-1
 38 211 l 2,14,15
 38 252 38 252 57 273 c 128,-1,16
 76 294 76 294 110 294 c 2,17,-1
 210 294 l 2,18,19
 222 294 222 294 222 282 c 2,20,-1
 222 -76 l 2,21,22
 222 -81 222 -81 219 -85 c 128,-1,23
 216 -89 216 -89 210 -89 c 2,0,-1
194 246 m 1,24,25
 187 262 187 262 171 260 c 2,26,-1
 110 260 l 2,27,28
 66 260 66 260 66 211 c 2,29,-1
 66 80 l 2,30,31
 66 29 66 29 110 29 c 2,32,-1
 144 29 l 2,33,34
 194 29 194 29 194 80 c 2,35,-1
 194 246 l 1,24,25
EndSplineSet
EndChar

StartChar: r
Encoding: 114 114 85
Width: 150
GlyphClass: 2
Flags: W
LayerCount: 2
Back
Fore
SplineSet
113 263 m 2,0,-1
 95 263 l 2,1,2
 75 263 75 263 64 247.5 c 128,-1,3
 53 232 53 232 53 207 c 2,4,-1
 53 13 l 2,5,6
 53 0 53 0 43 0 c 2,7,-1
 37 0 l 2,8,9
 29 0 29 0 29 13 c 2,10,-1
 29 282 l 2,11,12
 29 294 29 294 37 294 c 2,13,-1
 43 294 l 2,14,15
 47 294 47 294 49 292 c 128,-1,16
 51 290 51 290 55 280 c 1,17,18
 68 287 68 287 76.5 290.5 c 128,-1,19
 85 294 85 294 96 294 c 2,20,-1
 113 294 l 2,21,22
 117 294 117 294 120 290.5 c 128,-1,23
 123 287 123 287 123 282 c 2,24,-1
 123 275 l 2,25,26
 123 263 123 263 113 263 c 2,0,-1
EndSplineSet
EndChar

StartChar: s
Encoding: 115 115 86
Width: 224
GlyphClass: 2
Flags: W
LayerCount: 2
Back
Fore
SplineSet
126 0 m 2,0,-1
 44 0 l 2,1,2
 34 0 34 0 34 12 c 2,3,-1
 34 19 l 2,4,5
 34 31 34 31 44 31 c 2,6,-1
 126 31 l 2,7,8
 149 31 149 31 159 41 c 128,-1,9
 169 51 169 51 169 68 c 2,10,-1
 169 83 l 2,11,12
 169 102 169 102 164 111.5 c 128,-1,13
 159 121 159 121 143 128 c 2,14,-1
 80 152 l 2,15,16
 51 163 51 163 41 179.5 c 128,-1,17
 31 196 31 196 31 225 c 0,18,19
 31 294 31 294 97 294 c 2,20,-1
 174 294 l 2,21,22
 179 294 179 294 182 290.5 c 128,-1,23
 185 287 185 287 185 282 c 2,24,-1
 185 275 l 2,25,26
 185 263 185 263 174 263 c 2,27,-1
 97 263 l 2,28,29
 75 263 75 263 67.5 253.5 c 128,-1,30
 60 244 60 244 60 233 c 2,31,-1
 60 218 l 2,32,33
 60 204 60 204 65.5 197 c 128,-1,34
 71 190 71 190 88 183 c 2,35,-1
 151 157 l 2,36,37
 177 146 177 146 186.5 125.5 c 128,-1,38
 196 105 196 105 196 71 c 0,39,40
 196 33 196 33 178.5 16.5 c 128,-1,41
 161 0 161 0 126 0 c 2,0,-1
EndSplineSet
EndChar

StartChar: t
Encoding: 116 116 87
Width: 185
GlyphClass: 2
Flags: W
LayerCount: 2
Back
Fore
SplineSet
150 0 m 2,0,-1
 133 0 l 2,1,2
 100 0 100 0 80 22 c 128,-1,3
 60 44 60 44 60 82 c 2,4,-1
 60 265 l 1,5,-1
 32 265 l 2,6,7
 22 265 22 265 22 277 c 2,8,-1
 22 284 l 2,9,10
 22 297 22 297 32 297 c 2,11,-1
 60 297 l 1,12,-1
 60 336 l 2,13,14
 60 341 60 341 63 345.5 c 128,-1,15
 66 350 66 350 71 350 c 2,16,-1
 78 350 l 2,17,18
 83 350 83 350 85.5 345.5 c 128,-1,19
 88 341 88 341 88 336 c 2,20,-1
 88 297 l 1,21,-1
 145 297 l 2,22,23
 156 297 156 297 156 284 c 2,24,-1
 156 277 l 2,25,26
 156 270 156 270 152.5 267.5 c 128,-1,27
 149 265 149 265 145 265 c 2,28,-1
 88 265 l 1,29,-1
 88 82 l 2,30,31
 88 32 88 32 133 32 c 2,32,-1
 150 32 l 2,33,34
 161 32 161 32 161 20 c 2,35,-1
 161 12 l 2,36,37
 161 5 161 5 157.5 2.5 c 128,-1,38
 154 0 154 0 150 0 c 2,0,-1
EndSplineSet
EndChar

StartChar: u
Encoding: 117 117 88
Width: 254
GlyphClass: 2
Flags: W
LayerCount: 2
Back
Fore
SplineSet
209 0 m 2,0,-1
 203 0 l 2,1,2
 196 0 196 0 190 13 c 1,3,4
 177 6 177 6 166.5 3 c 128,-1,5
 156 0 156 0 144 0 c 2,6,-1
 109 0 l 2,7,8
 76 0 76 0 56 22 c 128,-1,9
 36 44 36 44 36 82 c 2,10,-1
 36 282 l 2,11,12
 36 294 36 294 47 294 c 2,13,-1
 55 294 l 2,14,15
 60 294 60 294 63 290.5 c 128,-1,16
 66 287 66 287 66 282 c 2,17,-1
 66 83 l 2,18,19
 66 31 66 31 109 31 c 2,20,-1
 144 31 l 2,21,22
 192 31 192 31 192 80 c 2,23,-1
 192 282 l 2,24,25
 192 294 192 294 203 294 c 2,26,-1
 209 294 l 2,27,28
 214 294 214 294 217 290.5 c 128,-1,29
 220 287 220 287 220 282 c 2,30,-1
 220 13 l 2,31,32
 220 0 220 0 209 0 c 2,0,-1
EndSplineSet
EndChar

StartChar: v
Encoding: 118 118 89
Width: 241
GlyphClass: 2
Flags: W
LayerCount: 2
Back
Fore
SplineSet
136 10 m 2,0,1
 132 0 132 0 125 0 c 2,2,-1
 113 0 l 2,3,4
 108 0 108 0 105.5 3.5 c 128,-1,5
 103 7 103 7 102 9 c 2,6,-1
 24 278 l 2,7,8
 21 294 21 294 34 294 c 2,9,-1
 42 294 l 2,10,11
 47 294 47 294 49.5 291 c 128,-1,12
 52 288 52 288 53 286 c 2,13,-1
 119 49 l 1,14,15
 132 99 132 99 143.5 138 c 128,-1,16
 155 177 155 177 164 209 c 2,17,-1
 187 286 l 2,18,19
 187 287 187 287 189 290.5 c 128,-1,20
 191 294 191 294 196 294 c 2,21,-1
 204 294 l 2,22,23
 217 294 217 294 214 278 c 2,24,-1
 136 10 l 2,0,1
EndSplineSet
EndChar

StartChar: w
Encoding: 119 119 90
Width: 388
GlyphClass: 2
Flags: W
LayerCount: 2
Back
Fore
SplineSet
289 11 m 2,0,1
 285 0 285 0 276 0 c 2,2,-1
 264 0 l 2,3,4
 254 0 254 0 251 10 c 2,5,-1
 192 228 l 1,6,-1
 133 9 l 2,7,8
 128 0 128 0 120 0 c 2,9,-1
 109 0 l 2,10,11
 100 0 100 0 96 11 c 2,12,-1
 17 278 l 1,13,14
 17 294 17 294 28 294 c 2,15,-1
 36 294 l 2,16,17
 44 294 44 294 48 283 c 2,18,-1
 114 56 l 1,19,-1
 176 284 l 2,20,21
 179 294 179 294 189 294 c 2,22,-1
 197 294 l 2,23,24
 203 294 203 294 205 291.5 c 128,-1,25
 207 289 207 289 209 284 c 2,26,-1
 270 56 l 1,27,-1
 335 284 l 2,28,29
 337 288 337 288 340 291 c 128,-1,30
 343 294 343 294 348 294 c 2,31,-1
 357 294 l 2,32,33
 363 294 363 294 366 289 c 128,-1,34
 369 284 369 284 367 280 c 2,35,-1
 289 11 l 2,0,1
EndSplineSet
EndChar

StartChar: x
Encoding: 120 120 91
Width: 225
GlyphClass: 2
Flags: W
LayerCount: 2
Back
Fore
SplineSet
194 0 m 2,0,-1
 183 0 l 2,1,2
 178 0 178 0 173 9 c 2,3,-1
 112 125 l 1,4,-1
 51 8 l 2,5,6
 49 5 49 5 46 2.5 c 128,-1,7
 43 0 43 0 38 0 c 2,8,-1
 29 0 l 2,9,10
 21 0 21 0 19.5 2 c 128,-1,11
 18 4 18 4 20 12 c 0,12,13
 22 17 22 17 23 18 c 2,14,-1
 93 150 l 1,15,-1
 26 279 l 2,16,17
 23 281 23 281 24.5 287.5 c 128,-1,18
 26 294 26 294 34 294 c 2,19,-1
 44 294 l 2,20,21
 48 294 48 294 50.5 291 c 128,-1,22
 53 288 53 288 55 286 c 2,23,-1
 112 176 l 1,24,-1
 168 285 l 2,25,26
 170 290 170 290 172 292 c 128,-1,27
 174 294 174 294 180 294 c 2,28,-1
 189 294 l 2,29,30
 198 294 198 294 197.5 287 c 128,-1,31
 197 280 197 280 195 277 c 2,32,-1
 130 150 l 1,33,-1
 202 18 l 2,34,35
 204 15 204 15 204 7.5 c 128,-1,36
 204 0 204 0 194 0 c 2,0,-1
EndSplineSet
EndChar

StartChar: y
Encoding: 121 121 92
Width: 256
GlyphClass: 2
Flags: W
LayerCount: 2
Back
Fore
SplineSet
148 21 m 2,0,1
 140 -4 140 -4 134 -19.5 c 128,-1,2
 128 -35 128 -35 123 -43 c 0,3,4
 100 -85 100 -85 57 -85 c 2,5,-1
 44 -85 l 2,6,7
 31 -85 31 -85 31 -72 c 2,8,-1
 31 -66 l 2,9,10
 31 -53 31 -53 44 -53 c 2,11,-1
 57 -53 l 2,12,13
 83 -53 83 -53 95 -33 c 128,-1,14
 107 -13 107 -13 114 10 c 1,15,16
 93 70 93 70 69.5 140.5 c 128,-1,17
 46 211 46 211 23 279 c 0,18,19
 21 284 21 284 23.5 289 c 128,-1,20
 26 294 26 294 32 294 c 2,21,-1
 40 294 l 2,22,23
 47 294 47 294 50 288 c 0,24,25
 51 283 51 283 52 283 c 2,26,-1
 127 54 l 1,27,-1
 177 207 l 1,28,-1
 202 284 l 2,29,30
 206 294 206 294 215 294 c 2,31,-1
 222 294 l 2,32,33
 230 294 230 294 231 288 c 128,-1,34
 232 282 232 282 232 277 c 2,35,-1
 148 21 l 2,0,1
EndSplineSet
EndChar

StartChar: z
Encoding: 122 122 93
Width: 217
GlyphClass: 2
Flags: W
LayerCount: 2
Back
Fore
SplineSet
183 0 m 2,0,-1
 36 0 l 2,1,2
 31 0 31 0 27.5 2.5 c 128,-1,3
 24 5 24 5 24 12 c 2,4,-1
 24 18 l 2,5,6
 24 22 24 22 27 26 c 2,7,-1
 154 263 l 1,8,-1
 38 263 l 2,9,10
 28 263 28 263 28 275 c 2,11,-1
 28 282 l 2,12,13
 28 287 28 287 30.5 290.5 c 128,-1,14
 33 294 33 294 38 294 c 2,15,-1
 180 294 l 2,16,17
 184 294 184 294 187.5 291.5 c 128,-1,18
 191 289 191 289 191 282 c 2,19,-1
 191 275 l 2,20,21
 191 272 191 272 189 268 c 2,22,-1
 61 31 l 1,23,-1
 183 31 l 2,24,25
 188 31 188 31 191 27.5 c 128,-1,26
 194 24 194 24 194 19 c 2,27,-1
 194 12 l 2,28,29
 194 0 194 0 183 0 c 2,0,-1
EndSplineSet
EndChar

StartChar: braceleft
Encoding: 123 123 94
Width: 165
GlyphClass: 2
Flags: W
LayerCount: 2
Back
Fore
SplineSet
126 -65 m 256,0,1
 122 -69 122 -69 119 -69 c 2,2,-1
 117 -69 l 2,3,4
 87 -69 87 -69 77 -46 c 0,5,6
 64 -19 64 -19 64 18 c 2,7,-1
 64 127 l 2,8,9
 64 150 64 150 58 158 c 0,10,11
 50 167 50 167 40 166 c 0,12,13
 35 167 35 167 33 170 c 0,14,15
 30 171 30 171 30 179 c 2,16,-1
 30 186 l 2,17,18
 30 195 30 195 32 197 c 0,19,20
 35 200 35 200 40 200 c 0,21,22
 50 200 50 200 57 207 c 256,23,24
 64 214 64 214 64 239 c 2,25,-1
 64 347 l 2,26,27
 64 354 64 354 64 363 c 128,-1,28
 64 372 64 372 66 383 c 0,29,30
 68 391 68 391 70.5 396.5 c 128,-1,31
 73 402 73 402 77 410 c 0,32,33
 79 413 79 413 83 418 c 128,-1,34
 87 423 87 423 93 429 c 0,35,36
 98 431 98 431 103.5 433 c 128,-1,37
 109 435 109 435 117 435 c 2,38,-1
 119 435 l 2,39,40
 123 435 123 435 125 433 c 2,41,-1
 126 432 l 2,42,43
 130 427 130 427 130 420 c 2,44,-1
 130 414 l 2,45,46
 130 407 130 407 126 403 c 0,47,48
 120 399 120 399 119 399 c 2,49,-1
 117 399 l 2,50,51
 103 399 103 399 97 389 c 0,52,53
 92 384 92 384 91 372.5 c 128,-1,54
 90 361 90 361 90 346 c 2,55,-1
 90 239 l 2,56,57
 90 234 90 234 89 226.5 c 128,-1,58
 88 219 88 219 87 209 c 0,59,60
 85 198 85 198 76 183 c 1,61,62
 81 175 81 175 83.5 168.5 c 128,-1,63
 86 162 86 162 87 157 c 0,64,65
 88 149 88 149 88 144 c 128,-1,66
 88 139 88 139 89 135 c 0,67,68
 89 129 89 129 90 127 c 2,69,-1
 90 18 l 2,70,71
 90 4 90 4 91 -6 c 128,-1,72
 92 -16 92 -16 97 -23 c 0,73,74
 100 -30 100 -30 105.5 -32 c 128,-1,75
 111 -34 111 -34 117 -34 c 2,76,-1
 119 -34 l 2,77,78
 123 -34 123 -34 126 -37 c 0,79,80
 130 -42 130 -42 130 -49 c 2,81,-1
 130 -56 l 2,82,83
 130 -61 130 -61 126 -65 c 256,0,1
EndSplineSet
EndChar

StartChar: bar
Encoding: 124 124 95
Width: 110
GlyphClass: 2
Flags: W
LayerCount: 2
Back
Fore
SplineSet
57 0 m 2,0,-1
 50 0 l 2,1,2
 44 0 44 0 42 4 c 0,3,4
 40 9 40 9 39.5 11 c 128,-1,5
 39 13 39 13 39 14 c 2,6,-1
 39 406 l 2,7,8
 39 408 39 408 39 410.5 c 128,-1,9
 39 413 39 413 41 417 c 0,10,11
 45 421 45 421 50 421 c 2,12,-1
 57 421 l 2,13,14
 63 421 63 421 66 418 c 128,-1,15
 69 415 69 415 69 406 c 2,16,-1
 69 14 l 2,17,18
 69 0 69 0 57 0 c 2,0,-1
EndSplineSet
EndChar

StartChar: braceright
Encoding: 125 125 96
Width: 165
GlyphClass: 2
Flags: W
LayerCount: 2
Back
Fore
SplineSet
124 170 m 0,0,1
 121 167 121 167 117 166 c 0,2,3
 107 167 107 167 99 158 c 0,4,5
 96 154 96 154 95 146 c 128,-1,6
 94 138 94 138 94 127 c 2,7,-1
 94 18 l 2,8,9
 94 -16 94 -16 80 -46 c 0,10,11
 70 -69 70 -69 40 -69 c 2,12,-1
 38 -69 l 2,13,14
 35 -69 35 -69 31 -65 c 0,15,16
 28 -62 28 -62 28 -56 c 2,17,-1
 28 -49 l 2,18,19
 28 -47 28 -47 28.5 -43.5 c 128,-1,20
 29 -40 29 -40 31 -37 c 0,21,22
 34 -34 34 -34 38 -34 c 2,23,-1
 40 -34 l 2,24,25
 54 -34 54 -34 61 -23 c 0,26,27
 68 -13 68 -13 68 18 c 2,28,-1
 68 128 l 2,29,30
 68 129 68 129 68 136 c 128,-1,31
 68 143 68 143 70 157 c 0,32,33
 71 162 71 162 73.5 168.5 c 128,-1,34
 76 175 76 175 83 183 c 1,35,36
 76 192 76 192 73.5 198 c 128,-1,37
 71 204 71 204 70 209 c 0,38,39
 69 219 69 219 68.5 226.5 c 128,-1,40
 68 234 68 234 68 239 c 2,41,-1
 68 346 l 2,42,43
 68 379 68 379 60 390 c 0,44,45
 51 399 51 399 40 399 c 2,46,-1
 38 399 l 2,47,48
 37 399 37 399 31 403 c 0,49,50
 28 406 28 406 28 414 c 2,51,-1
 28 420 l 2,52,53
 28 428 28 428 31 432 c 2,54,-1
 32 433 l 2,55,56
 34 435 34 435 38 435 c 2,57,-1
 40 435 l 2,58,59
 48 435 48 435 53.5 433 c 128,-1,60
 59 431 59 431 64 429 c 0,61,62
 71 423 71 423 74.5 418 c 128,-1,63
 78 413 78 413 80 410 c 0,64,65
 84 402 84 402 86.5 396.5 c 128,-1,66
 89 391 89 391 91 383 c 0,67,68
 94 360 94 360 94 347 c 2,69,-1
 94 239 l 2,70,71
 94 228 94 228 95 219.5 c 128,-1,72
 96 211 96 211 100 207 c 0,73,74
 107 200 107 200 117 200 c 0,75,76
 122 200 122 200 125 197 c 256,77,78
 128 194 128 194 128 186 c 2,79,-1
 128 179 l 2,80,81
 128 172 128 172 124 170 c 0,0,1
EndSplineSet
EndChar

StartChar: asciitilde
Encoding: 126 126 97
Width: 311
GlyphClass: 2
Flags: W
LayerCount: 2
Back
Fore
SplineSet
207 171 m 256,0,1
 186 171 186 171 152 177 c 0,2,3
 135 180 135 180 124.5 181 c 128,-1,4
 114 182 114 182 108 182 c 0,5,6
 106 182 106 182 102 181.5 c 128,-1,7
 98 181 98 181 93 180 c 0,8,9
 82 177 82 177 65 174 c 0,10,11
 61 174 61 174 56 175.5 c 128,-1,12
 51 177 51 177 51 183 c 2,13,-1
 51 198 l 2,14,15
 51 203 51 203 67 208.5 c 128,-1,16
 83 214 83 214 104 214 c 0,17,18
 114 214 114 214 128 213 c 128,-1,19
 142 212 142 212 159 209 c 0,20,21
 192 203 192 203 203 203 c 0,22,23
 205 203 205 203 209 203.5 c 128,-1,24
 213 204 213 204 219 205 c 2,25,-1
 246 211 l 2,26,27
 250 211 250 211 255 210.5 c 128,-1,28
 260 210 260 210 260 202 c 2,29,-1
 260 187 l 2,30,31
 260 180 260 180 244 175.5 c 128,-1,32
 228 171 228 171 207 171 c 256,0,1
EndSplineSet
EndChar

StartChar: cent
Encoding: 162 162 98
Width: 248
GlyphClass: 2
Flags: W
LayerCount: 2
Back
Fore
SplineSet
207 -2 m 2,0,-1
 169 -2 l 1,1,-1
 169 -40 l 2,2,3
 169 -45 169 -45 165.5 -49.5 c 128,-1,4
 162 -54 162 -54 158 -54 c 2,5,-1
 150 -54 l 2,6,7
 145 -54 145 -54 142 -49.5 c 128,-1,8
 139 -45 139 -45 139 -40 c 2,9,-1
 139 -2 l 1,10,-1
 126 -2 l 2,11,12
 91 -2 91 -2 71 21 c 128,-1,13
 51 44 51 44 51 86 c 2,14,-1
 51 223 l 2,15,16
 51 268 51 268 71 290.5 c 128,-1,17
 91 313 91 313 126 313 c 2,18,-1
 139 313 l 1,19,-1
 139 359 l 2,20,21
 139 373 139 373 150 373 c 2,22,-1
 158 373 l 2,23,24
 162 373 162 373 165.5 369.5 c 128,-1,25
 169 366 169 366 169 359 c 2,26,-1
 169 313 l 1,27,-1
 207 313 l 2,28,29
 220 313 220 313 220 298 c 2,30,-1
 220 291 l 2,31,32
 220 284 220 284 216 281 c 128,-1,33
 212 278 212 278 207 278 c 2,34,-1
 126 278 l 2,35,36
 81 278 81 278 81 223 c 2,37,-1
 81 87 l 2,38,39
 81 33 81 33 126 33 c 2,40,-1
 207 33 l 2,41,42
 220 33 220 33 220 17 c 2,43,-1
 220 11 l 2,44,45
 220 5 220 5 215.5 1.5 c 128,-1,46
 211 -2 211 -2 207 -2 c 2,0,-1
EndSplineSet
EndChar

StartChar: copyright
Encoding: 169 169 99
Width: 441
GlyphClass: 2
Flags: W
LayerCount: 2
Back
Fore
SplineSet
306 0 m 2,0,-1
 136 0 l 2,1,2
 98 0 98 0 76 23.5 c 128,-1,3
 54 47 54 47 54 89 c 2,4,-1
 54 302 l 2,5,6
 54 343 54 343 76 367 c 128,-1,7
 98 391 98 391 136 391 c 2,8,-1
 306 391 l 2,9,10
 342 391 342 391 365.5 367 c 128,-1,11
 389 343 389 343 389 302 c 2,12,-1
 389 89 l 2,13,14
 389 47 389 47 365.5 23.5 c 128,-1,15
 342 0 342 0 306 0 c 2,0,-1
355 301 m 2,16,17
 355 356 355 356 306 356 c 2,18,-1
 136 356 l 2,19,20
 88 356 88 356 88 301 c 2,21,-1
 88 90 l 2,22,23
 88 35 88 35 136 35 c 2,24,-1
 306 35 l 2,25,26
 355 35 355 35 355 90 c 2,27,-1
 355 301 l 2,16,17
282 87 m 0,28,29
 262 68 262 68 225 68 c 2,30,-1
 213 68 l 2,31,32
 176 68 176 68 156 87 c 0,33,34
 137 103 137 103 137 144 c 2,35,-1
 137 241 l 2,36,37
 137 283 137 283 156 300 c 256,38,39
 175 317 175 317 213 317 c 2,40,-1
 225 317 l 2,41,42
 263 317 263 317 282 300 c 0,43,44
 302 282 302 282 302 241 c 2,45,-1
 302 238 l 2,46,47
 302 223 302 223 288 223 c 2,48,-1
 281 223 l 2,49,50
 274 223 274 223 272 227 c 256,51,52
 270 231 270 231 269.5 233.5 c 128,-1,53
 269 236 269 236 269 238 c 2,54,-1
 269 241 l 2,55,56
 269 264 269 264 259 274 c 0,57,58
 250 284 250 284 225 284 c 2,59,-1
 213 284 l 2,60,61
 188 284 188 284 179 274 c 0,62,63
 174 269 174 269 172.5 260.5 c 128,-1,64
 171 252 171 252 171 241 c 2,65,-1
 171 145 l 2,66,67
 171 119 171 119 179.5 110 c 128,-1,68
 188 101 188 101 213 101 c 2,69,-1
 225 101 l 2,70,71
 250 101 250 101 259 112 c 0,72,73
 264 117 264 117 266.5 125 c 128,-1,74
 269 133 269 133 269 145 c 2,75,-1
 269 146 l 2,76,77
 269 148 269 148 269.5 150.5 c 128,-1,78
 270 153 270 153 272 157 c 0,79,80
 273 158 273 158 274.5 159 c 128,-1,81
 276 160 276 160 281 160 c 2,82,-1
 288 160 l 2,83,84
 302 160 302 160 302 146 c 2,85,-1
 302 144 l 2,86,87
 302 104 302 104 282 87 c 0,28,29
EndSplineSet
EndChar

StartChar: registered
Encoding: 174 174 100
Width: 447
GlyphClass: 2
Flags: W
LayerCount: 2
Back
Fore
SplineSet
306 0 m 2,0,-1
 136 0 l 2,1,2
 98 0 98 0 76 23.5 c 128,-1,3
 54 47 54 47 54 89 c 2,4,-1
 54 302 l 2,5,6
 54 343 54 343 76 367 c 128,-1,7
 98 391 98 391 136 391 c 2,8,-1
 306 391 l 2,9,10
 342 391 342 391 365.5 367 c 128,-1,11
 389 343 389 343 389 302 c 2,12,-1
 389 89 l 2,13,14
 389 47 389 47 365.5 23.5 c 128,-1,15
 342 0 342 0 306 0 c 2,0,-1
355 301 m 2,16,17
 355 356 355 356 306 356 c 2,18,-1
 136 356 l 2,19,20
 88 356 88 356 88 301 c 2,21,-1
 88 90 l 2,22,23
 88 35 88 35 136 35 c 2,24,-1
 306 35 l 2,25,26
 355 35 355 35 355 90 c 2,27,-1
 355 301 l 2,16,17
313 80 m 1,28,-1
 313 79 l 1,29,-1
 313 82 l 2,30,31
 310 76 310 76 304 76 c 2,32,-1
 290 76 l 2,33,34
 285 76 285 76 283 77 c 2,35,-1
 282 78 l 2,36,37
 281 79 281 79 280.5 79 c 128,-1,38
 280 79 280 79 279 80 c 2,39,-1
 278 82 l 1,40,-1
 220 168 l 1,41,-1
 166 168 l 1,42,-1
 166 85 l 2,43,44
 166 81 166 81 162 79 c 0,45,46
 159 76 159 76 154 76 c 2,47,-1
 145 76 l 2,48,49
 140 76 140 76 137 78 c 0,50,51
 135 80 135 80 135 85 c 2,52,-1
 135 303 l 2,53,54
 135 309 135 309 136 310 c 2,55,-1
 144 312 l 1,56,-1
 147 312 l 1,57,-1
 148 313 l 1,58,-1
 234 313 l 2,59,60
 274 313 274 313 286 296 c 0,61,62
 297 282 297 282 301.5 269 c 128,-1,63
 306 256 306 256 306 244 c 2,64,-1
 306 239 l 2,65,66
 306 214 306 214 293.5 197 c 128,-1,67
 281 180 281 180 253 169 c 1,68,-1
 311 86 l 2,69,70
 311 84 311 84 311.5 84 c 128,-1,71
 312 84 312 84 312 82 c 2,72,-1
 313 80 l 1,28,-1
275 243 m 2,73,74
 275 288 275 288 233 288 c 2,75,-1
 166 288 l 1,76,-1
 166 195 l 1,77,-1
 233 195 l 2,78,79
 275 195 275 195 275 239 c 2,80,-1
 275 243 l 2,73,74
EndSplineSet
EndChar

StartChar: onequarter
Encoding: 188 188 101
Width: 518
GlyphClass: 2
Flags: W
LayerCount: 2
Back
Fore
SplineSet
477 54 m 1,0,-1
 477 -8 l 1,1,-1
 453 -8 l 1,2,-1
 453 54 l 1,3,-1
 334 54 l 1,4,-1
 334 75 l 1,5,-1
 450 237 l 1,6,-1
 477 237 l 1,7,-1
 477 75 l 1,8,-1
 513 75 l 1,9,-1
 513 54 l 1,10,-1
 477 54 l 1,0,-1
143 -21 m 1,11,-1
 111 -21 l 1,12,-1
 391 442 l 1,13,-1
 422 442 l 1,14,-1
 143 -21 l 1,11,-1
113 184 m 1,15,-1
 113 385 l 1,16,17
 108 380 108 380 98.5 378 c 128,-1,18
 89 376 89 376 78.5 374.5 c 128,-1,19
 68 373 68 373 59.5 373 c 128,-1,20
 51 373 51 373 48 373 c 2,21,-1
 45 373 l 1,22,-1
 45 387 l 1,23,24
 76 387 76 387 92.5 396.5 c 128,-1,25
 109 406 109 406 115 436 c 1,26,-1
 138 436 l 1,27,-1
 138 184 l 1,28,-1
 113 184 l 1,15,-1
453 208 m 1,29,-1
 357 75 l 1,30,-1
 453 75 l 1,31,-1
 453 208 l 1,29,-1
EndSplineSet
EndChar

StartChar: onehalf
Encoding: 189 189 102
Width: 518
GlyphClass: 2
Flags: W
LayerCount: 2
Back
Fore
SplineSet
333 -8 m 1,0,-1
 333 -1 l 2,1,2
 333 27 333 27 348 48 c 128,-1,3
 363 69 363 69 399 90 c 2,4,-1
 424 104 l 2,5,6
 440 113 440 113 451 119 c 0,7,8
 456 123 456 123 460.5 125.5 c 128,-1,9
 465 128 465 128 468 131 c 0,10,11
 476 142 476 142 480.5 150 c 128,-1,12
 485 158 485 158 485 170 c 0,13,14
 485 224 485 224 427 224 c 0,15,16
 370 224 370 224 364 162 c 1,17,-1
 339 162 l 1,18,19
 343 207 343 207 364.5 225.5 c 128,-1,20
 386 244 386 244 428 244 c 0,21,22
 466 244 466 244 488 224 c 128,-1,23
 510 204 510 204 510 170 c 0,24,25
 510 143 510 143 488 119 c 0,26,27
 483 114 483 114 470 106 c 128,-1,28
 457 98 457 98 437 87 c 0,29,30
 428 82 428 82 415.5 75 c 128,-1,31
 403 68 403 68 391 60 c 0,32,33
 380 51 380 51 370 40 c 128,-1,34
 360 29 360 29 357 12 c 1,35,-1
 510 12 l 1,36,-1
 510 -8 l 1,37,-1
 333 -8 l 1,0,-1
143 -21 m 1,38,-1
 111 -21 l 1,39,-1
 391 442 l 1,40,-1
 422 442 l 1,41,-1
 143 -21 l 1,38,-1
113 184 m 1,42,-1
 113 385 l 1,43,44
 108 380 108 380 98.5 378 c 128,-1,45
 89 376 89 376 78.5 374.5 c 128,-1,46
 68 373 68 373 59.5 373 c 128,-1,47
 51 373 51 373 48 373 c 2,48,-1
 45 373 l 1,49,-1
 45 387 l 1,50,51
 76 387 76 387 92.5 396.5 c 128,-1,52
 109 406 109 406 115 436 c 1,53,-1
 138 436 l 1,54,-1
 138 184 l 1,55,-1
 113 184 l 1,42,-1
EndSplineSet
EndChar

StartChar: threequarters
Encoding: 190 190 103
Width: 518
GlyphClass: 2
Flags: W
LayerCount: 2
Back
Fore
SplineSet
477 54 m 1,0,-1
 477 -8 l 1,1,-1
 453 -8 l 1,2,-1
 453 54 l 1,3,-1
 334 54 l 1,4,-1
 334 75 l 1,5,-1
 449 237 l 1,6,-1
 477 237 l 1,7,-1
 477 75 l 1,8,-1
 513 75 l 1,9,-1
 513 54 l 1,10,-1
 477 54 l 1,0,-1
143 -21 m 1,11,-1
 111 -21 l 1,12,-1
 391 442 l 1,13,-1
 423 442 l 1,14,-1
 143 -21 l 1,11,-1
109 178 m 0,15,16
 66 178 66 178 44 199 c 128,-1,17
 22 220 22 220 22 257 c 1,18,-1
 48 257 l 1,19,20
 51 225 51 225 66.5 211 c 128,-1,21
 82 197 82 197 109 197 c 0,22,23
 172 197 172 197 172 253 c 0,24,25
 172 280 172 280 153.5 293 c 128,-1,26
 135 306 135 306 102 306 c 2,27,-1
 95 306 l 1,28,-1
 92 305 l 1,29,-1
 92 324 l 1,30,-1
 101 324 l 2,31,32
 131 324 131 324 148 335.5 c 128,-1,33
 165 347 165 347 165 372 c 0,34,35
 165 393 165 393 149.5 405 c 128,-1,36
 134 417 134 417 112 417 c 0,37,38
 87 417 87 417 72 405 c 128,-1,39
 57 393 57 393 55 361 c 1,40,-1
 30 361 l 1,41,42
 35 401 35 401 55.5 418.5 c 128,-1,43
 76 436 76 436 112 436 c 0,44,45
 149 436 149 436 169 418.5 c 128,-1,46
 189 401 189 401 189 372 c 0,47,48
 189 359 189 359 187 351 c 128,-1,49
 185 343 185 343 182 338 c 256,50,51
 179 333 179 333 174.5 329 c 128,-1,52
 170 325 170 325 165 320 c 1,53,54
 169 317 169 317 171.5 315 c 128,-1,55
 174 313 174 313 176 310 c 0,56,57
 199 288 199 288 199 253 c 0,58,59
 199 219 199 219 176 198.5 c 128,-1,60
 153 178 153 178 109 178 c 0,15,16
453 208 m 1,61,-1
 357 75 l 1,62,-1
 453 75 l 1,63,-1
 453 208 l 1,61,-1
EndSplineSet
EndChar

StartChar: multiply
Encoding: 215 215 104
Width: 356
GlyphClass: 2
Flags: W
LayerCount: 2
Back
Fore
SplineSet
316 53 m 2,0,-1
 308 45 l 2,1,2
 303 39 303 39 297 39 c 1,3,-1
 176 167 l 1,4,-1
 62 45 l 2,5,6
 59 42 59 42 54 41 c 2,7,-1
 53 41 l 2,8,9
 48 40 48 40 45 44 c 0,10,11
 43 46 43 46 38 52 c 128,-1,12
 33 58 33 58 34 61 c 0,13,14
 35 68 35 68 38 71 c 2,15,-1
 152 192 l 1,16,-1
 38 313 l 2,17,18
 35 316 35 316 34 323 c 2,19,-1
 34 325 l 1,20,-1
 35 328 l 1,21,-1
 38 332 l 1,22,-1
 46 340 l 2,23,24
 49 344 49 344 54 343 c 2,25,-1
 55 343 l 2,26,27
 60 343 60 343 63 339 c 2,28,-1
 177 218 l 1,29,-1
 290 338 l 2,30,31
 298 346 298 346 308 338 c 0,32,33
 310 336 310 336 312 334.5 c 128,-1,34
 314 333 314 333 316 331 c 0,35,36
 317 329 317 329 318.5 328 c 128,-1,37
 320 327 320 327 320 325 c 0,38,39
 320 322 320 322 320 322 c 2,40,41
 319 317 319 317 315 313 c 2,42,-1
 201 193 l 1,43,-1
 316 72 l 2,44,45
 319 69 319 69 320 61 c 0,46,47
 320 60 320 60 319.5 58.5 c 128,-1,48
 319 57 319 57 316 53 c 2,0,-1
EndSplineSet
EndChar

StartChar: divide
Encoding: 247 247 105
Width: 353
GlyphClass: 2
Flags: W
LayerCount: 2
Back
Fore
SplineSet
152 287 m 1,0,-1
 152 312 l 1,1,-1
 179 312 l 1,2,-1
 179 287 l 1,3,-1
 152 287 l 1,0,-1
8 163 m 1,4,-1
 8 192 l 1,5,-1
 314 192 l 1,6,-1
 314 163 l 1,7,-1
 8 163 l 1,4,-1
154 28 m 1,8,-1
 154 54 l 1,9,-1
 182 54 l 1,10,-1
 182 28 l 1,11,-1
 154 28 l 1,8,-1
EndSplineSet
EndChar

StartChar: uni0950
Encoding: 2384 2384 106
Width: 568
GlyphClass: 2
Flags: W
LayerCount: 2
Back
Fore
SplineSet
392 417 m 2,0,-1
 380 417 l 2,1,2
 373 417 373 417 371 420.5 c 128,-1,3
 369 424 369 424 369 429 c 2,4,-1
 369 447 l 2,5,6
 369 461 369 461 380 461 c 2,7,-1
 392 461 l 2,8,9
 405 461 405 461 405 447 c 2,10,-1
 405 429 l 2,11,12
 405 417 405 417 392 417 c 2,0,-1
405 341 m 2,13,-1
 366 341 l 2,14,15
 284 341 284 341 284 427 c 2,16,-1
 284 431 l 2,17,18
 284 444 284 444 296 444 c 2,19,-1
 305 444 l 2,20,21
 317 444 317 444 317 431 c 2,22,-1
 317 427 l 2,23,24
 317 397 317 397 325.5 385 c 128,-1,25
 334 373 334 373 366 373 c 2,26,-1
 405 373 l 2,27,28
 437 373 437 373 446 385 c 128,-1,29
 455 397 455 397 455 427 c 2,30,-1
 455 431 l 2,31,32
 455 438 455 438 458.5 441 c 128,-1,33
 462 444 462 444 467 444 c 2,34,-1
 476 444 l 2,35,36
 488 444 488 444 488 431 c 2,37,-1
 488 427 l 2,38,39
 488 341 488 341 405 341 c 2,13,-1
414 27 m 2,40,-1
 405 27 l 2,41,42
 320 27 320 27 320 113 c 2,43,-1
 320 172 l 1,44,-1
 251 172 l 1,45,-1
 251 124 l 2,46,47
 251 79 251 79 226.5 53 c 128,-1,48
 202 27 202 27 160 27 c 2,49,-1
 137 27 l 2,50,51
 95 27 95 27 70.5 51.5 c 128,-1,52
 46 76 46 76 46 124 c 2,53,-1
 46 149 l 2,54,55
 46 163 46 163 57 163 c 2,56,-1
 66 163 l 2,57,58
 79 163 79 163 79 149 c 2,59,-1
 79 125 l 2,60,61
 79 60 79 60 137 60 c 2,62,-1
 160 60 l 2,63,64
 219 60 219 60 219 125 c 2,65,-1
 219 154 l 2,66,67
 219 215 219 215 160 215 c 2,68,-1
 117 215 l 2,69,70
 106 215 106 215 106 229 c 2,71,-1
 106 237 l 2,72,73
 106 249 106 249 117 249 c 2,74,-1
 160 249 l 2,75,76
 219 249 219 249 219 310 c 2,77,-1
 219 328 l 2,78,79
 219 390 219 390 160 390 c 2,80,-1
 100 390 l 2,81,82
 88 390 88 390 88 402 c 2,83,-1
 88 409 l 2,84,85
 88 421 88 421 100 421 c 2,86,-1
 160 421 l 2,87,88
 203 421 203 421 227 397.5 c 128,-1,89
 251 374 251 374 251 328 c 2,90,-1
 251 309 l 2,91,92
 251 262 251 262 215 233 c 1,93,94
 225 224 225 224 230 219 c 128,-1,95
 235 214 235 214 241 204 c 1,96,-1
 321 204 l 2,97,98
 352 204 352 204 352 171 c 2,99,-1
 352 114 l 2,100,101
 352 82 352 82 363 71 c 128,-1,102
 374 60 374 60 405 60 c 2,103,-1
 414 60 l 2,104,105
 443 60 443 60 455 71 c 128,-1,106
 467 82 467 82 467 114 c 2,107,-1
 467 215 l 2,108,109
 467 247 467 247 454 261 c 128,-1,110
 441 275 441 275 415 275 c 2,111,-1
 341 275 l 2,112,113
 329 275 329 275 329 289 c 2,114,-1
 329 296 l 2,115,116
 329 308 329 308 341 308 c 2,117,-1
 414 308 l 2,118,119
 454 308 454 308 477 285.5 c 128,-1,120
 500 263 500 263 500 215 c 2,121,-1
 500 113 l 2,122,123
 500 27 500 27 414 27 c 2,40,-1
EndSplineSet
EndChar

StartChar: uni0951
Encoding: 2385 2385 107
Width: 0
GlyphClass: 2
Flags: W
LayerCount: 2
Back
Fore
SplineSet
-215 667 m 1,0,-1
 -215 1020 l 1,1,-1
 -183 1020 l 1,2,-1
 -183 667 l 1,3,-1
 -215 667 l 1,0,-1
EndSplineSet
EndChar

StartChar: uni0952
Encoding: 2386 2386 108
Width: 0
GlyphClass: 2
Flags: W
LayerCount: 2
Back
Fore
SplineSet
-498 -362 m 1,0,-1
 -498 -316 l 1,1,-1
 -56 -316 l 1,2,-1
 -56 -362 l 1,3,-1
 -498 -362 l 1,0,-1
EndSplineSet
EndChar

StartChar: uni0964
Encoding: 2404 2404 109
Width: 109
GlyphClass: 2
Flags: W
LayerCount: 2
Back
Fore
SplineSet
9 0 m 1,0,-1
 9 301 l 1,1,-1
 43 301 l 1,2,-1
 43 0 l 1,3,-1
 9 0 l 1,0,-1
EndSplineSet
EndChar

StartChar: uni0965
Encoding: 2405 2405 110
Width: 262
GlyphClass: 2
Flags: W
LayerCount: 2
Back
Fore
SplineSet
149 0 m 1,0,-1
 149 301 l 1,1,-1
 183 301 l 1,2,-1
 183 0 l 1,3,-1
 149 0 l 1,0,-1
39 0 m 1,4,-1
 39 301 l 1,5,-1
 73 301 l 1,6,-1
 73 0 l 1,7,-1
 39 0 l 1,4,-1
EndSplineSet
EndChar

StartChar: uni0C01
Encoding: 3073 3073 111
Width: 214
GlyphClass: 2
Flags: W
LayerCount: 2
Back
Fore
SplineSet
61 0 m 2,0,1
 41 0 41 0 25 16 c 128,-1,2
 9 32 9 32 9 61 c 2,3,-1
 9 268 l 2,4,5
 9 294 9 294 25 311 c 128,-1,6
 41 328 41 328 61 328 c 2,7,-1
 154 328 l 1,8,-1
 154 295 l 1,9,-1
 64 295 l 2,10,11
 39 295 39 295 39 268 c 2,12,-1
 39 61 l 2,13,14
 39 33 39 33 64 33 c 2,15,-1
 154 33 l 1,16,-1
 154 0 l 1,17,-1
 61 0 l 2,0,1
EndSplineSet
EndChar

StartChar: uni0C02
Encoding: 3074 3074 112
Width: 313
GlyphClass: 2
Flags: W
LayerCount: 2
Back
Fore
SplineSet
204 0 m 2,0,-1
 67 0 l 2,1,2
 47 0 47 0 30.5 16.5 c 128,-1,3
 14 33 14 33 14 61 c 2,4,-1
 14 268 l 2,5,6
 14 294 14 294 30.5 311 c 128,-1,7
 47 328 47 328 67 328 c 2,8,-1
 202 328 l 2,9,10
 222 328 222 328 239 311 c 128,-1,11
 256 294 256 294 256 268 c 2,12,-1
 256 61 l 2,13,14
 256 43 256 43 249.5 31 c 128,-1,15
 243 19 243 19 234.5 12 c 128,-1,16
 226 5 226 5 217 2.5 c 128,-1,17
 208 0 208 0 204 0 c 2,0,-1
225 268 m 2,18,19
 225 282 225 282 217.5 288.5 c 128,-1,20
 210 295 210 295 200 295 c 2,21,-1
 70 295 l 2,22,23
 45 295 45 295 45 268 c 2,24,-1
 45 61 l 2,25,26
 45 33 45 33 70 33 c 2,27,-1
 200 33 l 2,28,29
 211 33 211 33 218 40 c 128,-1,30
 225 47 225 47 225 61 c 2,31,-1
 225 268 l 2,18,19
EndSplineSet
EndChar

StartChar: uni0C03
Encoding: 3075 3075 113
Width: 221
GlyphClass: 2
Flags: W
LayerCount: 2
Back
Fore
SplineSet
100 189 m 2,0,-1
 61 189 l 2,1,2
 41 189 41 189 25 206 c 128,-1,3
 9 223 9 223 9 249 c 2,4,-1
 9 268 l 2,5,6
 9 294 9 294 25 311 c 128,-1,7
 41 328 41 328 61 328 c 2,8,-1
 100 328 l 2,9,10
 121 328 121 328 137.5 311 c 128,-1,11
 154 294 154 294 154 268 c 2,12,-1
 154 249 l 2,13,14
 154 223 154 223 137.5 206 c 128,-1,15
 121 189 121 189 100 189 c 2,0,-1
100 0 m 2,16,-1
 61 0 l 2,17,18
 41 0 41 0 25 16 c 128,-1,19
 9 32 9 32 9 61 c 2,20,-1
 9 78 l 2,21,22
 9 104 9 104 25 120.5 c 128,-1,23
 41 137 41 137 61 137 c 2,24,-1
 100 137 l 2,25,26
 121 137 121 137 137.5 120.5 c 128,-1,27
 154 104 154 104 154 78 c 2,28,-1
 154 61 l 2,29,30
 154 32 154 32 137.5 16 c 128,-1,31
 121 0 121 0 100 0 c 2,16,-1
124 268 m 2,32,33
 124 295 124 295 98 295 c 2,34,-1
 64 295 l 2,35,36
 39 295 39 295 39 268 c 2,37,-1
 39 249 l 2,38,39
 39 222 39 222 64 222 c 2,40,-1
 98 222 l 2,41,42
 124 222 124 222 124 249 c 2,43,-1
 124 268 l 2,32,33
124 78 m 2,44,45
 124 105 124 105 98 105 c 2,46,-1
 64 105 l 2,47,48
 39 105 39 105 39 78 c 2,49,-1
 39 61 l 2,50,51
 39 33 39 33 64 33 c 2,52,-1
 98 33 l 2,53,54
 124 33 124 33 124 61 c 2,55,-1
 124 78 l 2,44,45
EndSplineSet
EndChar

StartChar: uni0C05
Encoding: 3077 3077 114
Width: 384
GlyphClass: 2
Flags: W
LayerCount: 2
Back
Fore
SplineSet
276 0 m 2,0,-1
 63 0 l 2,1,2
 42 0 42 0 25.5 16.5 c 128,-1,3
 9 33 9 33 9 61 c 2,4,-1
 9 267 l 2,5,6
 9 295 9 295 25.5 311.5 c 128,-1,7
 42 328 42 328 63 328 c 2,8,-1
 94 328 l 2,9,10
 114 328 114 328 131.5 311.5 c 128,-1,11
 149 295 149 295 149 267 c 2,12,-1
 149 236 l 2,13,14
 149 207 149 207 131.5 191 c 128,-1,15
 114 175 114 175 94 175 c 2,16,-1
 40 175 l 1,17,-1
 40 61 l 2,18,19
 40 47 40 47 47.5 40 c 128,-1,20
 55 33 55 33 65 33 c 2,21,-1
 274 33 l 2,22,23
 284 33 284 33 292 40 c 128,-1,24
 300 47 300 47 300 61 c 2,25,-1
 300 268 l 2,26,27
 300 295 300 295 274 295 c 2,28,-1
 247 295 l 2,29,30
 237 295 237 295 229.5 288.5 c 128,-1,31
 222 282 222 282 222 268 c 2,32,-1
 222 156 l 2,33,34
 222 140 222 140 213.5 122.5 c 128,-1,35
 205 105 205 105 184 105 c 2,36,-1
 79 105 l 1,37,-1
 79 138 l 1,38,-1
 158 138 l 2,39,40
 179 138 179 138 185 149.5 c 128,-1,41
 191 161 191 161 191 173 c 2,42,-1
 191 267 l 2,43,44
 191 295 191 295 208 311.5 c 128,-1,45
 225 328 225 328 245 328 c 2,46,-1
 276 328 l 2,47,48
 297 328 297 328 314 311.5 c 128,-1,49
 331 295 331 295 331 267 c 2,50,-1
 331 61 l 2,51,52
 331 33 331 33 314 16.5 c 128,-1,53
 297 0 297 0 276 0 c 2,0,-1
117 268 m 2,54,55
 117 295 117 295 92 295 c 2,56,-1
 65 295 l 2,57,58
 40 295 40 295 40 268 c 2,59,-1
 40 208 l 1,60,-1
 92 208 l 2,61,62
 117 208 117 208 117 235 c 2,63,-1
 117 268 l 2,54,55
EndSplineSet
EndChar

StartChar: uni0C06
Encoding: 3078 3078 115
Width: 375
GlyphClass: 2
Flags: W
LayerCount: 2
Back
Fore
SplineSet
264 0 m 2,0,-1
 63 0 l 2,1,2
 42 0 42 0 25.5 16.5 c 128,-1,3
 9 33 9 33 9 61 c 2,4,-1
 9 267 l 2,5,6
 9 295 9 295 25.5 311.5 c 128,-1,7
 42 328 42 328 63 328 c 2,8,-1
 94 328 l 2,9,10
 114 328 114 328 131.5 311.5 c 128,-1,11
 149 295 149 295 149 267 c 2,12,-1
 149 236 l 2,13,14
 149 207 149 207 131.5 191 c 128,-1,15
 114 175 114 175 94 175 c 2,16,-1
 40 175 l 1,17,-1
 40 61 l 2,18,19
 40 33 40 33 63 33 c 2,20,-1
 262 33 l 2,21,22
 272 33 272 33 280 40 c 128,-1,23
 288 47 288 47 288 61 c 2,24,-1
 288 78 l 2,25,26
 288 105 288 105 262 105 c 2,27,-1
 82 105 l 1,28,-1
 82 138 l 1,29,-1
 199 138 l 1,30,-1
 199 156 l 1,31,32
 194 156 194 156 191.5 161 c 128,-1,33
 189 166 189 166 189 172 c 2,34,-1
 189 267 l 2,35,36
 189 295 189 295 206 311.5 c 128,-1,37
 223 328 223 328 243 328 c 2,38,-1
 264 328 l 2,39,40
 284 328 284 328 301.5 311.5 c 128,-1,41
 319 295 319 295 319 267 c 2,42,-1
 319 164 l 2,43,44
 319 153 319 153 310 143 c 128,-1,45
 301 133 301 133 292 133 c 1,46,-1
 290 116 l 1,47,48
 304 114 304 114 311.5 105.5 c 128,-1,49
 319 97 319 97 319 89 c 2,50,-1
 319 61 l 2,51,52
 319 33 319 33 301.5 16.5 c 128,-1,53
 284 0 284 0 264 0 c 2,0,-1
288 268 m 2,54,55
 288 295 288 295 262 295 c 2,56,-1
 245 295 l 2,57,58
 235 295 235 295 227.5 288.5 c 128,-1,59
 220 282 220 282 220 268 c 2,60,-1
 220 169 l 2,61,62
 220 155 220 155 227.5 148.5 c 128,-1,63
 235 142 235 142 245 142 c 2,64,-1
 262 142 l 2,65,66
 272 142 272 142 280 149.5 c 128,-1,67
 288 157 288 157 288 169 c 2,68,-1
 288 268 l 2,54,55
117 268 m 2,69,70
 117 295 117 295 92 295 c 2,71,-1
 65 295 l 2,72,73
 40 295 40 295 40 268 c 2,74,-1
 40 208 l 1,75,-1
 92 208 l 2,76,77
 117 208 117 208 117 235 c 2,78,-1
 117 268 l 2,69,70
EndSplineSet
EndChar

StartChar: uni0C07
Encoding: 3079 3079 116
Width: 411
GlyphClass: 2
Flags: W
LayerCount: 2
Back
Fore
SplineSet
325 -1 m 1,0,-1
 325 120 l 2,1,2
 325 134 325 134 317.5 141.5 c 128,-1,3
 310 149 310 149 299 149 c 2,4,-1
 278 149 l 1,5,-1
 278 60 l 2,6,7
 278 32 278 32 261 15.5 c 128,-1,8
 244 -1 244 -1 224 -1 c 2,9,-1
 62 -1 l 2,10,11
 42 -1 42 -1 25.5 15.5 c 128,-1,12
 9 32 9 32 9 60 c 2,13,-1
 9 120 l 2,14,15
 9 149 9 149 25.5 165.5 c 128,-1,16
 42 182 42 182 62 182 c 2,17,-1
 247 182 l 1,18,-1
 247 267 l 2,19,20
 247 281 247 281 240 288 c 128,-1,21
 233 295 233 295 222 295 c 2,22,-1
 183 295 l 2,23,24
 158 295 158 295 158 267 c 2,25,-1
 158 253 l 1,26,-1
 128 253 l 1,27,-1
 128 267 l 2,28,29
 128 281 128 281 119.5 288 c 128,-1,30
 111 295 111 295 101 295 c 2,31,-1
 65 295 l 2,32,33
 40 295 40 295 40 267 c 2,34,-1
 40 232 l 1,35,-1
 9 232 l 1,36,-1
 9 267 l 2,37,38
 9 295 9 295 25.5 311.5 c 128,-1,39
 42 328 42 328 62 328 c 2,40,-1
 103 328 l 2,41,42
 113 328 113 328 123 321.5 c 128,-1,43
 133 315 133 315 144 298 c 1,44,45
 152 318 152 318 157.5 323 c 128,-1,46
 163 328 163 328 171 328 c 2,47,-1
 224 328 l 2,48,49
 244 328 244 328 261 311.5 c 128,-1,50
 278 295 278 295 278 267 c 2,51,-1
 278 182 l 1,52,-1
 305 182 l 2,53,54
 325 182 325 182 340 167.5 c 128,-1,55
 355 153 355 153 355 124 c 2,56,-1
 355 -1 l 1,57,-1
 325 -1 l 1,0,-1
247 149 m 1,58,-1
 65 149 l 2,59,60
 54 149 54 149 47 141.5 c 128,-1,61
 40 134 40 134 40 120 c 2,62,-1
 40 60 l 2,63,64
 40 46 40 46 47.5 39 c 128,-1,65
 55 32 55 32 65 32 c 2,66,-1
 223 32 l 2,67,68
 247 32 247 32 247 60 c 2,69,-1
 247 149 l 1,58,-1
EndSplineSet
EndChar

StartChar: uni0C08
Encoding: 3080 3080 117
Width: 521
GlyphClass: 2
Flags: W
LayerCount: 2
Back
Fore
SplineSet
415 0 m 2,0,-1
 376 0 l 2,1,2
 357 0 357 0 342.5 14.5 c 128,-1,3
 328 29 328 29 328 53 c 2,4,-1
 328 149 l 1,5,-1
 328 151 l 2,6,7
 329 153 329 153 330.5 155.5 c 128,-1,8
 332 158 332 158 335 166 c 1,9,-1
 277 166 l 1,10,-1
 277 53 l 2,11,12
 277 29 277 29 262 14.5 c 128,-1,13
 247 0 247 0 229 0 c 2,14,-1
 96 0 l 2,15,16
 78 0 78 0 64.5 13.5 c 128,-1,17
 51 27 51 27 51 53 c 2,18,-1
 51 166 l 1,19,-1
 9 166 l 1,20,-1
 9 199 l 1,21,-1
 51 199 l 1,22,-1
 51 273 l 2,23,24
 51 293 51 293 72 314 c 1,25,26
 64 325 64 325 61.5 333.5 c 128,-1,27
 59 342 59 342 59 348 c 2,28,-1
 59 392 l 1,29,-1
 90 392 l 1,30,-1
 90 353 l 2,31,32
 90 338 90 338 97.5 333 c 128,-1,33
 105 328 105 328 115 326 c 2,34,-1
 161 326 l 1,35,-1
 161 378 l 2,36,37
 161 402 161 402 176 417 c 128,-1,38
 191 432 191 432 209 432 c 2,39,-1
 275 432 l 1,40,-1
 275 399 l 1,41,-1
 215 399 l 2,42,43
 203 399 203 399 198.5 391.5 c 128,-1,44
 194 384 194 384 194 373 c 2,45,-1
 194 326 l 1,46,-1
 229 326 l 2,47,48
 247 326 247 326 262 311 c 128,-1,49
 277 296 277 296 277 273 c 2,50,-1
 277 199 l 1,51,-1
 406 199 l 2,52,53
 428 199 428 199 428 223 c 2,54,-1
 428 269 l 2,55,56
 428 293 428 293 406 293 c 2,57,-1
 383 293 l 2,58,59
 359 293 359 293 359 269 c 2,60,-1
 359 256 l 1,61,-1
 328 256 l 1,62,-1
 328 273 l 2,63,64
 328 305 328 305 338 315.5 c 128,-1,65
 348 326 348 326 373 326 c 2,66,-1
 415 326 l 2,67,68
 460 326 460 326 460 273 c 2,69,-1
 460 219 l 2,70,71
 460 211 460 211 457 202.5 c 128,-1,72
 454 194 454 194 440 180 c 1,73,74
 452 170 452 170 453 167 c 0,75,76
 455 163 455 163 455 161 c 2,77,-1
 458 154 l 1,78,-1
 459 143 l 2,79,80
 460 142 460 142 460 140 c 2,81,-1
 460 53 l 2,82,83
 460 27 460 27 446 13.5 c 128,-1,84
 432 0 432 0 415 0 c 2,0,-1
428 142 m 2,85,86
 428 165 428 165 406 165 c 2,87,-1
 381 165 l 2,88,89
 359 165 359 165 359 142 c 2,90,-1
 359 56 l 2,91,92
 359 33 359 33 381 33 c 2,93,-1
 406 33 l 2,94,95
 428 33 428 33 428 56 c 2,96,-1
 428 142 l 2,85,86
246 269 m 2,97,98
 246 280 246 280 239 286.5 c 128,-1,99
 232 293 232 293 222 293 c 2,100,-1
 107 293 l 2,101,102
 82 293 82 293 82 269 c 2,103,-1
 82 199 l 1,104,-1
 246 199 l 1,105,-1
 246 269 l 2,97,98
246 166 m 1,106,-1
 82 166 l 1,107,-1
 82 56 l 2,108,109
 82 44 82 44 89.5 38.5 c 128,-1,110
 97 33 97 33 107 33 c 2,111,-1
 222 33 l 2,112,113
 232 33 232 33 239 38.5 c 128,-1,114
 246 44 246 44 246 56 c 2,115,-1
 246 166 l 1,106,-1
EndSplineSet
EndChar

StartChar: uni0C09
Encoding: 3081 3081 118
Width: 359
GlyphClass: 2
Flags: W
LayerCount: 2
Back
Fore
SplineSet
248 0 m 2,0,-1
 199 0 l 2,1,2
 198 -1 198 -1 189 0.5 c 128,-1,3
 180 2 180 2 163 19 c 1,4,5
 144 0 144 0 122 0 c 2,6,-1
 74 0 l 2,7,8
 57 0 57 0 42.5 14.5 c 128,-1,9
 28 29 28 29 28 52 c 2,10,-1
 28 167 l 1,11,-1
 9 167 l 1,12,-1
 9 200 l 1,13,-1
 28 200 l 1,14,-1
 28 275 l 2,15,16
 28 298 28 298 42.5 312.5 c 128,-1,17
 57 327 57 327 74 327 c 2,18,-1
 145 327 l 1,19,-1
 145 390 l 1,20,-1
 176 390 l 1,21,-1
 176 327 l 1,22,-1
 248 327 l 2,23,24
 267 327 267 327 282 312.5 c 128,-1,25
 297 298 297 298 297 275 c 2,26,-1
 297 253 l 1,27,-1
 266 253 l 1,28,-1
 266 271 l 2,29,30
 266 281 266 281 261 287.5 c 128,-1,31
 256 294 256 294 245 294 c 2,32,-1
 80 294 l 2,33,34
 58 294 58 294 58 271 c 2,35,-1
 58 200 l 1,36,-1
 167 200 l 1,37,-1
 167 167 l 1,38,-1
 58 167 l 1,39,-1
 58 58 l 2,40,41
 58 33 58 33 80 33 c 2,42,-1
 123 33 l 2,43,44
 137 33 137 33 142 40 c 128,-1,45
 147 47 147 47 147 57 c 2,46,-1
 147 84 l 1,47,-1
 178 84 l 1,48,-1
 178 58 l 2,49,50
 178 33 178 33 200 33 c 2,51,-1
 245 33 l 2,52,53
 256 33 256 33 261 41 c 128,-1,54
 266 49 266 49 266 59 c 2,55,-1
 266 142 l 2,56,57
 266 153 266 153 261 160 c 128,-1,58
 256 167 256 167 245 167 c 2,59,-1
 228 167 l 1,60,-1
 228 200 l 1,61,-1
 248 200 l 2,62,63
 267 200 267 200 282 185.5 c 128,-1,64
 297 171 297 171 297 148 c 2,65,-1
 297 54 l 2,66,67
 297 30 297 30 281.5 15 c 128,-1,68
 266 0 266 0 248 0 c 2,0,-1
EndSplineSet
EndChar

StartChar: uni0C0A
Encoding: 3082 3082 119
Width: 566
GlyphClass: 2
Flags: W
LayerCount: 2
Back
Fore
SplineSet
455 0 m 2,0,-1
 419 0 l 2,1,2
 400 0 400 0 386 14 c 128,-1,3
 372 28 372 28 372 51 c 2,4,-1
 372 132 l 2,5,6
 372 138 372 138 373 145.5 c 128,-1,7
 374 153 374 153 378 164 c 1,8,-1
 333 164 l 1,9,-1
 333 197 l 1,10,-1
 450 197 l 2,11,12
 472 197 472 197 472 217 c 2,13,-1
 472 270 l 2,14,15
 472 284 472 284 466 289 c 128,-1,16
 460 294 460 294 450 294 c 2,17,-1
 421 294 l 2,18,19
 410 294 410 294 405.5 286 c 128,-1,20
 401 278 401 278 401 270 c 2,21,-1
 401 242 l 1,22,-1
 369 242 l 1,23,-1
 369 274 l 2,24,25
 369 296 369 296 383.5 311.5 c 128,-1,26
 398 327 398 327 416 327 c 2,27,-1
 455 327 l 2,28,29
 473 327 473 327 488 311.5 c 128,-1,30
 503 296 503 296 503 274 c 2,31,-1
 503 218 l 2,32,33
 503 202 503 202 499.5 195 c 128,-1,34
 496 188 496 188 485 177 c 1,35,36
 496 169 496 169 499 165 c 128,-1,37
 502 161 502 161 503 157 c 2,38,-1
 503 146 l 1,39,-1
 503 137 l 1,40,-1
 503 51 l 2,41,42
 503 28 503 28 488.5 14 c 128,-1,43
 474 0 474 0 455 0 c 2,0,-1
248 0 m 2,44,-1
 199 0 l 2,45,46
 198 -1 198 -1 189 0.5 c 128,-1,47
 180 2 180 2 163 19 c 1,48,49
 144 0 144 0 122 0 c 2,50,-1
 74 0 l 2,51,52
 57 0 57 0 42.5 14.5 c 128,-1,53
 28 29 28 29 28 52 c 2,54,-1
 28 167 l 1,55,-1
 9 167 l 1,56,-1
 9 200 l 1,57,-1
 28 200 l 1,58,-1
 28 275 l 2,59,60
 28 298 28 298 42.5 312.5 c 128,-1,61
 57 327 57 327 74 327 c 2,62,-1
 107 327 l 1,63,-1
 107 388 l 1,64,-1
 139 388 l 1,65,-1
 139 327 l 1,66,-1
 188 327 l 1,67,-1
 188 388 l 1,68,-1
 220 388 l 1,69,-1
 220 327 l 1,70,-1
 248 327 l 2,71,72
 267 327 267 327 282 312.5 c 128,-1,73
 297 298 297 298 297 275 c 2,74,-1
 297 253 l 1,75,-1
 266 253 l 1,76,-1
 266 271 l 2,77,78
 266 281 266 281 261 287.5 c 128,-1,79
 256 294 256 294 245 294 c 2,80,-1
 80 294 l 2,81,82
 58 294 58 294 58 271 c 2,83,-1
 58 200 l 1,84,-1
 167 200 l 1,85,-1
 167 167 l 1,86,-1
 58 167 l 1,87,-1
 58 58 l 2,88,89
 58 33 58 33 80 33 c 2,90,-1
 123 33 l 2,91,92
 137 33 137 33 142 40 c 128,-1,93
 147 47 147 47 147 57 c 2,94,-1
 147 84 l 1,95,-1
 178 84 l 1,96,-1
 178 58 l 2,97,98
 178 33 178 33 200 33 c 2,99,-1
 245 33 l 2,100,101
 256 33 256 33 261 41 c 128,-1,102
 266 49 266 49 266 59 c 2,103,-1
 266 142 l 2,104,105
 266 167 266 167 245 167 c 2,106,-1
 228 167 l 1,107,-1
 228 200 l 1,108,-1
 248 200 l 2,109,110
 267 200 267 200 282 185.5 c 128,-1,111
 297 171 297 171 297 148 c 2,112,-1
 297 54 l 2,113,114
 297 30 297 30 281.5 15 c 128,-1,115
 266 0 266 0 248 0 c 2,44,-1
472 137 m 2,116,117
 472 161 472 161 450 161 c 2,118,-1
 424 161 l 2,119,120
 404 161 404 161 404 137 c 2,121,-1
 404 53 l 2,122,123
 404 33 404 33 424 33 c 2,124,-1
 450 33 l 2,125,126
 472 33 472 33 472 53 c 2,127,-1
 472 137 l 2,116,117
EndSplineSet
EndChar

StartChar: uni0C0B
Encoding: 3083 3083 120
Width: 608
GlyphClass: 2
Flags: W
LayerCount: 2
Back
Fore
SplineSet
500 0 m 2,0,-1
 450 0 l 2,1,2
 439 0 439 0 428.5 5 c 128,-1,3
 418 10 418 10 407 24 c 1,4,5
 394 10 394 10 384 5 c 128,-1,6
 374 0 374 0 364 0 c 2,7,-1
 314 0 l 2,8,9
 305 0 305 0 293.5 5.5 c 128,-1,10
 282 11 282 11 271 25 c 1,11,12
 258 11 258 11 247.5 5.5 c 128,-1,13
 237 0 237 0 227 0 c 2,14,-1
 179 0 l 2,15,16
 171 0 171 0 162.5 4.5 c 128,-1,17
 154 9 154 9 145 21 c 1,18,19
 137 7 137 7 126.5 3.5 c 128,-1,20
 116 0 116 0 105 0 c 2,21,-1
 63 0 l 2,22,23
 42 0 42 0 25.5 16.5 c 128,-1,24
 9 33 9 33 9 61 c 2,25,-1
 9 140 l 2,26,27
 9 169 9 169 25.5 185.5 c 128,-1,28
 42 202 42 202 63 202 c 2,29,-1
 102 202 l 2,30,31
 129 202 129 202 129 229 c 2,32,-1
 129 268 l 2,33,34
 129 295 129 295 102 295 c 2,35,-1
 65 295 l 2,36,37
 40 295 40 295 40 268 c 2,38,-1
 40 253 l 1,39,-1
 9 253 l 1,40,-1
 9 267 l 2,41,42
 9 295 9 295 25.5 311.5 c 128,-1,43
 42 328 42 328 63 328 c 2,44,-1
 104 328 l 2,45,46
 125 328 125 328 142 311.5 c 128,-1,47
 159 295 159 295 159 267 c 2,48,-1
 159 230 l 2,49,50
 159 201 159 201 142 185 c 128,-1,51
 125 169 125 169 104 169 c 2,52,-1
 65 169 l 2,53,54
 55 169 55 169 47.5 161.5 c 128,-1,55
 40 154 40 154 40 140 c 2,56,-1
 40 61 l 2,57,58
 40 47 40 47 47.5 40 c 128,-1,59
 55 33 55 33 65 33 c 2,60,-1
 102 33 l 2,61,62
 129 33 129 33 129 61 c 2,63,-1
 129 85 l 1,64,-1
 159 85 l 1,65,-1
 159 61 l 2,66,67
 159 33 159 33 185 33 c 2,68,-1
 225 33 l 2,69,70
 235 33 235 33 243 40 c 128,-1,71
 251 47 251 47 251 61 c 2,72,-1
 251 268 l 2,73,74
 251 295 251 295 225 295 c 2,75,-1
 210 295 l 1,76,-1
 210 328 l 1,77,-1
 227 328 l 2,78,79
 247 328 247 328 264.5 311.5 c 128,-1,80
 282 295 282 295 282 267 c 2,81,-1
 282 80 l 2,82,83
 282 57 282 57 292 45.5 c 128,-1,84
 302 34 302 34 316 34 c 2,85,-1
 362 34 l 2,86,87
 372 34 372 34 380 41 c 128,-1,88
 388 48 388 48 388 62 c 2,89,-1
 388 269 l 2,90,91
 388 296 388 296 362 296 c 2,92,-1
 356 296 l 1,93,-1
 356 329 l 1,94,-1
 364 329 l 2,95,96
 384 329 384 329 401 312.5 c 128,-1,97
 418 296 418 296 418 268 c 2,98,-1
 418 79 l 2,99,100
 418 56 418 56 428 44.5 c 128,-1,101
 438 33 438 33 452 33 c 2,102,-1
 498 33 l 2,103,104
 508 33 508 33 516 40 c 128,-1,105
 524 47 524 47 524 61 c 2,106,-1
 524 268 l 2,107,108
 524 295 524 295 498 295 c 2,109,-1
 492 295 l 1,110,-1
 492 328 l 1,111,-1
 500 328 l 2,112,113
 520 328 520 328 537 311.5 c 128,-1,114
 554 295 554 295 554 267 c 2,115,-1
 554 61 l 2,116,117
 554 33 554 33 537 16.5 c 128,-1,118
 520 0 520 0 500 0 c 2,0,-1
EndSplineSet
EndChar

StartChar: uni0C0C
Encoding: 3084 3084 121
Width: 362
GlyphClass: 2
Flags: W
LayerCount: 2
Back
Fore
SplineSet
229 -141 m 2,0,-1
 151 -141 l 2,1,2
 130 -141 130 -141 113.5 -124.5 c 128,-1,3
 97 -108 97 -108 97 -79 c 2,4,-1
 97 76 l 2,5,6
 97 103 97 103 113.5 117 c 128,-1,7
 130 131 130 131 150 136 c 2,8,-1
 224 156 l 2,9,10
 238 160 238 160 246 167.5 c 128,-1,11
 254 175 254 175 254 187 c 2,12,-1
 254 266 l 2,13,14
 254 296 254 296 226 296 c 2,15,-1
 189 296 l 2,16,17
 162 296 162 296 162 266 c 2,18,-1
 162 253 l 1,19,-1
 133 253 l 1,20,-1
 133 266 l 2,21,22
 133 281 133 281 124.5 288.5 c 128,-1,23
 116 296 116 296 106 296 c 2,24,-1
 65 296 l 2,25,26
 38 296 38 296 38 266 c 2,27,-1
 38 208 l 2,28,29
 38 178 38 178 65 178 c 2,30,-1
 69 178 l 1,31,-1
 69 149 l 1,32,-1
 63 149 l 2,33,34
 42 149 42 149 26 165 c 128,-1,35
 10 181 10 181 10 209 c 2,36,-1
 10 266 l 2,37,38
 10 295 10 295 26 311.5 c 128,-1,39
 42 328 42 328 63 328 c 2,40,-1
 110 328 l 2,41,42
 118 328 118 328 126.5 325 c 128,-1,43
 135 322 135 322 146 312 c 1,44,45
 159 323 159 323 168 325.5 c 128,-1,46
 177 328 177 328 185 328 c 2,47,-1
 229 328 l 2,48,49
 250 328 250 328 266.5 311.5 c 128,-1,50
 283 295 283 295 283 266 c 2,51,-1
 283 187 l 2,52,53
 283 158 283 158 265 143.5 c 128,-1,54
 247 129 247 129 230 125 c 2,55,-1
 155 106 l 2,56,57
 144 103 144 103 135 92.5 c 128,-1,58
 126 82 126 82 126 68 c 2,59,-1
 126 -80 l 2,60,61
 126 -109 126 -109 153 -109 c 2,62,-1
 226 -109 l 2,63,64
 254 -109 254 -109 254 -80 c 2,65,-1
 254 35 l 1,66,-1
 283 35 l 1,67,-1
 283 -80 l 2,68,69
 283 -107 283 -107 266.5 -124 c 128,-1,70
 250 -141 250 -141 229 -141 c 2,0,-1
EndSplineSet
EndChar

StartChar: uni0C0E
Encoding: 3086 3086 122
Width: 348
GlyphClass: 2
Flags: W
LayerCount: 2
Back
Fore
SplineSet
226 0 m 2,0,-1
 182 0 l 2,1,2
 174 0 174 0 165.5 3.5 c 128,-1,3
 157 7 157 7 146 18 c 1,4,5
 125 0 125 0 106 0 c 2,6,-1
 63 0 l 2,7,8
 42 0 42 0 25.5 17 c 128,-1,9
 9 34 9 34 9 61 c 2,10,-1
 9 151 l 2,11,12
 9 180 9 180 25.5 196.5 c 128,-1,13
 42 213 42 213 63 213 c 2,14,-1
 106 213 l 2,15,16
 126 213 126 213 143.5 196.5 c 128,-1,17
 161 180 161 180 161 151 c 2,18,-1
 161 61 l 1,19,-1
 161 51 l 1,20,21
 170 33 170 33 187 33 c 2,22,-1
 224 33 l 2,23,24
 235 33 235 33 242 40 c 128,-1,25
 249 47 249 47 249 61 c 2,26,-1
 249 290 l 2,27,28
 249 317 249 317 224 317 c 2,29,-1
 150 317 l 1,30,-1
 150 351 l 1,31,-1
 226 351 l 2,32,33
 246 351 246 351 263.5 334 c 128,-1,34
 281 317 281 317 281 289 c 2,35,-1
 281 61 l 2,36,37
 281 35 281 35 263.5 17.5 c 128,-1,38
 246 0 246 0 226 0 c 2,0,-1
130 152 m 2,39,40
 130 166 130 166 122 173.5 c 128,-1,41
 114 181 114 181 104 181 c 2,42,-1
 65 181 l 2,43,44
 40 181 40 181 40 152 c 2,45,-1
 40 61 l 2,46,47
 40 47 40 47 47.5 40 c 128,-1,48
 55 33 55 33 65 33 c 2,49,-1
 104 33 l 2,50,51
 114 33 114 33 122 40 c 128,-1,52
 130 47 130 47 130 61 c 2,53,-1
 130 152 l 2,39,40
EndSplineSet
EndChar

StartChar: uni0C0F
Encoding: 3087 3087 123
Width: 348
GlyphClass: 2
Flags: W
LayerCount: 2
Back
Fore
SplineSet
82 393 m 2,0,1
 56 393 56 393 56 366 c 2,2,-1
 56 311 l 1,3,-1
 26 311 l 1,4,-1
 26 365 l 2,5,6
 26 392 26 392 42.5 409 c 128,-1,7
 59 426 59 426 80 426 c 2,8,-1
 147 426 l 1,9,-1
 147 393 l 1,10,-1
 82 393 l 2,0,1
226 0 m 2,11,-1
 182 0 l 2,12,13
 174 0 174 0 165.5 3.5 c 128,-1,14
 157 7 157 7 146 17 c 1,15,16
 125 0 125 0 106 0 c 2,17,-1
 63 0 l 2,18,19
 42 0 42 0 25.5 17 c 128,-1,20
 9 34 9 34 9 61 c 2,21,-1
 9 151 l 2,22,23
 9 177 9 177 25.5 194 c 128,-1,24
 42 211 42 211 63 211 c 2,25,-1
 106 211 l 2,26,27
 126 211 126 211 143.5 194 c 128,-1,28
 161 177 161 177 161 151 c 2,29,-1
 161 61 l 1,30,-1
 161 50 l 1,31,32
 170 33 170 33 187 33 c 2,33,-1
 224 33 l 2,34,35
 235 33 235 33 242 40 c 128,-1,36
 249 47 249 47 249 61 c 2,37,-1
 249 287 l 2,38,39
 249 315 249 315 224 315 c 2,40,-1
 150 315 l 1,41,-1
 150 348 l 1,42,-1
 226 348 l 2,43,44
 246 348 246 348 263.5 331 c 128,-1,45
 281 314 281 314 281 286 c 2,46,-1
 281 61 l 2,47,48
 281 34 281 34 263.5 17 c 128,-1,49
 246 0 246 0 226 0 c 2,11,-1
130 152 m 2,50,51
 130 166 130 166 122 172.5 c 128,-1,52
 114 179 114 179 104 179 c 2,53,-1
 65 179 l 2,54,55
 40 179 40 179 40 152 c 2,56,-1
 40 61 l 2,57,58
 40 47 40 47 47.5 40 c 128,-1,59
 55 33 55 33 65 33 c 2,60,-1
 104 33 l 2,61,62
 114 33 114 33 122 40 c 128,-1,63
 130 47 130 47 130 61 c 2,64,-1
 130 152 l 2,50,51
EndSplineSet
EndChar

StartChar: uni0C10
Encoding: 3088 3088 124
Width: 347
GlyphClass: 2
Flags: W
LayerCount: 2
Back
Fore
SplineSet
225 0 m 2,0,-1
 177 0 l 2,1,2
 166 0 166 0 143 17 c 1,3,4
 122 0 122 0 104 0 c 2,5,-1
 62 0 l 2,6,7
 42 0 42 0 25.5 16.5 c 128,-1,8
 9 33 9 33 9 61 c 2,9,-1
 9 139 l 2,10,11
 9 168 9 168 25.5 183.5 c 128,-1,12
 42 199 42 199 62 199 c 2,13,-1
 104 199 l 2,14,15
 126 199 126 199 142.5 183.5 c 128,-1,16
 159 168 159 168 159 139 c 2,17,-1
 159 61 l 1,18,-1
 159 52 l 1,19,20
 169 33 169 33 187 33 c 2,21,-1
 223 33 l 2,22,23
 234 33 234 33 241 40 c 128,-1,24
 248 47 248 47 248 61 c 2,25,-1
 248 268 l 2,26,27
 248 295 248 295 223 295 c 2,28,-1
 183 295 l 2,29,30
 158 295 158 295 158 268 c 2,31,-1
 158 253 l 1,32,-1
 128 253 l 1,33,-1
 128 268 l 2,34,35
 128 283 128 283 119.5 289 c 128,-1,36
 111 295 111 295 101 295 c 2,37,-1
 65 295 l 2,38,39
 40 295 40 295 40 268 c 2,40,-1
 40 243 l 1,41,-1
 9 243 l 1,42,-1
 9 268 l 2,43,44
 9 294 9 294 25.5 311 c 128,-1,45
 42 328 42 328 62 328 c 2,46,-1
 104 328 l 2,47,48
 122 328 122 328 145 308 c 1,49,50
 153 319 153 319 160.5 323.5 c 128,-1,51
 168 328 168 328 172 328 c 2,52,-1
 225 328 l 2,53,54
 245 328 245 328 262 312 c 128,-1,55
 279 296 279 296 279 268 c 2,56,-1
 279 61 l 2,57,58
 279 33 279 33 262 16.5 c 128,-1,59
 245 0 245 0 225 0 c 2,0,-1
129 139 m 2,60,61
 129 167 129 167 102 167 c 2,62,-1
 65 167 l 2,63,64
 40 167 40 167 40 139 c 2,65,-1
 40 61 l 2,66,67
 40 47 40 47 47.5 40 c 128,-1,68
 55 33 55 33 65 33 c 2,69,-1
 102 33 l 2,70,71
 129 33 129 33 129 61 c 2,72,-1
 129 139 l 2,60,61
EndSplineSet
EndChar

StartChar: uni0C12
Encoding: 3090 3090 125
Width: 318
GlyphClass: 2
Flags: W
LayerCount: 2
Back
Fore
SplineSet
207 0 m 2,0,-1
 170 0 l 2,1,2
 162 0 162 0 153.5 4.5 c 128,-1,3
 145 9 145 9 137 16 c 1,4,5
 129 12 129 12 124 9 c 128,-1,6
 119 6 119 6 114 4 c 256,7,8
 109 2 109 2 104.5 1 c 128,-1,9
 100 0 100 0 95 0 c 2,10,-1
 63 0 l 2,11,12
 42 0 42 0 25.5 16.5 c 128,-1,13
 9 33 9 33 9 61 c 2,14,-1
 9 140 l 2,15,16
 9 169 9 169 25.5 185.5 c 128,-1,17
 42 202 42 202 63 202 c 2,18,-1
 102 202 l 2,19,20
 129 202 129 202 129 229 c 2,21,-1
 129 268 l 2,22,23
 129 295 129 295 102 295 c 2,24,-1
 65 295 l 2,25,26
 40 295 40 295 40 268 c 2,27,-1
 40 243 l 1,28,-1
 9 243 l 1,29,-1
 9 267 l 2,30,31
 9 295 9 295 25.5 311.5 c 128,-1,32
 42 328 42 328 63 328 c 2,33,-1
 104 328 l 2,34,35
 125 328 125 328 142 311.5 c 128,-1,36
 159 295 159 295 159 267 c 2,37,-1
 159 230 l 2,38,39
 159 201 159 201 142 185 c 128,-1,40
 125 169 125 169 104 169 c 2,41,-1
 65 169 l 2,42,43
 55 169 55 169 47.5 161.5 c 128,-1,44
 40 154 40 154 40 140 c 2,45,-1
 40 61 l 2,46,47
 40 47 40 47 47.5 40 c 128,-1,48
 55 33 55 33 65 33 c 2,49,-1
 92 33 l 2,50,51
 119 33 119 33 119 61 c 2,52,-1
 119 85 l 1,53,-1
 149 85 l 1,54,-1
 149 61 l 2,55,56
 149 33 149 33 175 33 c 2,57,-1
 205 33 l 2,58,59
 215 33 215 33 223 40 c 128,-1,60
 231 47 231 47 231 61 c 2,61,-1
 231 109 l 1,62,-1
 262 109 l 1,63,-1
 262 61 l 2,64,65
 262 33 262 33 244.5 16.5 c 128,-1,66
 227 0 227 0 207 0 c 2,0,-1
EndSplineSet
EndChar

StartChar: uni0C13
Encoding: 3091 3091 126
Width: 318
GlyphClass: 2
Flags: W
LayerCount: 2
Back
Fore
SplineSet
207 0 m 2,0,-1
 170 0 l 2,1,2
 153 0 153 0 137 16 c 1,3,4
 129 12 129 12 124 9 c 128,-1,5
 119 6 119 6 114 4 c 256,6,7
 109 2 109 2 104.5 1 c 128,-1,8
 100 0 100 0 95 0 c 2,9,-1
 63 0 l 2,10,11
 42 0 42 0 25.5 16.5 c 128,-1,12
 9 33 9 33 9 60 c 2,13,-1
 9 139 l 2,14,15
 9 166 9 166 25.5 182.5 c 128,-1,16
 42 199 42 199 63 199 c 2,17,-1
 102 199 l 2,18,19
 129 199 129 199 129 225 c 2,20,-1
 129 265 l 2,21,22
 129 291 129 291 102 291 c 2,23,-1
 65 291 l 2,24,25
 40 291 40 291 40 265 c 2,26,-1
 40 239 l 1,27,-1
 9 239 l 1,28,-1
 9 264 l 2,29,30
 9 290 9 290 26 306.5 c 128,-1,31
 43 323 43 323 66 324 c 1,32,-1
 66 372 l 2,33,34
 66 426 66 426 112 426 c 2,35,-1
 144 426 l 2,36,37
 168 426 168 426 179 415.5 c 128,-1,38
 190 405 190 405 190 373 c 2,39,-1
 190 357 l 1,40,-1
 159 357 l 1,41,-1
 159 368 l 2,42,43
 159 393 159 393 133 393 c 2,44,-1
 119 393 l 2,45,46
 108 393 108 393 102.5 386 c 128,-1,47
 97 379 97 379 97 368 c 2,48,-1
 97 324 l 1,49,-1
 104 324 l 2,50,51
 125 324 125 324 142 307 c 128,-1,52
 159 290 159 290 159 264 c 2,53,-1
 159 226 l 2,54,55
 159 200 159 200 142 183.5 c 128,-1,56
 125 167 125 167 104 167 c 2,57,-1
 65 167 l 2,58,59
 55 167 55 167 47.5 160 c 128,-1,60
 40 153 40 153 40 139 c 2,61,-1
 40 60 l 2,62,63
 40 46 40 46 47.5 39.5 c 128,-1,64
 55 33 55 33 65 33 c 2,65,-1
 92 33 l 2,66,67
 119 33 119 33 119 60 c 2,68,-1
 119 85 l 1,69,-1
 149 85 l 1,70,-1
 149 60 l 2,71,72
 149 33 149 33 175 33 c 2,73,-1
 205 33 l 2,74,75
 215 33 215 33 223 39.5 c 128,-1,76
 231 46 231 46 231 60 c 2,77,-1
 231 107 l 1,78,-1
 262 107 l 1,79,-1
 262 60 l 2,80,81
 262 34 262 34 244.5 17 c 128,-1,82
 227 0 227 0 207 0 c 2,0,-1
EndSplineSet
EndChar

StartChar: uni0C14
Encoding: 3092 3092 127
Width: 416
GlyphClass: 2
Flags: W
LayerCount: 2
Back
Fore
SplineSet
302 174 m 2,0,-1
 276 174 l 2,1,2
 255 174 255 174 239 191 c 128,-1,3
 223 208 223 208 223 234 c 2,4,-1
 223 271 l 2,5,6
 223 300 223 300 238.5 315 c 128,-1,7
 254 330 254 330 276 330 c 2,8,-1
 325 330 l 1,9,-1
 325 365 l 2,10,11
 325 392 325 392 298 392 c 2,12,-1
 156 392 l 1,13,14
 163 371 163 371 163 368 c 2,15,-1
 163 338 l 2,16,17
 163 322 163 322 145 304 c 1,18,19
 159 282 159 282 159 264 c 2,20,-1
 159 226 l 2,21,22
 159 200 159 200 142 183.5 c 128,-1,23
 125 167 125 167 104 167 c 2,24,-1
 65 167 l 2,25,26
 55 167 55 167 47.5 160 c 128,-1,27
 40 153 40 153 40 139 c 2,28,-1
 40 60 l 2,29,30
 40 46 40 46 47.5 39.5 c 128,-1,31
 55 33 55 33 65 33 c 2,32,-1
 92 33 l 2,33,34
 119 33 119 33 119 60 c 2,35,-1
 119 85 l 1,36,-1
 149 85 l 1,37,-1
 149 60 l 2,38,39
 149 33 149 33 175 33 c 2,40,-1
 205 33 l 2,41,42
 215 33 215 33 223 39.5 c 128,-1,43
 231 46 231 46 231 60 c 2,44,-1
 231 107 l 1,45,-1
 262 107 l 1,46,-1
 262 60 l 2,47,48
 262 34 262 34 244.5 17 c 128,-1,49
 227 0 227 0 207 0 c 2,50,-1
 170 0 l 2,51,52
 153 0 153 0 137 16 c 1,53,54
 129 12 129 12 124 9 c 128,-1,55
 119 6 119 6 114 4 c 256,56,57
 109 2 109 2 104.5 1 c 128,-1,58
 100 0 100 0 95 0 c 2,59,-1
 63 0 l 2,60,61
 42 0 42 0 25.5 16.5 c 128,-1,62
 9 33 9 33 9 60 c 2,63,-1
 9 139 l 2,64,65
 9 166 9 166 25.5 182.5 c 128,-1,66
 42 199 42 199 63 199 c 2,67,-1
 102 199 l 2,68,69
 129 199 129 199 129 225 c 2,70,-1
 129 265 l 2,71,72
 129 291 129 291 102 291 c 2,73,-1
 68 291 l 1,74,-1
 65 291 l 2,75,76
 40 291 40 291 40 265 c 2,77,-1
 40 239 l 1,78,-1
 9 239 l 1,79,-1
 9 264 l 2,80,81
 9 290 9 290 25.5 307 c 128,-1,82
 42 324 42 324 63 324 c 2,83,-1
 66 324 l 1,84,-1
 104 324 l 1,85,-1
 107 324 l 1,86,-1
 112 324 l 2,87,88
 124 324 124 324 127.5 331 c 128,-1,89
 131 338 131 338 131 345 c 2,90,-1
 131 367 l 2,91,92
 131 385 131 385 114 392 c 1,93,-1
 9 392 l 1,94,-1
 9 426 l 1,95,-1
 302 426 l 2,96,97
 323 426 323 426 339.5 409 c 128,-1,98
 356 392 356 392 356 365 c 2,99,-1
 356 234 l 2,100,101
 356 208 356 208 339.5 191 c 128,-1,102
 323 174 323 174 302 174 c 2,0,-1
325 297 m 1,103,-1
 280 297 l 2,104,105
 270 297 270 297 262.5 290 c 128,-1,106
 255 283 255 283 255 269 c 2,107,-1
 255 234 l 2,108,109
 255 220 255 220 262.5 213.5 c 128,-1,110
 270 207 270 207 280 207 c 2,111,-1
 298 207 l 2,112,113
 325 207 325 207 325 234 c 2,114,-1
 325 297 l 1,103,-1
EndSplineSet
EndChar

StartChar: uni0C15
Encoding: 3093 3093 128
Width: 303
GlyphClass: 2
Flags: W
LayerCount: 2
Back
Fore
SplineSet
184 421 m 2,0,1
 174 421 174 421 167 415.5 c 128,-1,2
 160 410 160 410 160 396 c 2,3,-1
 160 323 l 1,4,-1
 181 323 l 2,5,6
 201 323 201 323 218 306.5 c 128,-1,7
 235 290 235 290 235 264 c 2,8,-1
 235 229 l 1,9,-1
 205 229 l 1,10,-1
 205 265 l 2,11,12
 205 279 205 279 197 285 c 128,-1,13
 189 291 189 291 179 291 c 2,14,-1
 65 291 l 2,15,16
 39 291 39 291 39 265 c 2,17,-1
 39 208 l 2,18,19
 39 181 39 181 65 181 c 2,20,-1
 181 181 l 2,21,22
 201 181 201 181 218 165 c 128,-1,23
 235 149 235 149 235 121 c 2,24,-1
 235 60 l 2,25,26
 235 33 235 33 218 16.5 c 128,-1,27
 201 0 201 0 181 0 c 2,28,-1
 63 0 l 2,29,30
 42 0 42 0 25.5 16.5 c 128,-1,31
 9 33 9 33 9 60 c 2,32,-1
 9 93 l 1,33,-1
 39 93 l 1,34,-1
 39 60 l 2,35,36
 39 33 39 33 65 33 c 2,37,-1
 179 33 l 2,38,39
 189 33 189 33 197 39.5 c 128,-1,40
 205 46 205 46 205 60 c 2,41,-1
 205 121 l 2,42,43
 205 134 205 134 197.5 142 c 128,-1,44
 190 150 190 150 179 150 c 2,45,-1
 63 150 l 2,46,47
 42 150 42 150 25.5 166.5 c 128,-1,48
 9 183 9 183 9 209 c 2,49,-1
 9 264 l 2,50,51
 9 274 9 274 11.5 283.5 c 128,-1,52
 14 293 14 293 22 305 c 1,53,54
 14 316 14 316 11.5 328 c 128,-1,55
 9 340 9 340 9 354 c 2,56,-1
 9 378 l 1,57,-1
 40 378 l 1,58,-1
 40 358 l 2,59,60
 40 338 40 338 47 330 c 128,-1,61
 54 322 54 322 68 322 c 2,62,-1
 81 322 l 1,63,-1
 127 324 l 1,64,-1
 128 402 l 2,65,66
 129 424 129 424 144 438 c 128,-1,67
 159 452 159 452 176 452 c 2,68,-1
 237 452 l 1,69,-1
 237 421 l 1,70,-1
 184 421 l 2,0,1
EndSplineSet
Substitution2: "Single Substitution lookup 21 subtable" uni0C15_uni0C4D.abvs
EndChar

StartChar: uni0C16
Encoding: 3094 3094 129
Width: 364
GlyphClass: 2
Flags: W
LayerCount: 2
Back
Fore
SplineSet
236 4 m 2,0,-1
 179 4 l 2,1,2
 162 4 162 4 147 19 c 1,3,4
 133 12 133 12 124 8 c 128,-1,5
 115 4 115 4 104 4 c 2,6,-1
 63 4 l 2,7,8
 41 4 41 4 25 20.5 c 128,-1,9
 9 37 9 37 9 63 c 2,10,-1
 9 152 l 2,11,12
 9 178 9 178 25.5 195 c 128,-1,13
 42 212 42 212 63 212 c 2,14,-1
 104 212 l 2,15,16
 108 212 108 212 111.5 211 c 128,-1,17
 115 210 115 210 128 207 c 1,18,-1
 128 268 l 2,19,20
 128 283 128 283 120 289 c 128,-1,21
 112 295 112 295 102 295 c 2,22,-1
 65 295 l 2,23,24
 40 295 40 295 40 268 c 2,25,-1
 40 251 l 1,26,-1
 9 251 l 1,27,-1
 9 267 l 2,28,29
 9 294 9 294 25.5 311 c 128,-1,30
 42 328 42 328 63 328 c 2,31,-1
 104 328 l 2,32,33
 124 328 124 328 141.5 311 c 128,-1,34
 159 294 159 294 159 267 c 2,35,-1
 159 63 l 2,36,37
 159 49 159 49 166.5 42.5 c 128,-1,38
 174 36 174 36 184 36 c 2,39,-1
 234 36 l 2,40,41
 244 36 244 36 251.5 42.5 c 128,-1,42
 259 49 259 49 259 63 c 2,43,-1
 259 268 l 2,44,45
 259 295 259 295 234 295 c 2,46,-1
 228 295 l 1,47,-1
 228 328 l 1,48,-1
 236 328 l 2,49,50
 256 328 256 328 273.5 311 c 128,-1,51
 291 294 291 294 291 267 c 2,52,-1
 291 63 l 2,53,54
 291 37 291 37 273.5 20.5 c 128,-1,55
 256 4 256 4 236 4 c 2,0,-1
130 -92 m 1,56,-1
 130 -27 l 1,57,58
 134 -25 134 -25 137.5 -22 c 128,-1,59
 141 -19 141 -19 145 -16 c 1,60,61
 152 -23 152 -23 160 -27 c 1,62,-1
 160 -92 l 1,63,-1
 130 -92 l 1,56,-1
128 153 m 2,64,65
 128 167 128 167 120 173 c 128,-1,66
 112 179 112 179 102 179 c 2,67,-1
 65 179 l 2,68,69
 40 179 40 179 40 153 c 2,70,-1
 40 63 l 2,71,72
 40 49 40 49 47.5 42.5 c 128,-1,73
 55 36 55 36 65 36 c 2,74,-1
 102 36 l 2,75,76
 112 36 112 36 120 42.5 c 128,-1,77
 128 49 128 49 128 63 c 2,78,-1
 128 153 l 2,64,65
EndSplineSet
Substitution2: "Single Substitution lookup 21 subtable" uni0C16_uni0C4D.abvs
EndChar

StartChar: uni0C17
Encoding: 3095 3095 130
Width: 306
GlyphClass: 2
Flags: W
LayerCount: 2
Back
Fore
SplineSet
203 421 m 2,0,1
 193 421 193 421 186 415.5 c 128,-1,2
 179 410 179 410 179 396 c 2,3,-1
 177 323 l 1,4,-1
 187 323 l 2,5,6
 207 323 207 323 224 306.5 c 128,-1,7
 241 290 241 290 241 264 c 2,8,-1
 241 0 l 1,9,-1
 211 0 l 1,10,-1
 211 265 l 2,11,12
 211 287 211 287 190 290 c 2,13,-1
 181 290 l 1,14,-1
 77 291 l 1,15,-1
 65 291 l 2,16,17
 39 291 39 291 39 265 c 2,18,-1
 39 0 l 1,19,-1
 9 0 l 1,20,-1
 9 264 l 2,21,22
 9 295 9 295 39 318 c 1,23,24
 32 329 32 329 30 340.5 c 128,-1,25
 28 352 28 352 28 364 c 2,26,-1
 28 378 l 1,27,-1
 59 378 l 1,28,-1
 59 368 l 2,29,30
 59 348 59 348 67 335.5 c 128,-1,31
 75 323 75 323 94 323 c 2,32,-1
 146 323 l 1,33,-1
 147 402 l 2,34,35
 148 424 148 424 163 438 c 128,-1,36
 178 452 178 452 195 452 c 2,37,-1
 246 452 l 1,38,-1
 246 421 l 1,39,-1
 203 421 l 2,0,1
EndSplineSet
Substitution2: "Single Substitution lookup 21 subtable" uni0C17_uni0C4D.abvs
EndChar

StartChar: uni0C18
Encoding: 3096 3096 131
Width: 499
GlyphClass: 2
Flags: W
LayerCount: 2
Back
Fore
SplineSet
166 419 m 2,0,1
 146 419 146 419 146 397 c 2,2,-1
 146 346 l 2,3,4
 146 319 146 319 132.5 304.5 c 128,-1,5
 119 290 119 290 98 290 c 2,6,-1
 10 290 l 1,7,-1
 10 323 l 1,8,-1
 91 323 l 2,9,10
 115 323 115 323 115 346 c 2,11,-1
 115 395 l 2,12,13
 115 423 115 423 129 437.5 c 128,-1,14
 143 452 143 452 163 452 c 2,15,-1
 237 452 l 1,16,-1
 237 419 l 1,17,-1
 166 419 l 2,0,1
377 2 m 2,18,-1
 327 2 l 2,19,20
 318 2 318 2 306.5 7.5 c 128,-1,21
 295 13 295 13 284 25 c 1,22,23
 261 2 261 2 242 2 c 2,24,-1
 191 2 l 2,25,26
 183 2 183 2 173 6.5 c 128,-1,27
 163 11 163 11 152 23 c 1,28,29
 131 2 131 2 116 2 c 2,30,-1
 63 2 l 2,31,32
 42 2 42 2 25.5 19 c 128,-1,33
 9 36 9 36 9 62 c 2,34,-1
 9 164 l 2,35,36
 9 190 9 190 25 205.5 c 128,-1,37
 41 221 41 221 63 221 c 2,38,-1
 112 221 l 2,39,40
 134 221 134 221 150.5 205.5 c 128,-1,41
 167 190 167 190 167 164 c 2,42,-1
 167 62 l 2,43,44
 167 35 167 35 193 35 c 2,45,-1
 240 35 l 2,46,47
 250 35 250 35 257.5 41.5 c 128,-1,48
 265 48 265 48 265 62 c 2,49,-1
 265 265 l 2,50,51
 265 292 265 292 240 292 c 2,52,-1
 234 292 l 1,53,-1
 234 324 l 1,54,-1
 242 324 l 2,55,56
 262 324 262 324 279 308 c 128,-1,57
 296 292 296 292 296 264 c 2,58,-1
 296 79 l 2,59,60
 296 60 296 60 304 47.5 c 128,-1,61
 312 35 312 35 329 35 c 2,62,-1
 375 35 l 2,63,64
 401 35 401 35 401 62 c 2,65,-1
 401 265 l 2,66,67
 401 292 401 292 375 292 c 2,68,-1
 369 292 l 1,69,-1
 369 324 l 1,70,-1
 377 324 l 2,71,72
 398 324 398 324 414.5 308.5 c 128,-1,73
 431 293 431 293 431 264 c 2,74,-1
 431 62 l 2,75,76
 431 36 431 36 414.5 19 c 128,-1,77
 398 2 398 2 377 2 c 2,18,-1
138 -83 m 1,78,-1
 138 -37 l 1,79,80
 145 -35 145 -35 151 -29 c 1,81,82
 153 -31 153 -31 155.5 -32 c 128,-1,83
 158 -33 158 -33 160 -35 c 2,84,-1
 162 -36 l 1,85,-1
 162 -83 l 1,86,-1
 138 -83 l 1,78,-1
137 163 m 2,87,88
 137 190 137 190 110 190 c 2,89,-1
 65 190 l 2,90,91
 40 190 40 190 40 163 c 2,92,-1
 40 62 l 2,93,94
 40 48 40 48 47.5 41.5 c 128,-1,95
 55 35 55 35 65 35 c 2,96,-1
 110 35 l 2,97,98
 137 35 137 35 137 62 c 2,99,-1
 137 163 l 2,87,88
EndSplineSet
Substitution2: "Single Substitution lookup 21 subtable" uni0C18_uni0C4D.abvs
EndChar

StartChar: uni0C19
Encoding: 3097 3097 132
Width: 348
GlyphClass: 2
Flags: W
LayerCount: 2
Back
Fore
SplineSet
159 230 m 1,0,-1
 159 215 l 2,1,2
 159 196 159 196 145 182 c 128,-1,3
 131 168 131 168 112 168 c 2,4,-1
 61 168 l 2,5,6
 50 168 50 168 45 160.5 c 128,-1,7
 40 153 40 153 40 141 c 2,8,-1
 40 57 l 2,9,10
 40 33 40 33 61 33 c 2,11,-1
 103 33 l 2,12,13
 114 33 114 33 121 40 c 128,-1,14
 128 47 128 47 128 56 c 2,15,-1
 128 85 l 1,16,-1
 158 85 l 1,17,-1
 158 56 l 2,18,19
 158 33 158 33 181 33 c 2,20,-1
 226 33 l 2,21,22
 248 33 248 33 248 57 c 2,23,-1
 248 117 l 1,24,-1
 279 117 l 1,25,-1
 279 53 l 2,26,27
 279 29 279 29 264 14.5 c 128,-1,28
 249 0 249 0 231 0 c 2,29,-1
 181 0 l 2,30,31
 179 0 179 0 169.5 2.5 c 128,-1,32
 160 5 160 5 143 19 c 1,33,34
 133 9 133 9 124.5 4.5 c 128,-1,35
 116 0 116 0 102 0 c 2,36,-1
 56 0 l 2,37,38
 38 0 38 0 23.5 14.5 c 128,-1,39
 9 29 9 29 9 53 c 2,40,-1
 9 147 l 2,41,42
 9 170 9 170 23.5 184.5 c 128,-1,43
 38 199 38 199 56 199 c 2,44,-1
 105 199 l 2,45,46
 115 199 115 199 122 206 c 128,-1,47
 129 213 129 213 129 224 c 2,48,-1
 129 271 l 2,49,50
 129 285 129 285 122 290 c 128,-1,51
 115 295 115 295 105 295 c 2,52,-1
 61 295 l 2,53,54
 40 295 40 295 40 271 c 2,55,-1
 40 252 l 1,56,-1
 9 252 l 1,57,-1
 9 275 l 2,58,59
 9 299 9 299 23.5 313.5 c 128,-1,60
 38 328 38 328 56 328 c 2,61,-1
 112 328 l 2,62,63
 129 328 129 328 144 313.5 c 128,-1,64
 159 299 159 299 159 275 c 2,65,-1
 159 263 l 1,66,-1
 214 263 l 1,67,-1
 214 318 l 1,68,-1
 246 318 l 1,69,-1
 246 263 l 1,70,-1
 286 263 l 1,71,-1
 286 230 l 1,72,-1
 159 230 l 1,0,-1
EndSplineSet
Substitution2: "Single Substitution lookup 21 subtable" uni0C19_uni0C4D.abvs
EndChar

StartChar: uni0C1A
Encoding: 3098 3098 133
Width: 388
GlyphClass: 2
Flags: W
LayerCount: 2
Back
Fore
SplineSet
273 0 m 2,0,-1
 223 0 l 1,1,-1
 218 0 l 2,2,3
 210 0 210 0 202.5 4.5 c 128,-1,4
 195 9 195 9 184 18 c 1,5,6
 166 0 166 0 144 0 c 2,7,-1
 96 0 l 2,8,9
 78 0 78 0 63.5 14.5 c 128,-1,10
 49 29 49 29 49 52 c 2,11,-1
 49 168 l 2,12,13
 49 170 49 170 49.5 172.5 c 128,-1,14
 50 175 50 175 53 186 c 1,15,-1
 9 186 l 1,16,-1
 9 217 l 1,17,-1
 111 217 l 1,18,-1
 111 186 l 1,19,-1
 103 186 l 2,20,21
 93 186 93 186 86.5 179 c 128,-1,22
 80 172 80 172 80 162 c 2,23,-1
 80 56 l 2,24,25
 80 33 80 33 103 33 c 2,26,-1
 145 33 l 2,27,28
 159 33 159 33 164 40.5 c 128,-1,29
 169 48 169 48 169 56 c 2,30,-1
 169 94 l 1,31,-1
 200 94 l 1,32,-1
 200 55 l 2,33,34
 200 33 200 33 223 33 c 2,35,-1
 266 33 l 2,36,37
 274 33 274 33 281.5 38 c 128,-1,38
 289 43 289 43 289 57 c 2,39,-1
 289 268 l 2,40,41
 289 291 289 291 266 291 c 2,42,-1
 198 291 l 1,43,-1
 130 291 l 1,44,-1
 112 291 l 2,45,46
 94 291 94 291 76.5 305 c 128,-1,47
 59 319 59 319 59 340 c 2,48,-1
 59 367 l 1,49,-1
 92 367 l 1,50,-1
 92 358 l 2,51,52
 92 323 92 323 124 323 c 2,53,-1
 130 323 l 1,54,-1
 157 323 l 1,55,-1
 158 402 l 2,56,57
 159 424 159 424 174 438 c 128,-1,58
 189 452 189 452 206 452 c 2,59,-1
 320 452 l 1,60,-1
 320 421 l 1,61,-1
 214 421 l 2,62,63
 204 421 204 421 197 415.5 c 128,-1,64
 190 410 190 410 190 396 c 2,65,-1
 190 323 l 1,66,-1
 273 323 l 2,67,68
 291 323 291 323 305.5 309 c 128,-1,69
 320 295 320 295 320 272 c 2,70,-1
 320 52 l 2,71,72
 320 29 320 29 305.5 14.5 c 128,-1,73
 291 0 291 0 273 0 c 2,0,-1
EndSplineSet
Substitution2: "Single Substitution lookup 21 subtable" uni0C1A_uni0C4D.abvs
EndChar

StartChar: uni0C1B
Encoding: 3099 3099 134
Width: 387
GlyphClass: 2
Flags: W
LayerCount: 2
Back
Fore
SplineSet
49 169 m 1,0,-1
 49 172 l 1,1,-1
 53 188 l 1,2,-1
 9 188 l 1,3,-1
 9 219 l 1,4,-1
 111 219 l 1,5,-1
 111 188 l 1,6,-1
 103 188 l 2,7,8
 93 188 93 188 86.5 181 c 128,-1,9
 80 174 80 174 80 164 c 2,10,-1
 80 58 l 2,11,12
 80 35 80 35 103 35 c 2,13,-1
 145 35 l 2,14,15
 159 35 159 35 164 42.5 c 128,-1,16
 169 50 169 50 169 58 c 2,17,-1
 169 96 l 1,18,-1
 200 96 l 1,19,-1
 200 57 l 2,20,21
 200 35 200 35 223 35 c 2,22,-1
 266 35 l 2,23,24
 274 35 274 35 281.5 40 c 128,-1,25
 289 45 289 45 289 59 c 2,26,-1
 289 268 l 2,27,28
 289 292 289 292 266 292 c 2,29,-1
 198 292 l 1,30,-1
 130 292 l 1,31,-1
 112 292 l 2,32,33
 93 292 93 292 76 305.5 c 128,-1,34
 59 319 59 319 59 341 c 2,35,-1
 59 368 l 1,36,-1
 92 368 l 1,37,-1
 92 359 l 2,38,39
 92 324 92 324 124 324 c 2,40,-1
 130 324 l 1,41,-1
 157 324 l 1,42,-1
 158 403 l 2,43,44
 159 424 159 424 174 438 c 128,-1,45
 189 452 189 452 206 452 c 2,46,-1
 320 452 l 1,47,-1
 320 421 l 1,48,-1
 214 421 l 2,49,50
 204 421 204 421 197 416 c 128,-1,51
 190 411 190 411 190 397 c 2,52,-1
 190 324 l 1,53,-1
 273 324 l 2,54,55
 292 324 292 324 306 311 c 128,-1,56
 320 298 320 298 320 272 c 2,57,-1
 320 54 l 2,58,59
 320 32 320 32 305.5 17 c 128,-1,60
 291 2 291 2 273 2 c 2,61,-1
 223 2 l 1,62,-1
 218 2 l 2,63,64
 205 2 205 2 184 20 c 1,65,66
 166 2 166 2 144 2 c 2,67,-1
 96 2 l 2,68,69
 78 2 78 2 63.5 17 c 128,-1,70
 49 32 49 32 49 54 c 2,71,-1
 49 169 l 1,0,-1
168 -84 m 1,72,-1
 168 -38 l 1,73,74
 175 -36 175 -36 181 -30 c 1,75,76
 183 -32 183 -32 185.5 -33 c 128,-1,77
 188 -34 188 -34 190 -36 c 2,78,-1
 192 -37 l 1,79,-1
 192 -84 l 1,80,-1
 168 -84 l 1,72,-1
EndSplineSet
Substitution2: "Single Substitution lookup 21 subtable" uni0C1B_uni0C4D.abvs
EndChar

StartChar: uni0C1C
Encoding: 3100 3100 135
Width: 347
GlyphClass: 2
Flags: W
LayerCount: 2
Back
Fore
SplineSet
231 0 m 2,0,-1
 181 0 l 2,1,2
 179 0 179 0 169.5 2.5 c 128,-1,3
 160 5 160 5 143 19 c 1,4,5
 133 9 133 9 124.5 4.5 c 128,-1,6
 116 0 116 0 102 0 c 2,7,-1
 56 0 l 2,8,9
 38 0 38 0 23.5 14.5 c 128,-1,10
 9 29 9 29 9 53 c 2,11,-1
 9 147 l 2,12,13
 9 170 9 170 23.5 184.5 c 128,-1,14
 38 199 38 199 56 199 c 2,15,-1
 105 199 l 2,16,17
 115 199 115 199 122 206 c 128,-1,18
 129 213 129 213 129 224 c 2,19,-1
 129 271 l 2,20,21
 129 285 129 285 122 290 c 128,-1,22
 115 295 115 295 105 295 c 2,23,-1
 61 295 l 2,24,25
 40 295 40 295 40 271 c 2,26,-1
 40 252 l 1,27,-1
 9 252 l 1,28,-1
 9 275 l 2,29,30
 9 299 9 299 23.5 313.5 c 128,-1,31
 38 328 38 328 56 328 c 2,32,-1
 112 328 l 2,33,34
 129 328 129 328 144 313.5 c 128,-1,35
 159 299 159 299 159 275 c 2,36,-1
 159 226 l 2,37,38
 159 213 159 213 166 207.5 c 128,-1,39
 173 202 173 202 181 202 c 2,40,-1
 224 202 l 2,41,42
 247 202 247 202 247 226 c 2,43,-1
 247 271 l 2,44,45
 247 283 247 283 239.5 289 c 128,-1,46
 232 295 232 295 224 295 c 2,47,-1
 216 295 l 1,48,-1
 216 328 l 1,49,-1
 230 328 l 2,50,51
 248 328 248 328 263 313.5 c 128,-1,52
 278 299 278 299 278 275 c 2,53,-1
 278 223 l 2,54,55
 278 199 278 199 263 184.5 c 128,-1,56
 248 170 248 170 230 170 c 2,57,-1
 182 170 l 1,58,-1
 177 170 l 2,59,60
 169 170 169 170 161.5 174.5 c 128,-1,61
 154 179 154 179 143 187 c 1,62,63
 132 179 132 179 123.5 173.5 c 128,-1,64
 115 168 115 168 102 168 c 2,65,-1
 61 168 l 2,66,67
 50 168 50 168 45 160.5 c 128,-1,68
 40 153 40 153 40 141 c 2,69,-1
 40 57 l 2,70,71
 40 33 40 33 61 33 c 2,72,-1
 103 33 l 2,73,74
 114 33 114 33 121 40 c 128,-1,75
 128 47 128 47 128 56 c 2,76,-1
 128 75 l 1,77,-1
 158 75 l 1,78,-1
 158 56 l 2,79,80
 158 33 158 33 181 33 c 2,81,-1
 226 33 l 2,82,83
 248 33 248 33 248 57 c 2,84,-1
 248 117 l 1,85,-1
 279 117 l 1,86,-1
 279 53 l 2,87,88
 279 29 279 29 264 14.5 c 128,-1,89
 249 0 249 0 231 0 c 2,0,-1
EndSplineSet
Substitution2: "Single Substitution lookup 21 subtable" uni0C1C_uni0C4D.abvs
EndChar

StartChar: uni0C1D
Encoding: 3101 3101 136
Width: 571
GlyphClass: 2
Flags: W
LayerCount: 2
Back
Fore
SplineSet
456 3 m 2,0,-1
 406 3 l 2,1,2
 397 3 397 3 386 8 c 128,-1,3
 375 13 375 13 364 25 c 1,4,5
 342 3 342 3 322 3 c 2,6,-1
 272 3 l 2,7,8
 263 3 263 3 252 8 c 128,-1,9
 241 13 241 13 230 25 c 1,10,11
 216 11 216 11 205 7 c 128,-1,12
 194 3 194 3 189 3 c 2,13,-1
 62 3 l 2,14,15
 42 3 42 3 25.5 19.5 c 128,-1,16
 9 36 9 36 9 62 c 2,17,-1
 9 265 l 2,18,19
 9 280 9 280 15.5 292.5 c 128,-1,20
 22 305 22 305 38 319 c 1,21,22
 31 328 31 328 29 334.5 c 128,-1,23
 27 341 27 341 27 347 c 2,24,-1
 27 378 l 1,25,-1
 57 378 l 1,26,-1
 57 351 l 2,27,28
 57 330 57 330 78 326 c 2,29,-1
 90 324 l 1,30,-1
 134 324 l 1,31,-1
 134 401 l 2,32,33
 134 424 134 424 148 438 c 128,-1,34
 162 452 162 452 181 452 c 2,35,-1
 241 452 l 1,36,-1
 241 419 l 1,37,-1
 187 419 l 2,38,39
 177 419 177 419 170.5 414.5 c 128,-1,40
 164 410 164 410 164 396 c 2,41,-1
 164 324 l 1,42,-1
 187 324 l 2,43,44
 207 324 207 324 224 307.5 c 128,-1,45
 241 291 241 291 241 265 c 2,46,-1
 241 79 l 1,47,48
 246 58 246 58 253 46.5 c 128,-1,49
 260 35 260 35 274 35 c 2,50,-1
 320 35 l 2,51,52
 346 35 346 35 346 62 c 2,53,-1
 346 265 l 2,54,55
 346 292 346 292 320 292 c 2,56,-1
 314 292 l 1,57,-1
 314 324 l 1,58,-1
 322 324 l 2,59,60
 343 324 343 324 359.5 308.5 c 128,-1,61
 376 293 376 293 376 264 c 2,62,-1
 376 71 l 1,63,64
 381 56 381 56 387.5 45.5 c 128,-1,65
 394 35 394 35 408 35 c 2,66,-1
 454 35 l 2,67,68
 464 35 464 35 472 41.5 c 128,-1,69
 480 48 480 48 480 62 c 2,70,-1
 480 265 l 2,71,72
 480 292 480 292 454 292 c 2,73,-1
 448 292 l 1,74,-1
 448 324 l 1,75,-1
 456 324 l 2,76,77
 476 324 476 324 493 308.5 c 128,-1,78
 510 293 510 293 510 264 c 2,79,-1
 510 62 l 2,80,81
 510 36 510 36 493 19.5 c 128,-1,82
 476 3 476 3 456 3 c 2,0,-1
350 -92 m 1,83,-1
 350 -36 l 1,84,85
 357 -34 357 -34 363 -28 c 1,86,-1
 372 -34 l 1,87,-1
 374 -35 l 1,88,-1
 374 -92 l 1,89,-1
 350 -92 l 1,83,-1
210 265 m 2,90,91
 210 279 210 279 202.5 285.5 c 128,-1,92
 195 292 195 292 185 292 c 2,93,-1
 65 292 l 2,94,95
 40 292 40 292 40 265 c 2,96,-1
 40 62 l 2,97,98
 40 35 40 35 65 35 c 2,99,-1
 185 35 l 2,100,101
 195 35 195 35 202.5 41.5 c 128,-1,102
 210 48 210 48 210 62 c 2,103,-1
 210 265 l 2,90,91
EndSplineSet
Substitution2: "Single Substitution lookup 21 subtable" uni0C1D_uni0C4D.abvs
EndChar

StartChar: uni0C1E
Encoding: 3102 3102 137
Width: 463
GlyphClass: 2
Flags: W
LayerCount: 2
Back
Fore
SplineSet
278 229 m 1,0,-1
 278 182 l 1,1,-1
 305 182 l 2,2,3
 325 182 325 182 340 167.5 c 128,-1,4
 355 153 355 153 355 124 c 2,5,-1
 355 -1 l 1,6,-1
 325 -1 l 1,7,-1
 325 120 l 2,8,9
 325 134 325 134 317.5 141.5 c 128,-1,10
 310 149 310 149 299 149 c 2,11,-1
 278 149 l 1,12,-1
 278 60 l 2,13,14
 278 32 278 32 261 15.5 c 128,-1,15
 244 -1 244 -1 224 -1 c 2,16,-1
 62 -1 l 2,17,18
 42 -1 42 -1 25.5 15.5 c 128,-1,19
 9 32 9 32 9 60 c 2,20,-1
 9 120 l 2,21,22
 9 149 9 149 25.5 165.5 c 128,-1,23
 42 182 42 182 62 182 c 2,24,-1
 247 182 l 1,25,-1
 247 267 l 2,26,27
 247 281 247 281 240 288 c 128,-1,28
 233 295 233 295 222 295 c 2,29,-1
 183 295 l 2,30,31
 158 295 158 295 158 267 c 2,32,-1
 158 253 l 1,33,-1
 128 253 l 1,34,-1
 128 267 l 2,35,36
 128 281 128 281 119.5 288 c 128,-1,37
 111 295 111 295 101 295 c 2,38,-1
 65 295 l 2,39,40
 40 295 40 295 40 267 c 2,41,-1
 40 232 l 1,42,-1
 9 232 l 1,43,-1
 9 267 l 2,44,45
 9 295 9 295 25.5 311.5 c 128,-1,46
 42 328 42 328 62 328 c 2,47,-1
 103 328 l 2,48,49
 113 328 113 328 123 321.5 c 128,-1,50
 133 315 133 315 144 298 c 1,51,52
 152 318 152 318 157.5 323 c 128,-1,53
 163 328 163 328 171 328 c 2,54,-1
 224 328 l 2,55,56
 243 328 243 328 259.5 311.5 c 128,-1,57
 276 295 276 295 278 262 c 1,58,-1
 339 262 l 1,59,-1
 339 318 l 1,60,-1
 371 318 l 1,61,-1
 371 262 l 1,62,-1
 410 262 l 1,63,-1
 410 229 l 1,64,-1
 278 229 l 1,0,-1
247 149 m 1,65,-1
 65 149 l 2,66,67
 54 149 54 149 47 141.5 c 128,-1,68
 40 134 40 134 40 120 c 2,69,-1
 40 60 l 2,70,71
 40 46 40 46 47.5 39 c 128,-1,72
 55 32 55 32 65 32 c 2,73,-1
 223 32 l 2,74,75
 247 32 247 32 247 60 c 2,76,-1
 247 149 l 1,65,-1
EndSplineSet
Substitution2: "Single Substitution lookup 21 subtable" uni0C1E_uni0C4D.abvs
EndChar

StartChar: uni0C1F
Encoding: 3103 3103 138
Width: 364
GlyphClass: 2
Flags: W
LayerCount: 2
Back
Fore
SplineSet
247 0 m 2,0,-1
 187 0 l 2,1,2
 170 0 170 0 155 15 c 1,3,4
 147 7 147 7 139.5 3.5 c 128,-1,5
 132 0 132 0 127 0 c 2,6,-1
 63 0 l 2,7,8
 42 0 42 0 25.5 17 c 128,-1,9
 9 34 9 34 9 61 c 2,10,-1
 9 266 l 2,11,12
 9 292 9 292 26 309 c 128,-1,13
 43 326 43 326 69 327 c 1,14,-1
 69 391 l 1,15,-1
 100 391 l 1,16,-1
 100 327 l 1,17,18
 126 325 126 325 142.5 308.5 c 128,-1,19
 159 292 159 292 159 266 c 2,20,-1
 159 206 l 2,21,22
 159 180 159 180 142 162.5 c 128,-1,23
 125 145 125 145 104 145 c 2,24,-1
 40 145 l 1,25,-1
 40 61 l 2,26,27
 40 47 40 47 47.5 40 c 128,-1,28
 55 33 55 33 65 33 c 2,29,-1
 112 33 l 2,30,31
 139 33 139 33 139 61 c 2,32,-1
 139 94 l 1,33,-1
 169 94 l 1,34,-1
 169 61 l 2,35,36
 169 33 169 33 195 33 c 2,37,-1
 245 33 l 2,38,39
 255 33 255 33 263 40 c 128,-1,40
 271 47 271 47 271 61 c 2,41,-1
 271 267 l 2,42,43
 271 294 271 294 245 294 c 2,44,-1
 240 294 l 1,45,-1
 240 327 l 1,46,-1
 247 327 l 2,47,48
 267 327 267 327 284.5 310.5 c 128,-1,49
 302 294 302 294 302 266 c 2,50,-1
 302 61 l 2,51,52
 302 34 302 34 284.5 17 c 128,-1,53
 267 0 267 0 247 0 c 2,0,-1
129 267 m 2,54,55
 129 294 129 294 102 294 c 2,56,-1
 65 294 l 2,57,58
 40 294 40 294 40 267 c 2,59,-1
 40 177 l 1,60,-1
 102 177 l 2,61,62
 129 177 129 177 129 205 c 2,63,-1
 129 267 l 2,54,55
EndSplineSet
Substitution2: "Single Substitution lookup 21 subtable" uni0C1F_uni0C4D.abvs
EndChar

StartChar: uni0C20
Encoding: 3104 3104 139
Width: 312
GlyphClass: 2
Flags: W
LayerCount: 2
Back
Fore
SplineSet
189 0 m 2,0,-1
 62 0 l 2,1,2
 42 0 42 0 25.5 16.5 c 128,-1,3
 9 33 9 33 9 60 c 2,4,-1
 9 265 l 2,5,6
 9 280 9 280 15.5 292.5 c 128,-1,7
 22 305 22 305 38 318 c 1,8,9
 31 327 31 327 29 333.5 c 128,-1,10
 27 340 27 340 27 346 c 2,11,-1
 27 378 l 1,12,-1
 57 378 l 1,13,-1
 57 350 l 2,14,15
 57 329 57 329 78 326 c 2,16,-1
 90 323 l 1,17,-1
 134 323 l 1,18,-1
 134 400 l 2,19,20
 134 424 134 424 148 438 c 128,-1,21
 162 452 162 452 181 452 c 2,22,-1
 241 452 l 1,23,-1
 241 419 l 1,24,-1
 187 419 l 2,25,26
 177 419 177 419 170.5 414 c 128,-1,27
 164 409 164 409 164 395 c 2,28,-1
 164 323 l 1,29,-1
 187 323 l 2,30,31
 207 323 207 323 224 306.5 c 128,-1,32
 241 290 241 290 241 265 c 2,33,-1
 241 60 l 2,34,35
 241 42 241 42 234.5 30.5 c 128,-1,36
 228 19 228 19 219.5 12 c 128,-1,37
 211 5 211 5 202 2.5 c 128,-1,38
 193 0 193 0 189 0 c 2,0,-1
210 265 m 2,39,40
 210 279 210 279 202.5 285 c 128,-1,41
 195 291 195 291 185 291 c 2,42,-1
 65 291 l 2,43,44
 40 291 40 291 40 265 c 2,45,-1
 40 60 l 2,46,47
 40 33 40 33 65 33 c 2,48,-1
 185 33 l 2,49,50
 195 33 195 33 202.5 39.5 c 128,-1,51
 210 46 210 46 210 60 c 2,52,-1
 210 265 l 2,39,40
114 141 m 1,53,-1
 114 173 l 1,54,-1
 138 173 l 1,55,-1
 138 141 l 1,56,-1
 114 141 l 1,53,-1
EndSplineSet
Substitution2: "Single Substitution lookup 21 subtable" uni0C20_uni0C4D.abvs
EndChar

StartChar: uni0C21
Encoding: 3105 3105 140
Width: 353
GlyphClass: 2
Flags: W
LayerCount: 2
Back
Fore
SplineSet
250 0 m 2,0,-1
 192 0 l 1,1,-1
 188 0 l 2,2,3
 180 0 180 0 175 2.5 c 128,-1,4
 170 5 170 5 165 10 c 0,5,6
 163 12 163 12 161 13.5 c 128,-1,7
 159 15 159 15 154 19 c 1,8,9
 135 0 135 0 113 0 c 2,10,-1
 55 0 l 2,11,12
 38 0 38 0 23.5 14.5 c 128,-1,13
 9 29 9 29 9 52 c 2,14,-1
 9 272 l 2,15,16
 9 292 9 292 27 314 c 1,17,18
 16 323 16 323 12.5 329.5 c 128,-1,19
 9 336 9 336 9 346 c 2,20,-1
 9 398 l 1,21,-1
 39 398 l 1,22,-1
 39 351 l 2,23,24
 39 329 39 329 60 326 c 2,25,-1
 72 324 l 1,26,-1
 136 324 l 1,27,-1
 136 395 l 2,28,29
 136 419 136 419 150 433 c 128,-1,30
 164 447 164 447 183 447 c 2,31,-1
 293 447 l 1,32,-1
 293 416 l 1,33,-1
 189 416 l 2,34,35
 179 416 179 416 172.5 411 c 128,-1,36
 166 406 166 406 166 392 c 2,37,-1
 166 324 l 1,38,-1
 240 324 l 2,39,40
 259 324 259 324 273.5 309.5 c 128,-1,41
 288 295 288 295 288 272 c 2,42,-1
 288 250 l 1,43,-1
 257 250 l 1,44,-1
 257 268 l 2,45,46
 257 291 257 291 236 291 c 2,47,-1
 61 291 l 2,48,49
 40 291 40 291 40 268 c 2,50,-1
 40 57 l 2,51,52
 40 33 40 33 61 33 c 2,53,-1
 114 33 l 2,54,55
 125 33 125 33 132 40 c 128,-1,56
 139 47 139 47 139 56 c 2,57,-1
 139 94 l 1,58,-1
 169 94 l 1,59,-1
 169 57 l 2,60,61
 169 46 169 46 174.5 39.5 c 128,-1,62
 180 33 180 33 191 33 c 2,63,-1
 246 33 l 2,64,65
 267 33 267 33 267 58 c 2,66,-1
 267 140 l 2,67,68
 267 165 267 165 246 165 c 2,69,-1
 219 165 l 1,70,-1
 219 198 l 1,71,-1
 250 198 l 2,72,73
 269 198 269 198 283.5 184 c 128,-1,74
 298 170 298 170 298 146 c 2,75,-1
 298 54 l 2,76,77
 298 30 298 30 283 15 c 128,-1,78
 268 0 268 0 250 0 c 2,0,-1
EndSplineSet
Substitution2: "Single Substitution lookup 21 subtable" uni0C21_uni0C4D.abvs
EndChar

StartChar: uni0C22
Encoding: 3106 3106 141
Width: 353
GlyphClass: 2
Flags: W
LayerCount: 2
Back
Fore
SplineSet
250 3 m 2,0,-1
 192 3 l 1,1,-1
 188 3 l 2,2,3
 175 3 175 3 165 12 c 0,4,5
 163 14 163 14 161 16 c 128,-1,6
 159 18 159 18 154 21 c 1,7,8
 136 3 136 3 113 3 c 2,9,-1
 55 3 l 2,10,11
 38 3 38 3 23.5 17.5 c 128,-1,12
 9 32 9 32 9 54 c 2,13,-1
 9 273 l 2,14,15
 9 293 9 293 27 315 c 1,16,17
 16 323 16 323 12.5 329.5 c 128,-1,18
 9 336 9 336 9 347 c 2,19,-1
 9 398 l 1,20,-1
 39 398 l 1,21,-1
 39 352 l 2,22,23
 39 330 39 330 60 326 c 2,24,-1
 72 324 l 1,25,-1
 136 324 l 1,26,-1
 136 396 l 2,27,28
 136 419 136 419 150 433 c 128,-1,29
 164 447 164 447 183 447 c 2,30,-1
 293 447 l 1,31,-1
 293 416 l 1,32,-1
 189 416 l 2,33,34
 179 416 179 416 172.5 411.5 c 128,-1,35
 166 407 166 407 166 393 c 2,36,-1
 166 324 l 1,37,-1
 240 324 l 2,38,39
 259 324 259 324 273.5 311 c 128,-1,40
 288 298 288 298 288 273 c 2,41,-1
 288 252 l 1,42,-1
 257 252 l 1,43,-1
 257 269 l 2,44,45
 257 292 257 292 236 292 c 2,46,-1
 61 292 l 2,47,48
 40 292 40 292 40 269 c 2,49,-1
 40 59 l 2,50,51
 40 35 40 35 61 35 c 2,52,-1
 114 35 l 2,53,54
 125 35 125 35 132 42 c 128,-1,55
 139 49 139 49 139 58 c 2,56,-1
 139 96 l 1,57,-1
 169 96 l 1,58,-1
 169 59 l 2,59,60
 169 51 169 51 174.5 43 c 128,-1,61
 180 35 180 35 191 35 c 2,62,-1
 246 35 l 2,63,64
 267 35 267 35 267 60 c 2,65,-1
 267 142 l 2,66,67
 267 167 267 167 246 167 c 2,68,-1
 219 167 l 1,69,-1
 219 199 l 1,70,-1
 250 199 l 2,71,72
 269 199 269 199 283.5 185.5 c 128,-1,73
 298 172 298 172 298 149 c 2,74,-1
 298 56 l 2,75,76
 298 33 298 33 283 18 c 128,-1,77
 268 3 268 3 250 3 c 2,0,-1
139 -95 m 1,78,-1
 139 -39 l 1,79,80
 146 -37 146 -37 152 -31 c 1,81,-1
 161 -37 l 1,82,-1
 163 -38 l 1,83,-1
 163 -95 l 1,84,-1
 139 -95 l 1,78,-1
EndSplineSet
Substitution2: "Single Substitution lookup 21 subtable" uni0C22_uni0C4D.abvs
EndChar

StartChar: uni0C23
Encoding: 3107 3107 142
Width: 363
GlyphClass: 2
Flags: W
LayerCount: 2
Back
Fore
SplineSet
244 0 m 2,0,-1
 191 0 l 2,1,2
 171 0 171 0 154.5 16.5 c 128,-1,3
 138 33 138 33 138 61 c 2,4,-1
 138 119 l 2,5,6
 138 147 138 147 154.5 163 c 128,-1,7
 171 179 171 179 191 179 c 2,8,-1
 248 179 l 1,9,-1
 250 179 l 2,10,11
 252 179 252 179 254 178 c 0,12,13
 256 178 256 178 258 177.5 c 128,-1,14
 260 177 260 177 268 176 c 1,15,-1
 268 268 l 2,16,17
 268 295 268 295 242 295 c 2,18,-1
 193 295 l 2,19,20
 183 295 183 295 175.5 288.5 c 128,-1,21
 168 282 168 282 168 268 c 2,22,-1
 168 252 l 1,23,-1
 138 252 l 1,24,-1
 138 268 l 2,25,26
 138 283 138 283 129.5 289 c 128,-1,27
 121 295 121 295 111 295 c 2,28,-1
 65 295 l 2,29,30
 40 295 40 295 40 268 c 2,31,-1
 40 206 l 2,32,33
 40 179 40 179 65 179 c 2,34,-1
 80 179 l 1,35,-1
 80 147 l 1,36,-1
 65 147 l 2,37,38
 40 147 40 147 40 120 c 2,39,-1
 40 61 l 2,40,41
 40 47 40 47 47.5 40 c 128,-1,42
 55 33 55 33 65 33 c 2,43,-1
 80 33 l 1,44,-1
 80 0 l 1,45,-1
 63 0 l 2,46,47
 42 0 42 0 25.5 16.5 c 128,-1,48
 9 33 9 33 9 61 c 2,49,-1
 9 120 l 2,50,51
 9 137 9 137 13 145.5 c 128,-1,52
 17 154 17 154 28 166 c 1,53,54
 16 174 16 174 12.5 181 c 128,-1,55
 9 188 9 188 9 202 c 2,56,-1
 9 267 l 2,57,58
 9 295 9 295 25.5 311.5 c 128,-1,59
 42 328 42 328 63 328 c 2,60,-1
 114 328 l 2,61,62
 131 328 131 328 135 324 c 0,63,64
 139 322 139 322 140 321 c 0,65,66
 142 319 142 319 144.5 317 c 128,-1,67
 147 315 147 315 155 309 c 1,68,69
 163 320 163 320 169 324 c 128,-1,70
 175 328 175 328 183 328 c 2,71,-1
 244 328 l 2,72,73
 265 328 265 328 282 311.5 c 128,-1,74
 299 295 299 295 299 267 c 2,75,-1
 299 61 l 2,76,77
 299 33 299 33 282 16.5 c 128,-1,78
 265 0 265 0 244 0 c 2,0,-1
268 126 m 1,79,80
 260 147 260 147 241 147 c 2,81,-1
 193 147 l 2,82,83
 183 147 183 147 175.5 140.5 c 128,-1,84
 168 134 168 134 168 120 c 2,85,-1
 168 61 l 2,86,87
 168 47 168 47 175.5 40 c 128,-1,88
 183 33 183 33 193 33 c 2,89,-1
 242 33 l 2,90,91
 252 33 252 33 260 40 c 128,-1,92
 268 47 268 47 268 61 c 2,93,-1
 268 126 l 1,79,80
EndSplineSet
Substitution2: "Single Substitution lookup 21 subtable" uni0C23_uni0C4D.abvs
EndChar

StartChar: uni0C24
Encoding: 3108 3108 143
Width: 365
GlyphClass: 2
Flags: W
LayerCount: 2
Back
Fore
SplineSet
256 0 m 2,0,-1
 63 0 l 2,1,2
 42 0 42 0 25.5 16.5 c 128,-1,3
 9 33 9 33 9 60 c 2,4,-1
 9 169 l 2,5,6
 9 195 9 195 21 211.5 c 128,-1,7
 33 228 33 228 54 228 c 2,8,-1
 91 228 l 2,9,10
 111 228 111 228 128 211.5 c 128,-1,11
 145 195 145 195 145 169 c 2,12,-1
 145 151 l 2,13,14
 145 122 145 122 128 106.5 c 128,-1,15
 111 91 111 91 91 91 c 2,16,-1
 40 91 l 1,17,-1
 40 60 l 2,18,19
 40 46 40 46 47.5 39.5 c 128,-1,20
 55 33 55 33 65 33 c 2,21,-1
 254 33 l 2,22,23
 264 33 264 33 272 39.5 c 128,-1,24
 280 46 280 46 280 60 c 2,25,-1
 280 91 l 1,26,-1
 228 91 l 2,27,28
 208 91 208 91 191 108 c 128,-1,29
 174 125 174 125 174 152 c 2,30,-1
 174 169 l 2,31,32
 174 195 174 195 191 211.5 c 128,-1,33
 208 228 208 228 228 228 c 2,34,-1
 255 228 l 2,35,36
 259 229 259 229 260.5 235 c 128,-1,37
 262 241 262 241 262 242 c 2,38,-1
 262 265 l 2,39,40
 262 276 262 276 259 283.5 c 128,-1,41
 256 291 256 291 242 291 c 2,42,-1
 59 291 l 1,43,-1
 59 323 l 1,44,-1
 145 323 l 1,45,-1
 145 400 l 2,46,47
 145 422 145 422 159 435.5 c 128,-1,48
 173 449 173 449 190 449 c 2,49,-1
 309 449 l 1,50,-1
 309 418 l 1,51,-1
 197 418 l 2,52,53
 189 418 189 418 182 412.5 c 128,-1,54
 175 407 175 407 175 395 c 2,55,-1
 175 323 l 1,56,-1
 241 323 l 2,57,58
 264 323 264 323 278 311 c 128,-1,59
 292 299 292 299 292 270 c 2,60,-1
 292 237 l 2,61,62
 292 228 292 228 286 218 c 1,63,64
 311 194 311 194 311 168 c 2,65,-1
 311 60 l 2,66,67
 311 33 311 33 293.5 16.5 c 128,-1,68
 276 0 276 0 256 0 c 2,0,-1
280 168 m 2,69,70
 280 182 280 182 272 188.5 c 128,-1,71
 264 195 264 195 254 195 c 2,72,-1
 230 195 l 2,73,74
 220 195 220 195 213 188.5 c 128,-1,75
 206 182 206 182 206 168 c 2,76,-1
 206 151 l 2,77,78
 206 137 206 137 212.5 129.5 c 128,-1,79
 219 122 219 122 230 122 c 2,80,-1
 280 122 l 1,81,-1
 280 168 l 2,69,70
114 168 m 2,82,83
 114 182 114 182 106 188.5 c 128,-1,84
 98 195 98 195 88 195 c 2,85,-1
 56 195 l 2,86,87
 43 195 43 195 41 183 c 0,88,89
 40 179 40 179 40 175 c 128,-1,90
 40 171 40 171 40 168 c 2,91,-1
 40 122 l 1,92,-1
 88 122 l 2,93,94
 98 122 98 122 106 129.5 c 128,-1,95
 114 137 114 137 114 151 c 2,96,-1
 114 168 l 2,82,83
EndSplineSet
Substitution2: "Single Substitution lookup 21 subtable" uni0C24_uni0C4D.abvs
EndChar

StartChar: uni0C25
Encoding: 3109 3109 144
Width: 367
GlyphClass: 2
Flags: W
LayerCount: 2
Back
Fore
SplineSet
241 420 m 2,0,1
 231 420 231 420 224.5 415.5 c 128,-1,2
 218 411 218 411 218 397 c 2,3,-1
 216 324 l 1,4,-1
 252 324 l 2,5,6
 271 324 271 324 285.5 311 c 128,-1,7
 300 298 300 298 300 273 c 2,8,-1
 300 54 l 2,9,10
 300 31 300 31 285.5 17 c 128,-1,11
 271 3 271 3 252 3 c 2,12,-1
 179 3 l 2,13,14
 175 3 175 3 170 6 c 128,-1,15
 165 9 165 9 154 21 c 1,16,17
 143 10 143 10 134 6.5 c 128,-1,18
 125 3 125 3 114 3 c 2,19,-1
 55 3 l 2,20,21
 37 3 37 3 23 17 c 128,-1,22
 9 31 9 31 9 54 c 2,23,-1
 9 273 l 2,24,25
 9 293 9 293 21 306 c 128,-1,26
 33 319 33 319 53 325 c 1,27,28
 51 335 51 335 50.5 339.5 c 128,-1,29
 50 344 50 344 50 346 c 2,30,-1
 50 397 l 1,31,-1
 80 397 l 1,32,-1
 80 350 l 2,33,34
 80 336 80 336 89 331 c 128,-1,35
 98 326 98 326 107 324 c 2,36,-1
 186 324 l 1,37,-1
 187 401 l 2,38,39
 188 424 188 424 202 437.5 c 128,-1,40
 216 451 216 451 235 451 c 2,41,-1
 301 451 l 1,42,-1
 301 420 l 1,43,-1
 241 420 l 2,0,1
139 -96 m 1,44,-1
 139 -40 l 1,45,46
 146 -38 146 -38 152 -32 c 1,47,-1
 161 -38 l 1,48,-1
 163 -39 l 1,49,-1
 163 -96 l 1,50,-1
 139 -96 l 1,44,-1
269 267 m 2,51,52
 269 292 269 292 246 292 c 2,53,-1
 60 292 l 2,54,55
 40 292 40 292 40 266 c 2,56,-1
 40 57 l 2,57,58
 40 35 40 35 60 35 c 2,59,-1
 115 35 l 2,60,61
 139 35 139 35 139 57 c 2,62,-1
 139 96 l 1,63,-1
 169 96 l 1,64,-1
 169 57 l 2,65,66
 169 35 169 35 191 35 c 2,67,-1
 246 35 l 2,68,69
 269 35 269 35 269 57 c 2,70,-1
 269 267 l 2,51,52
138 164 m 1,71,-1
 138 207 l 1,72,-1
 171 207 l 1,73,-1
 171 164 l 1,74,-1
 138 164 l 1,71,-1
EndSplineSet
Substitution2: "Single Substitution lookup 21 subtable" uni0C25_uni0C4D.abvs
EndChar

StartChar: uni0C26
Encoding: 3110 3110 145
Width: 367
GlyphClass: 2
Flags: W
LayerCount: 2
Back
Fore
SplineSet
241 420 m 2,0,1
 231 420 231 420 224.5 415 c 128,-1,2
 218 410 218 410 218 396 c 2,3,-1
 216 323 l 1,4,-1
 252 323 l 2,5,6
 271 323 271 323 285.5 310 c 128,-1,7
 300 297 300 297 300 272 c 2,8,-1
 300 53 l 2,9,10
 300 29 300 29 285.5 15 c 128,-1,11
 271 1 271 1 252 1 c 2,12,-1
 179 1 l 2,13,14
 175 1 175 1 170 4.5 c 128,-1,15
 165 8 165 8 154 19 c 1,16,17
 135 1 135 1 114 1 c 2,18,-1
 55 1 l 2,19,20
 37 1 37 1 23 15 c 128,-1,21
 9 29 9 29 9 53 c 2,22,-1
 9 272 l 2,23,24
 9 292 9 292 21 305.5 c 128,-1,25
 33 319 33 319 53 325 c 1,26,27
 51 334 51 334 50.5 338.5 c 128,-1,28
 50 343 50 343 50 345 c 2,29,-1
 50 397 l 1,30,-1
 80 397 l 1,31,-1
 80 349 l 2,32,33
 80 335 80 335 89 330 c 128,-1,34
 98 325 98 325 107 323 c 2,35,-1
 186 323 l 1,36,-1
 187 400 l 2,37,38
 188 424 188 424 202 437.5 c 128,-1,39
 216 451 216 451 235 451 c 2,40,-1
 301 451 l 1,41,-1
 301 420 l 1,42,-1
 241 420 l 2,0,1
269 267 m 2,43,44
 269 292 269 292 246 292 c 2,45,-1
 60 292 l 2,46,47
 49 292 49 292 44.5 284.5 c 128,-1,48
 40 277 40 277 40 266 c 2,49,-1
 40 56 l 2,50,51
 40 34 40 34 60 34 c 2,52,-1
 115 34 l 2,53,54
 139 34 139 34 139 56 c 2,55,-1
 139 95 l 1,56,-1
 169 95 l 1,57,-1
 169 56 l 2,58,59
 169 34 169 34 191 34 c 2,60,-1
 246 34 l 2,61,62
 269 34 269 34 269 56 c 2,63,-1
 269 267 l 2,43,44
EndSplineSet
Substitution2: "Single Substitution lookup 21 subtable" uni0C26_uni0C4D.abvs
EndChar

StartChar: uni0C27
Encoding: 3111 3111 146
Width: 367
GlyphClass: 2
Flags: W
LayerCount: 2
Back
Fore
SplineSet
241 420 m 2,0,1
 231 420 231 420 224.5 415.5 c 128,-1,2
 218 411 218 411 218 397 c 2,3,-1
 216 324 l 1,4,-1
 252 324 l 2,5,6
 271 324 271 324 285.5 311 c 128,-1,7
 300 298 300 298 300 273 c 2,8,-1
 300 54 l 2,9,10
 300 31 300 31 285.5 17 c 128,-1,11
 271 3 271 3 252 3 c 2,12,-1
 179 3 l 2,13,14
 175 3 175 3 170 6 c 128,-1,15
 165 9 165 9 154 21 c 1,16,17
 143 10 143 10 134 6.5 c 128,-1,18
 125 3 125 3 114 3 c 2,19,-1
 55 3 l 2,20,21
 37 3 37 3 23 17 c 128,-1,22
 9 31 9 31 9 54 c 2,23,-1
 9 273 l 2,24,25
 9 293 9 293 21 306 c 128,-1,26
 33 319 33 319 53 325 c 1,27,28
 51 335 51 335 50.5 339.5 c 128,-1,29
 50 344 50 344 50 346 c 2,30,-1
 50 397 l 1,31,-1
 80 397 l 1,32,-1
 80 350 l 2,33,34
 80 336 80 336 89 331 c 128,-1,35
 98 326 98 326 107 324 c 2,36,-1
 186 324 l 1,37,-1
 187 401 l 2,38,39
 188 424 188 424 202 437.5 c 128,-1,40
 216 451 216 451 235 451 c 2,41,-1
 301 451 l 1,42,-1
 301 420 l 1,43,-1
 241 420 l 2,0,1
139 -96 m 1,44,-1
 139 -40 l 1,45,46
 146 -38 146 -38 152 -32 c 1,47,-1
 161 -38 l 1,48,-1
 163 -39 l 1,49,-1
 163 -96 l 1,50,-1
 139 -96 l 1,44,-1
269 267 m 2,51,52
 269 292 269 292 246 292 c 2,53,-1
 60 292 l 2,54,55
 40 292 40 292 40 266 c 2,56,-1
 40 57 l 2,57,58
 40 35 40 35 60 35 c 2,59,-1
 115 35 l 2,60,61
 139 35 139 35 139 57 c 2,62,-1
 139 96 l 1,63,-1
 169 96 l 1,64,-1
 169 57 l 2,65,66
 169 35 169 35 191 35 c 2,67,-1
 246 35 l 2,68,69
 269 35 269 35 269 57 c 2,70,-1
 269 267 l 2,51,52
EndSplineSet
Substitution2: "Single Substitution lookup 21 subtable" uni0C27_uni0C4D.abvs
EndChar

StartChar: uni0C28
Encoding: 3112 3112 147
Width: 364
GlyphClass: 2
Flags: W
LayerCount: 2
Back
Fore
SplineSet
244 0 m 2,0,-1
 192 0 l 2,1,2
 172 0 172 0 155 16.5 c 128,-1,3
 138 33 138 33 138 60 c 2,4,-1
 138 150 l 2,5,6
 138 164 138 164 130 170 c 128,-1,7
 122 176 122 176 112 178 c 2,8,-1
 65 178 l 2,9,10
 40 178 40 178 40 150 c 2,11,-1
 40 0 l 1,12,-1
 9 0 l 1,13,-1
 9 151 l 2,14,15
 9 178 9 178 25 193.5 c 128,-1,16
 41 209 41 209 63 209 c 2,17,-1
 114 209 l 2,18,19
 134 209 134 209 151.5 193.5 c 128,-1,20
 169 178 169 178 169 151 c 2,21,-1
 169 60 l 2,22,23
 169 46 169 46 176.5 39.5 c 128,-1,24
 184 33 184 33 194 33 c 2,25,-1
 242 33 l 2,26,27
 252 33 252 33 259.5 39.5 c 128,-1,28
 267 46 267 46 267 60 c 2,29,-1
 267 265 l 2,30,31
 267 279 267 279 259.5 285 c 128,-1,32
 252 291 252 291 242 291 c 2,33,-1
 43 291 l 1,34,-1
 43 323 l 1,35,-1
 125 323 l 1,36,-1
 125 406 l 2,37,38
 125 428 125 428 139 441.5 c 128,-1,39
 153 455 153 455 170 455 c 2,40,-1
 298 455 l 1,41,-1
 298 424 l 1,42,-1
 177 424 l 2,43,44
 169 424 169 424 162 418.5 c 128,-1,45
 155 413 155 413 155 401 c 2,46,-1
 155 323 l 1,47,-1
 244 323 l 2,48,49
 264 323 264 323 281 306.5 c 128,-1,50
 298 290 298 290 298 265 c 2,51,-1
 298 60 l 2,52,53
 298 31 298 31 281 15.5 c 128,-1,54
 264 0 264 0 244 0 c 2,0,-1
EndSplineSet
Substitution2: "Single Substitution lookup 21 subtable" uni0C28_uni0C4D.abvs
EndChar

StartChar: uni0C2A
Encoding: 3114 3114 148
Width: 360
GlyphClass: 2
Flags: W
LayerCount: 2
Back
Fore
SplineSet
166 419 m 2,0,1
 146 419 146 419 146 396 c 2,2,-1
 146 345 l 2,3,4
 146 317 146 317 132.5 303.5 c 128,-1,5
 119 290 119 290 98 290 c 2,6,-1
 10 290 l 1,7,-1
 10 322 l 1,8,-1
 91 322 l 2,9,10
 115 322 115 322 115 345 c 2,11,-1
 115 394 l 2,12,13
 115 423 115 423 129 437.5 c 128,-1,14
 143 452 143 452 163 452 c 2,15,-1
 237 452 l 1,16,-1
 237 419 l 1,17,-1
 166 419 l 2,0,1
242 0 m 2,18,-1
 191 0 l 2,19,20
 183 0 183 0 173 4.5 c 128,-1,21
 163 9 163 9 152 20 c 1,22,23
 132 0 132 0 116 0 c 2,24,-1
 63 0 l 2,25,26
 42 0 42 0 25.5 16.5 c 128,-1,27
 9 33 9 33 9 60 c 2,28,-1
 9 162 l 2,29,30
 9 188 9 188 25 203.5 c 128,-1,31
 41 219 41 219 63 219 c 2,32,-1
 112 219 l 2,33,34
 134 219 134 219 150.5 203.5 c 128,-1,35
 167 188 167 188 167 162 c 2,36,-1
 167 60 l 2,37,38
 167 33 167 33 193 33 c 2,39,-1
 240 33 l 2,40,41
 250 33 250 33 257.5 39.5 c 128,-1,42
 265 46 265 46 265 60 c 2,43,-1
 265 265 l 2,44,45
 265 291 265 291 240 291 c 2,46,-1
 234 291 l 1,47,-1
 234 323 l 1,48,-1
 242 323 l 2,49,50
 262 323 262 323 279 306.5 c 128,-1,51
 296 290 296 290 296 264 c 2,52,-1
 296 60 l 2,53,54
 296 33 296 33 279 16.5 c 128,-1,55
 262 0 262 0 242 0 c 2,18,-1
137 161 m 2,56,57
 137 188 137 188 110 188 c 2,58,-1
 65 188 l 2,59,60
 40 188 40 188 40 161 c 2,61,-1
 40 60 l 2,62,63
 40 46 40 46 47.5 39.5 c 128,-1,64
 55 33 55 33 65 33 c 2,65,-1
 110 33 l 2,66,67
 137 33 137 33 137 60 c 2,68,-1
 137 161 l 2,56,57
EndSplineSet
Substitution2: "Single Substitution lookup 21 subtable" uni0C2A_uni0C4D.abvs
EndChar

StartChar: uni0C2B
Encoding: 3115 3115 149
Width: 360
GlyphClass: 2
Flags: W
LayerCount: 2
Back
Fore
SplineSet
166 419 m 2,0,1
 146 419 146 419 146 397 c 2,2,-1
 146 346 l 2,3,4
 146 319 146 319 132.5 304.5 c 128,-1,5
 119 290 119 290 98 290 c 2,6,-1
 10 290 l 1,7,-1
 10 323 l 1,8,-1
 91 323 l 2,9,10
 115 323 115 323 115 346 c 2,11,-1
 115 395 l 2,12,13
 115 423 115 423 129 437.5 c 128,-1,14
 143 452 143 452 163 452 c 2,15,-1
 237 452 l 1,16,-1
 237 419 l 1,17,-1
 166 419 l 2,0,1
242 2 m 2,18,-1
 191 2 l 2,19,20
 183 2 183 2 173 6.5 c 128,-1,21
 163 11 163 11 152 23 c 1,22,23
 131 2 131 2 116 2 c 2,24,-1
 63 2 l 2,25,26
 42 2 42 2 25.5 19 c 128,-1,27
 9 36 9 36 9 62 c 2,28,-1
 9 164 l 2,29,30
 9 190 9 190 25 205.5 c 128,-1,31
 41 221 41 221 63 221 c 2,32,-1
 112 221 l 2,33,34
 134 221 134 221 150.5 205.5 c 128,-1,35
 167 190 167 190 167 164 c 2,36,-1
 167 62 l 2,37,38
 167 35 167 35 193 35 c 2,39,-1
 240 35 l 2,40,41
 250 35 250 35 257.5 41.5 c 128,-1,42
 265 48 265 48 265 62 c 2,43,-1
 265 265 l 2,44,45
 265 292 265 292 240 292 c 2,46,-1
 234 292 l 1,47,-1
 234 324 l 1,48,-1
 242 324 l 2,49,50
 262 324 262 324 279 308 c 128,-1,51
 296 292 296 292 296 264 c 2,52,-1
 296 62 l 2,53,54
 296 36 296 36 279 19 c 128,-1,55
 262 2 262 2 242 2 c 2,18,-1
138 -83 m 1,56,-1
 138 -37 l 1,57,58
 145 -35 145 -35 151 -29 c 1,59,60
 153 -31 153 -31 155.5 -32 c 128,-1,61
 158 -33 158 -33 160 -35 c 2,62,-1
 162 -36 l 1,63,-1
 162 -83 l 1,64,-1
 138 -83 l 1,56,-1
137 163 m 2,65,66
 137 190 137 190 110 190 c 2,67,-1
 65 190 l 2,68,69
 40 190 40 190 40 163 c 2,70,-1
 40 62 l 2,71,72
 40 48 40 48 47.5 41.5 c 128,-1,73
 55 35 55 35 65 35 c 2,74,-1
 110 35 l 2,75,76
 137 35 137 35 137 62 c 2,77,-1
 137 163 l 2,65,66
EndSplineSet
Substitution2: "Single Substitution lookup 21 subtable" uni0C2B_uni0C4D.abvs
EndChar

StartChar: uni0C2C
Encoding: 3116 3116 150
Width: 350
GlyphClass: 2
Flags: W
LayerCount: 2
Back
Fore
SplineSet
227 0 m 2,0,-1
 179 0 l 2,1,2
 167 0 167 0 145 16 c 1,3,4
 134 8 134 8 125 4 c 128,-1,5
 116 0 116 0 105 0 c 2,6,-1
 63 0 l 2,7,8
 42 0 42 0 25.5 16.5 c 128,-1,9
 9 33 9 33 9 61 c 2,10,-1
 9 140 l 2,11,12
 9 169 9 169 25.5 185.5 c 128,-1,13
 42 202 42 202 63 202 c 2,14,-1
 102 202 l 2,15,16
 129 202 129 202 129 229 c 2,17,-1
 129 268 l 2,18,19
 129 295 129 295 102 295 c 2,20,-1
 65 295 l 2,21,22
 40 295 40 295 40 268 c 2,23,-1
 40 243 l 1,24,-1
 9 243 l 1,25,-1
 9 267 l 2,26,27
 9 295 9 295 25.5 311.5 c 128,-1,28
 42 328 42 328 63 328 c 2,29,-1
 104 328 l 2,30,31
 125 328 125 328 142 311.5 c 128,-1,32
 159 295 159 295 159 267 c 2,33,-1
 159 230 l 2,34,35
 159 201 159 201 142 185 c 128,-1,36
 125 169 125 169 104 169 c 2,37,-1
 65 169 l 2,38,39
 55 169 55 169 47.5 161.5 c 128,-1,40
 40 154 40 154 40 140 c 2,41,-1
 40 61 l 2,42,43
 40 47 40 47 47.5 40 c 128,-1,44
 55 33 55 33 65 33 c 2,45,-1
 102 33 l 2,46,47
 129 33 129 33 129 61 c 2,48,-1
 129 96 l 1,49,-1
 159 96 l 1,50,-1
 159 61 l 2,51,52
 159 33 159 33 185 33 c 2,53,-1
 225 33 l 2,54,55
 235 33 235 33 243 40 c 128,-1,56
 251 47 251 47 251 61 c 2,57,-1
 251 268 l 2,58,59
 251 295 251 295 225 295 c 2,60,-1
 220 295 l 1,61,-1
 220 328 l 1,62,-1
 227 328 l 2,63,64
 247 328 247 328 264.5 311.5 c 128,-1,65
 282 295 282 295 282 267 c 2,66,-1
 282 61 l 2,67,68
 282 33 282 33 264.5 16.5 c 128,-1,69
 247 0 247 0 227 0 c 2,0,-1
EndSplineSet
Substitution2: "Single Substitution lookup 21 subtable" uni0C2C_uni0C4D.abvs
EndChar

StartChar: uni0C2D
Encoding: 3117 3117 151
Width: 350
GlyphClass: 2
Flags: W
LayerCount: 2
Back
Fore
SplineSet
264 421 m 2,0,1
 240 421 240 421 242 398 c 2,2,-1
 243 321 l 1,3,4
 261 313 261 313 271.5 298.5 c 128,-1,5
 282 284 282 284 282 264 c 2,6,-1
 282 62 l 2,7,8
 282 36 282 36 264.5 19 c 128,-1,9
 247 2 247 2 227 2 c 2,10,-1
 179 2 l 2,11,12
 168 2 168 2 145 20 c 1,13,14
 133 12 133 12 124.5 7 c 128,-1,15
 116 2 116 2 105 2 c 2,16,-1
 63 2 l 2,17,18
 42 2 42 2 25.5 19 c 128,-1,19
 9 36 9 36 9 62 c 2,20,-1
 9 120 l 2,21,22
 9 146 9 146 25.5 162.5 c 128,-1,23
 42 179 42 179 63 179 c 2,24,-1
 102 179 l 2,25,26
 129 179 129 179 129 205 c 2,27,-1
 129 235 l 2,28,29
 129 261 129 261 102 261 c 2,30,-1
 65 261 l 2,31,32
 40 261 40 261 40 235 c 2,33,-1
 40 216 l 1,34,-1
 9 216 l 1,35,-1
 9 234 l 2,36,37
 9 260 9 260 25.5 276.5 c 128,-1,38
 42 293 42 293 63 293 c 2,39,-1
 104 293 l 2,40,41
 125 293 125 293 142 276.5 c 128,-1,42
 159 260 159 260 159 234 c 2,43,-1
 159 206 l 2,44,45
 159 180 159 180 142 163.5 c 128,-1,46
 125 147 125 147 104 147 c 2,47,-1
 65 147 l 2,48,49
 55 147 55 147 47.5 140.5 c 128,-1,50
 40 134 40 134 40 120 c 2,51,-1
 40 62 l 2,52,53
 40 48 40 48 47.5 41.5 c 128,-1,54
 55 35 55 35 65 35 c 2,55,-1
 102 35 l 2,56,57
 129 35 129 35 129 62 c 2,58,-1
 129 97 l 1,59,-1
 159 97 l 1,60,-1
 159 62 l 2,61,62
 159 35 159 35 185 35 c 2,63,-1
 225 35 l 2,64,65
 235 35 235 35 243 41.5 c 128,-1,66
 251 48 251 48 251 62 c 2,67,-1
 251 265 l 2,68,69
 251 292 251 292 225 292 c 2,70,-1
 211 292 l 1,71,-1
 196 292 l 2,72,73
 194 292 194 292 184.5 293 c 128,-1,74
 175 294 175 294 163.5 298 c 128,-1,75
 152 302 152 302 143 311 c 128,-1,76
 134 320 134 320 134 337 c 2,77,-1
 134 357 l 1,78,-1
 164 357 l 1,79,-1
 164 351 l 2,80,81
 164 346 164 346 164.5 340.5 c 128,-1,82
 165 335 165 335 169 331 c 256,83,84
 173 327 173 327 177.5 326 c 128,-1,85
 182 325 182 325 187 324 c 2,86,-1
 211 324 l 1,87,-1
 211 402 l 2,88,89
 211 425 211 425 225 438.5 c 128,-1,90
 239 452 239 452 258 452 c 2,91,-1
 295 452 l 1,92,-1
 295 421 l 1,93,-1
 264 421 l 2,0,1
130 -86 m 1,94,-1
 130 -40 l 1,95,96
 137 -38 137 -38 143 -32 c 1,97,98
 145 -34 145 -34 147.5 -35 c 128,-1,99
 150 -36 150 -36 152 -38 c 2,100,-1
 154 -39 l 1,101,-1
 154 -86 l 1,102,-1
 130 -86 l 1,94,-1
EndSplineSet
Substitution2: "Single Substitution lookup 21 subtable" uni0C2D_uni0C4D.abvs
EndChar

StartChar: uni0C2E
Encoding: 3118 3118 152
Width: 484
GlyphClass: 2
Flags: W
LayerCount: 2
Back
Fore
SplineSet
369 0 m 2,0,-1
 309 0 l 2,1,2
 300 0 300 0 288.5 5 c 128,-1,3
 277 10 277 10 266 24 c 1,4,5
 254 10 254 10 244 5 c 128,-1,6
 234 0 234 0 224 0 c 2,7,-1
 182 0 l 2,8,9
 161 0 161 0 141 20 c 1,10,11
 121 0 121 0 106 0 c 2,12,-1
 61 0 l 2,13,14
 41 0 41 0 24.5 17 c 128,-1,15
 8 34 8 34 8 61 c 2,16,-1
 8 162 l 2,17,18
 8 187 8 187 24.5 204 c 128,-1,19
 41 221 41 221 61 221 c 2,20,-1
 102 221 l 2,21,22
 122 221 122 221 139 204 c 128,-1,23
 156 187 156 187 156 162 c 2,24,-1
 156 61 l 2,25,26
 156 33 156 33 184 33 c 2,27,-1
 222 33 l 2,28,29
 233 33 233 33 240 40 c 128,-1,30
 247 47 247 47 247 61 c 2,31,-1
 247 266 l 2,32,33
 247 293 247 293 222 293 c 2,34,-1
 9 293 l 1,35,-1
 9 325 l 1,36,-1
 86 325 l 1,37,-1
 86 391 l 2,38,39
 86 418 86 418 102.5 435 c 128,-1,40
 119 452 119 452 140 452 c 2,41,-1
 248 452 l 1,42,-1
 248 419 l 1,43,-1
 142 419 l 2,44,45
 117 419 117 419 117 391 c 2,46,-1
 117 325 l 1,47,-1
 224 325 l 2,48,49
 244 325 244 325 261 308 c 128,-1,50
 278 291 278 291 278 265 c 2,51,-1
 278 77 l 2,52,53
 278 51 278 51 287.5 42 c 128,-1,54
 297 33 297 33 311 33 c 2,55,-1
 367 33 l 2,56,57
 393 33 393 33 393 60 c 2,58,-1
 393 265 l 2,59,60
 393 291 393 291 367 291 c 2,61,-1
 361 291 l 1,62,-1
 361 323 l 1,63,-1
 369 323 l 2,64,65
 390 323 390 323 406.5 306.5 c 128,-1,66
 423 290 423 290 423 264 c 2,67,-1
 423 60 l 2,68,69
 423 33 423 33 406.5 16.5 c 128,-1,70
 390 0 390 0 369 0 c 2,0,-1
126 163 m 2,71,72
 126 177 126 177 118 183 c 128,-1,73
 110 189 110 189 100 189 c 2,74,-1
 63 189 l 2,75,76
 39 189 39 189 39 163 c 2,77,-1
 39 61 l 2,78,79
 39 47 39 47 45.5 40 c 128,-1,80
 52 33 52 33 63 33 c 2,81,-1
 100 33 l 2,82,83
 110 33 110 33 118 40 c 128,-1,84
 126 47 126 47 126 61 c 2,85,-1
 126 163 l 2,71,72
EndSplineSet
Substitution2: "Single Substitution lookup 21 subtable" uni0C2E_uni0C4D.abvs
EndChar

StartChar: uni0C2F
Encoding: 3119 3119 153
Width: 623
GlyphClass: 2
Flags: W
LayerCount: 2
Back
Fore
SplineSet
504 0 m 2,0,-1
 444 0 l 2,1,2
 433 0 433 0 422.5 5 c 128,-1,3
 412 10 412 10 401 24 c 1,4,5
 387 9 387 9 375.5 4.5 c 128,-1,6
 364 0 364 0 359 0 c 2,7,-1
 254 0 l 2,8,9
 228 0 228 0 214 38 c 1,10,11
 202 17 202 17 193.5 8.5 c 128,-1,12
 185 0 185 0 173 0 c 2,13,-1
 63 0 l 2,14,15
 42 0 42 0 25.5 16.5 c 128,-1,16
 9 33 9 33 9 60 c 2,17,-1
 9 265 l 2,18,19
 9 290 9 290 25.5 306.5 c 128,-1,20
 42 323 42 323 63 323 c 2,21,-1
 174 323 l 2,22,23
 194 323 194 323 211.5 306.5 c 128,-1,24
 229 290 229 290 229 265 c 2,25,-1
 229 60 l 2,26,27
 229 46 229 46 236 39.5 c 128,-1,28
 243 33 243 33 253 33 c 2,29,-1
 355 33 l 2,30,31
 381 33 381 33 381 60 c 2,32,-1
 381 265 l 2,33,34
 381 291 381 291 355 291 c 2,35,-1
 280 291 l 1,36,-1
 280 323 l 1,37,-1
 297 323 l 1,38,-1
 297 403 l 2,39,40
 297 425 297 425 311 438.5 c 128,-1,41
 325 452 325 452 342 452 c 2,42,-1
 411 452 l 1,43,-1
 411 420 l 1,44,-1
 349 420 l 2,45,46
 341 420 341 420 334 414.5 c 128,-1,47
 327 409 327 409 327 397 c 2,48,-1
 327 323 l 1,49,-1
 357 323 l 2,50,51
 378 323 378 323 395 306.5 c 128,-1,52
 412 290 412 290 412 265 c 2,53,-1
 412 69 l 2,54,55
 412 46 412 46 423 39.5 c 128,-1,56
 434 33 434 33 446 33 c 2,57,-1
 502 33 l 2,58,59
 512 33 512 33 520 39.5 c 128,-1,60
 528 46 528 46 528 60 c 2,61,-1
 528 265 l 2,62,63
 528 291 528 291 502 291 c 2,64,-1
 496 291 l 1,65,-1
 496 323 l 1,66,-1
 504 323 l 2,67,68
 524 323 524 323 541 306.5 c 128,-1,69
 558 290 558 290 558 264 c 2,70,-1
 558 60 l 2,71,72
 558 33 558 33 541 16.5 c 128,-1,73
 524 0 524 0 504 0 c 2,0,-1
197 265 m 2,74,75
 197 291 197 291 172 291 c 2,76,-1
 66 291 l 2,77,78
 40 291 40 291 40 265 c 2,79,-1
 40 60 l 2,80,81
 40 33 40 33 66 33 c 2,82,-1
 172 33 l 2,83,84
 182 33 182 33 189.5 39.5 c 128,-1,85
 197 46 197 46 197 60 c 2,86,-1
 197 265 l 2,74,75
EndSplineSet
Substitution2: "Single Substitution lookup 21 subtable" uni0C2F_uni0C4D.abvs
EndChar

StartChar: uni0C30
Encoding: 3120 3120 154
Width: 312
GlyphClass: 2
Flags: W
LayerCount: 2
Back
Fore
SplineSet
189 0 m 2,0,-1
 62 0 l 2,1,2
 42 0 42 0 25.5 16.5 c 128,-1,3
 9 33 9 33 9 60 c 2,4,-1
 9 265 l 2,5,6
 9 280 9 280 15.5 292.5 c 128,-1,7
 22 305 22 305 38 318 c 1,8,9
 31 327 31 327 29 333.5 c 128,-1,10
 27 340 27 340 27 346 c 2,11,-1
 27 378 l 1,12,-1
 57 378 l 1,13,-1
 57 350 l 2,14,15
 57 329 57 329 78 326 c 2,16,-1
 90 323 l 1,17,-1
 134 323 l 1,18,-1
 134 400 l 2,19,20
 134 424 134 424 148 438 c 128,-1,21
 162 452 162 452 181 452 c 2,22,-1
 241 452 l 1,23,-1
 241 419 l 1,24,-1
 187 419 l 2,25,26
 177 419 177 419 170.5 414 c 128,-1,27
 164 409 164 409 164 395 c 2,28,-1
 164 323 l 1,29,-1
 187 323 l 2,30,31
 207 323 207 323 224 306.5 c 128,-1,32
 241 290 241 290 241 265 c 2,33,-1
 241 60 l 2,34,35
 241 42 241 42 234.5 30.5 c 128,-1,36
 228 19 228 19 219.5 12 c 128,-1,37
 211 5 211 5 202 2.5 c 128,-1,38
 193 0 193 0 189 0 c 2,0,-1
210 265 m 2,39,40
 210 279 210 279 202.5 285 c 128,-1,41
 195 291 195 291 185 291 c 2,42,-1
 65 291 l 2,43,44
 40 291 40 291 40 265 c 2,45,-1
 40 60 l 2,46,47
 40 33 40 33 65 33 c 2,48,-1
 185 33 l 2,49,50
 195 33 195 33 202.5 39.5 c 128,-1,51
 210 46 210 46 210 60 c 2,52,-1
 210 265 l 2,39,40
EndSplineSet
Substitution2: "Single Substitution lookup 21 subtable" uni0C30_uni0C4D.abvs
EndChar

StartChar: uni0C31
Encoding: 3121 3121 155
Width: 370
GlyphClass: 2
Flags: W
LayerCount: 2
Back
Fore
SplineSet
257 0 m 2,0,-1
 187 0 l 2,1,2
 170 0 170 0 155 15 c 1,3,4
 147 7 147 7 139.5 3.5 c 128,-1,5
 132 0 132 0 127 0 c 2,6,-1
 63 0 l 2,7,8
 42 0 42 0 25.5 16.5 c 128,-1,9
 9 33 9 33 9 61 c 2,10,-1
 9 267 l 2,11,12
 9 295 9 295 25.5 311.5 c 128,-1,13
 42 328 42 328 63 328 c 2,14,-1
 89 328 l 2,15,16
 110 328 110 328 127 311.5 c 128,-1,17
 144 295 144 295 144 267 c 2,18,-1
 144 230 l 2,19,20
 144 201 144 201 127 185 c 128,-1,21
 110 169 110 169 89 169 c 2,22,-1
 40 169 l 1,23,-1
 40 61 l 2,24,25
 40 47 40 47 47.5 40 c 128,-1,26
 55 33 55 33 65 33 c 2,27,-1
 112 33 l 2,28,29
 139 33 139 33 139 61 c 2,30,-1
 139 71 l 1,31,-1
 170 71 l 1,32,-1
 170 61 l 2,33,34
 170 47 170 47 177.5 40 c 128,-1,35
 185 33 185 33 195 33 c 2,36,-1
 255 33 l 2,37,38
 265 33 265 33 273 40 c 128,-1,39
 281 47 281 47 281 61 c 2,40,-1
 281 268 l 2,41,42
 281 295 281 295 255 295 c 2,43,-1
 234 295 l 2,44,45
 210 295 210 295 210 268 c 2,46,-1
 210 146 l 1,47,-1
 226 146 l 1,48,-1
 226 112 l 1,49,-1
 73 112 l 1,50,-1
 73 145 l 1,51,-1
 179 145 l 1,52,-1
 179 267 l 2,53,54
 179 295 179 295 195.5 311.5 c 128,-1,55
 212 328 212 328 232 328 c 2,56,-1
 257 328 l 2,57,58
 278 328 278 328 295 311.5 c 128,-1,59
 312 295 312 295 312 267 c 2,60,-1
 312 61 l 2,61,62
 312 33 312 33 295 16.5 c 128,-1,63
 278 0 278 0 257 0 c 2,0,-1
113 268 m 2,64,65
 113 295 113 295 87 295 c 2,66,-1
 65 295 l 2,67,68
 40 295 40 295 40 268 c 2,69,-1
 40 202 l 1,70,-1
 87 202 l 2,71,72
 113 202 113 202 113 230 c 2,73,-1
 113 268 l 2,64,65
EndSplineSet
Substitution2: "Single Substitution lookup 21 subtable" uni0C31_uni0C4D.abvs
EndChar

StartChar: uni0C32
Encoding: 3122 3122 156
Width: 349
GlyphClass: 2
Flags: W
LayerCount: 2
Back
Fore
SplineSet
228 0 m 2,0,-1
 63 0 l 2,1,2
 42 0 42 0 25.5 16.5 c 128,-1,3
 9 33 9 33 9 61 c 2,4,-1
 9 267 l 2,5,6
 9 295 9 295 25.5 311.5 c 128,-1,7
 42 328 42 328 63 328 c 2,8,-1
 106 328 l 2,9,10
 126 328 126 328 143.5 311.5 c 128,-1,11
 161 295 161 295 161 267 c 2,12,-1
 161 206 l 2,13,14
 161 178 161 178 143.5 161.5 c 128,-1,15
 126 145 126 145 106 145 c 2,16,-1
 40 145 l 1,17,-1
 40 61 l 2,18,19
 40 47 40 47 47.5 40 c 128,-1,20
 55 33 55 33 65 33 c 2,21,-1
 226 33 l 2,22,23
 237 33 237 33 244 40 c 128,-1,24
 251 47 251 47 251 61 c 2,25,-1
 251 268 l 2,26,27
 251 295 251 295 226 295 c 2,28,-1
 225 295 l 1,29,-1
 225 328 l 1,30,-1
 228 328 l 2,31,32
 248 328 248 328 265 311.5 c 128,-1,33
 282 295 282 295 282 267 c 2,34,-1
 282 61 l 2,35,36
 282 33 282 33 265 16.5 c 128,-1,37
 248 0 248 0 228 0 c 2,0,-1
130 268 m 2,38,39
 130 282 130 282 122 288.5 c 128,-1,40
 114 295 114 295 104 295 c 2,41,-1
 65 295 l 2,42,43
 40 295 40 295 40 268 c 2,44,-1
 40 177 l 1,45,-1
 104 177 l 2,46,47
 115 177 115 177 122.5 184.5 c 128,-1,48
 130 192 130 192 130 206 c 2,49,-1
 130 268 l 2,38,39
EndSplineSet
Substitution2: "Single Substitution lookup 21 subtable" uni0C32_uni0C4D.abvs
EndChar

StartChar: uni0C33
Encoding: 3123 3123 157
Width: 358
GlyphClass: 2
Flags: W
LayerCount: 2
Back
Fore
SplineSet
243 409 m 2,0,1
 235 409 235 409 228 403.5 c 128,-1,2
 221 398 221 398 221 386 c 2,3,-1
 221 324 l 1,4,-1
 235 324 l 2,5,6
 257 324 257 324 273.5 307.5 c 128,-1,7
 290 291 290 291 290 265 c 2,8,-1
 290 183 l 2,9,10
 290 161 290 161 275 147 c 128,-1,11
 260 133 260 133 243 127 c 1,12,13
 247 118 247 118 248.5 114 c 128,-1,14
 250 110 250 110 250 107 c 2,15,-1
 250 59 l 2,16,17
 250 33 250 33 233.5 16.5 c 128,-1,18
 217 0 217 0 185 0 c 2,19,-1
 111 0 l 2,20,21
 88 0 88 0 73.5 15 c 128,-1,22
 59 30 59 30 59 59 c 2,23,-1
 59 97 l 2,24,25
 59 102 59 102 59 107 c 128,-1,26
 59 112 59 112 63 123 c 1,27,28
 55 124 55 124 45.5 129.5 c 128,-1,29
 36 135 36 135 28 144.5 c 128,-1,30
 20 154 20 154 14.5 168 c 128,-1,31
 9 182 9 182 9 200 c 2,32,-1
 9 264 l 2,33,34
 9 290 9 290 25 307 c 128,-1,35
 41 324 41 324 61 324 c 2,36,-1
 88 324 l 2,37,38
 102 324 102 324 112 318.5 c 128,-1,39
 122 313 122 313 128.5 305.5 c 128,-1,40
 135 298 135 298 138 289 c 128,-1,41
 141 280 141 280 141 273 c 2,42,-1
 141 245 l 2,43,44
 141 232 141 232 135.5 223 c 128,-1,45
 130 214 130 214 122.5 208.5 c 128,-1,46
 115 203 115 203 106 200.5 c 128,-1,47
 97 198 97 198 91 198 c 2,48,-1
 42 198 l 1,49,50
 42 172 42 172 49 164.5 c 128,-1,51
 56 157 56 157 67 157 c 2,52,-1
 230 157 l 2,53,54
 239 157 239 157 249 162.5 c 128,-1,55
 259 168 259 168 259 188 c 2,56,-1
 259 265 l 2,57,58
 259 291 259 291 233 291 c 2,59,-1
 176 291 l 1,60,-1
 176 324 l 1,61,-1
 191 324 l 1,62,-1
 191 390 l 2,63,64
 191 413 191 413 205 426.5 c 128,-1,65
 219 440 219 440 236 440 c 2,66,-1
 291 440 l 1,67,-1
 291 409 l 1,68,-1
 243 409 l 2,0,1
111 274 m 2,69,70
 111 283 111 283 104.5 287 c 128,-1,71
 98 291 98 291 91 291 c 2,72,-1
 60 291 l 2,73,74
 40 291 40 291 40 271 c 2,75,-1
 40 254 l 2,76,77
 40 247 40 247 43.5 240 c 128,-1,78
 47 233 47 233 61 233 c 2,79,-1
 89 233 l 2,80,81
 111 233 111 233 111 252 c 2,82,-1
 111 274 l 2,69,70
219 94 m 2,83,84
 219 111 219 111 210.5 118.5 c 128,-1,85
 202 126 202 126 191 126 c 2,86,-1
 116 126 l 2,87,88
 105 126 105 126 97 120.5 c 128,-1,89
 89 115 89 115 89 97 c 2,90,-1
 89 60 l 2,91,92
 89 43 89 43 96.5 38 c 128,-1,93
 104 33 104 33 115 33 c 2,94,-1
 192 33 l 2,95,96
 219 33 219 33 219 63 c 2,97,-1
 219 94 l 2,83,84
EndSplineSet
Substitution2: "Single Substitution lookup 21 subtable" uni0C33_uni0C4D.abvs
EndChar

StartChar: uni0C34
Encoding: 3124 3124 158
Width: 382
GlyphClass: 2
Flags: W
LayerCount: 2
Back
Fore
SplineSet
267 0 m 2,0,-1
 197 0 l 2,1,2
 180 0 180 0 165 15 c 1,3,4
 157 7 157 7 149.5 3.5 c 128,-1,5
 142 0 142 0 137 0 c 2,6,-1
 63 0 l 2,7,8
 42 0 42 0 25.5 16.5 c 128,-1,9
 9 33 9 33 9 61 c 2,10,-1
 9 267 l 2,11,12
 9 295 9 295 25.5 311.5 c 128,-1,13
 42 328 42 328 63 328 c 2,14,-1
 89 328 l 2,15,16
 110 328 110 328 127 311.5 c 128,-1,17
 144 295 144 295 144 267 c 2,18,-1
 144 230 l 2,19,20
 144 201 144 201 127 185 c 128,-1,21
 110 169 110 169 89 169 c 2,22,-1
 40 169 l 1,23,-1
 40 61 l 2,24,25
 40 47 40 47 47.5 40 c 128,-1,26
 55 33 55 33 65 33 c 2,27,-1
 122 33 l 2,28,29
 149 33 149 33 149 61 c 2,30,-1
 149 92 l 1,31,-1
 180 92 l 1,32,-1
 180 61 l 2,33,34
 180 47 180 47 187.5 40 c 128,-1,35
 195 33 195 33 205 33 c 2,36,-1
 265 33 l 2,37,38
 276 33 276 33 283.5 43 c 128,-1,39
 291 53 291 53 291 61 c 2,40,-1
 291 170 l 1,41,-1
 241 170 l 2,42,43
 220 170 220 170 203.5 186 c 128,-1,44
 187 202 187 202 187 231 c 2,45,-1
 187 267 l 2,46,47
 187 296 187 296 203.5 312.5 c 128,-1,48
 220 329 220 329 241 329 c 2,49,-1
 266 329 l 2,50,51
 287 329 287 329 304.5 312 c 128,-1,52
 322 295 322 295 322 267 c 2,53,-1
 322 62 l 2,54,55
 322 36 322 36 307 18 c 128,-1,56
 292 0 292 0 267 0 c 2,0,-1
291 268 m 2,57,58
 291 296 291 296 264 296 c 2,59,-1
 243 296 l 2,60,61
 217 296 217 296 217 268 c 2,62,-1
 217 230 l 2,63,64
 217 203 217 203 243 203 c 2,65,-1
 291 203 l 1,66,-1
 291 268 l 2,57,58
113 268 m 2,67,68
 113 295 113 295 87 295 c 2,69,-1
 65 295 l 2,70,71
 40 295 40 295 40 268 c 2,72,-1
 40 202 l 1,73,-1
 87 202 l 2,74,75
 113 202 113 202 113 230 c 2,76,-1
 113 268 l 2,67,68
EndSplineSet
EndChar

StartChar: uni0C35
Encoding: 3125 3125 159
Width: 346
GlyphClass: 2
Flags: W
LayerCount: 2
Back
Fore
SplineSet
224 0 m 2,0,-1
 182 0 l 2,1,2
 161 0 161 0 141 20 c 1,3,4
 121 0 121 0 106 0 c 2,5,-1
 61 0 l 2,6,7
 41 0 41 0 24.5 17 c 128,-1,8
 8 34 8 34 8 61 c 2,9,-1
 8 162 l 2,10,11
 8 187 8 187 24.5 204 c 128,-1,12
 41 221 41 221 61 221 c 2,13,-1
 102 221 l 2,14,15
 122 221 122 221 139 204 c 128,-1,16
 156 187 156 187 156 162 c 2,17,-1
 156 61 l 2,18,19
 156 33 156 33 184 33 c 2,20,-1
 222 33 l 2,21,22
 233 33 233 33 240 40 c 128,-1,23
 247 47 247 47 247 61 c 2,24,-1
 247 266 l 2,25,26
 247 293 247 293 222 293 c 2,27,-1
 9 293 l 1,28,-1
 9 325 l 1,29,-1
 86 325 l 1,30,-1
 86 391 l 2,31,32
 86 418 86 418 102.5 435 c 128,-1,33
 119 452 119 452 140 452 c 2,34,-1
 248 452 l 1,35,-1
 248 419 l 1,36,-1
 142 419 l 2,37,38
 117 419 117 419 117 391 c 2,39,-1
 117 325 l 1,40,-1
 224 325 l 2,41,42
 244 325 244 325 261 308 c 128,-1,43
 278 291 278 291 278 265 c 2,44,-1
 278 61 l 2,45,46
 278 34 278 34 261 17 c 128,-1,47
 244 0 244 0 224 0 c 2,0,-1
126 163 m 2,48,49
 126 177 126 177 118 183 c 128,-1,50
 110 189 110 189 100 189 c 2,51,-1
 63 189 l 2,52,53
 39 189 39 189 39 163 c 2,54,-1
 39 61 l 2,55,56
 39 47 39 47 45.5 40 c 128,-1,57
 52 33 52 33 63 33 c 2,58,-1
 100 33 l 2,59,60
 110 33 110 33 118 40 c 128,-1,61
 126 47 126 47 126 61 c 2,62,-1
 126 163 l 2,48,49
EndSplineSet
Substitution2: "Single Substitution lookup 21 subtable" uni0C35_uni0C4D.abvs
EndChar

StartChar: uni0C36
Encoding: 3126 3126 160
Width: 348
GlyphClass: 2
Flags: W
LayerCount: 2
Back
Fore
SplineSet
178 408 m 2,0,1
 170 408 170 408 163 402.5 c 128,-1,2
 156 397 156 397 156 385 c 2,3,-1
 156 324 l 1,4,-1
 233 324 l 2,5,6
 251 324 251 324 266 309 c 128,-1,7
 281 294 281 294 281 271 c 2,8,-1
 281 236 l 2,9,10
 281 229 281 229 277 222 c 128,-1,11
 273 215 273 215 265 203 c 1,12,13
 281 187 281 187 281 167 c 2,14,-1
 281 54 l 2,15,16
 281 30 281 30 266 15 c 128,-1,17
 251 0 251 0 233 0 c 2,18,-1
 156 0 l 2,19,20
 138 0 138 0 123.5 15 c 128,-1,21
 109 30 109 30 109 54 c 2,22,-1
 109 159 l 2,23,24
 109 164 109 164 110 170 c 128,-1,25
 111 176 111 176 116 186 c 1,26,-1
 61 186 l 2,27,28
 40 186 40 186 40 162 c 2,29,-1
 40 40 l 1,30,-1
 9 40 l 1,31,-1
 9 167 l 2,32,33
 9 189 9 189 23.5 203 c 128,-1,34
 38 217 38 217 55 217 c 2,35,-1
 227 217 l 2,36,37
 241 217 241 217 245.5 227 c 128,-1,38
 250 237 250 237 250 243 c 2,39,-1
 250 268 l 2,40,41
 250 291 250 291 228 291 c 2,42,-1
 89 291 l 1,43,-1
 89 324 l 1,44,-1
 126 324 l 1,45,-1
 126 389 l 2,46,47
 126 412 126 412 140 425.5 c 128,-1,48
 154 439 154 439 171 439 c 2,49,-1
 284 439 l 1,50,-1
 284 408 l 1,51,-1
 178 408 l 2,0,1
250 162 m 2,52,53
 250 186 250 186 228 186 c 2,54,-1
 163 186 l 2,55,56
 139 186 139 186 139 162 c 2,57,-1
 139 56 l 2,58,59
 139 33 139 33 163 33 c 2,60,-1
 228 33 l 2,61,62
 250 33 250 33 250 56 c 2,63,-1
 250 162 l 2,52,53
EndSplineSet
Substitution2: "Single Substitution lookup 21 subtable" uni0C36_uni0C4D.abvs
EndChar

StartChar: uni0C37
Encoding: 3127 3127 161
Width: 353
GlyphClass: 2
Flags: W
LayerCount: 2
Back
Fore
SplineSet
166 419 m 2,0,1
 146 419 146 419 146 397 c 2,2,-1
 146 346 l 2,3,4
 146 319 146 319 132.5 304.5 c 128,-1,5
 119 290 119 290 98 290 c 2,6,-1
 10 290 l 1,7,-1
 10 323 l 1,8,-1
 91 323 l 2,9,10
 115 323 115 323 115 346 c 2,11,-1
 115 394 l 2,12,13
 115 423 115 423 129 437.5 c 128,-1,14
 143 452 143 452 163 452 c 2,15,-1
 237 452 l 1,16,-1
 237 419 l 1,17,-1
 166 419 l 2,0,1
298 -55 m 2,18,19
 284 -55 284 -55 274.5 -46.5 c 128,-1,20
 265 -38 265 -38 265 -28 c 2,21,-1
 265 -1 l 1,22,-1
 181 -1 l 2,23,24
 173 -1 173 -1 163 3.5 c 128,-1,25
 153 8 153 8 142 19 c 1,26,27
 122 -1 122 -1 106 -1 c 2,28,-1
 62 -1 l 2,29,30
 42 -1 42 -1 25.5 15 c 128,-1,31
 9 31 9 31 9 60 c 2,32,-1
 9 160 l 2,33,34
 9 188 9 188 25.5 203 c 128,-1,35
 42 218 42 218 62 218 c 2,36,-1
 102 218 l 2,37,38
 124 218 124 218 140.5 203 c 128,-1,39
 157 188 157 188 157 160 c 2,40,-1
 157 60 l 2,41,42
 157 46 157 46 164 38.5 c 128,-1,43
 171 31 171 31 182 31 c 2,44,-1
 239 31 l 2,45,46
 265 31 265 31 265 60 c 2,47,-1
 265 264 l 2,48,49
 265 290 265 290 239 290 c 2,50,-1
 226 290 l 1,51,-1
 226 323 l 1,52,-1
 241 323 l 2,53,54
 262 323 262 323 279 306 c 128,-1,55
 296 289 296 289 296 264 c 0,56,57
 296 233 296 233 296 190 c 128,-1,58
 296 147 296 147 295.5 107 c 128,-1,59
 295 67 295 67 295 37.5 c 128,-1,60
 295 8 295 8 295 4 c 0,61,62
 295 -7 295 -7 298 -17 c 128,-1,63
 301 -27 301 -27 314 -29 c 1,64,-1
 314 -55 l 1,65,-1
 298 -55 l 2,18,19
126 160 m 2,66,67
 126 187 126 187 101 187 c 2,68,-1
 66 187 l 2,69,70
 40 187 40 187 40 160 c 2,71,-1
 40 60 l 2,72,73
 40 31 40 31 66 31 c 2,74,-1
 101 31 l 2,75,76
 112 31 112 31 119 38.5 c 128,-1,77
 126 46 126 46 126 60 c 2,78,-1
 126 160 l 2,66,67
EndSplineSet
Substitution2: "Single Substitution lookup 21 subtable" uni0C37_uni0C4D.abvs
EndChar

StartChar: uni0C38
Encoding: 3128 3128 162
Width: 359
GlyphClass: 2
Flags: W
LayerCount: 2
Back
Fore
SplineSet
166 419 m 2,0,1
 146 419 146 419 146 396 c 2,2,-1
 146 345 l 2,3,4
 146 317 146 317 132.5 303.5 c 128,-1,5
 119 290 119 290 98 290 c 2,6,-1
 10 290 l 1,7,-1
 10 322 l 1,8,-1
 91 322 l 2,9,10
 115 322 115 322 115 345 c 2,11,-1
 115 394 l 2,12,13
 115 423 115 423 129 437.5 c 128,-1,14
 143 452 143 452 163 452 c 2,15,-1
 237 452 l 1,16,-1
 237 419 l 1,17,-1
 166 419 l 2,0,1
241 -3 m 2,18,-1
 179 -3 l 2,19,20
 158 -3 158 -3 141.5 14 c 128,-1,21
 125 31 125 31 125 58 c 2,22,-1
 125 148 l 2,23,24
 125 161 125 161 117 167 c 128,-1,25
 109 173 109 173 101 173 c 2,26,-1
 66 173 l 2,27,28
 40 173 40 173 40 148 c 2,29,-1
 40 -3 l 1,30,-1
 9 -3 l 1,31,-1
 9 150 l 2,32,33
 9 176 9 176 24.5 191.5 c 128,-1,34
 40 207 40 207 62 207 c 2,35,-1
 101 207 l 2,36,37
 121 207 121 207 138.5 191.5 c 128,-1,38
 156 176 156 176 156 150 c 2,39,-1
 156 58 l 2,40,41
 156 44 156 44 163.5 37 c 128,-1,42
 171 30 171 30 181 30 c 2,43,-1
 239 30 l 2,44,45
 249 30 249 30 257 37 c 128,-1,46
 265 44 265 44 265 58 c 2,47,-1
 265 264 l 2,48,49
 265 278 265 278 257 284 c 128,-1,50
 249 290 249 290 239 290 c 2,51,-1
 236 290 l 1,52,-1
 236 322 l 1,53,-1
 241 322 l 2,54,55
 264 322 264 322 279.5 305.5 c 128,-1,56
 295 289 295 289 295 264 c 2,57,-1
 295 58 l 2,58,59
 295 31 295 31 278 14 c 128,-1,60
 261 -3 261 -3 241 -3 c 2,18,-1
EndSplineSet
Substitution2: "Single Substitution lookup 21 subtable" uni0C38_uni0C4D.abvs
EndChar

StartChar: uni0C39
Encoding: 3129 3129 163
Width: 549
GlyphClass: 2
Flags: W
LayerCount: 2
Back
Fore
SplineSet
166 419 m 2,0,1
 146 419 146 419 146 396 c 2,2,-1
 146 345 l 2,3,4
 146 317 146 317 132.5 303.5 c 128,-1,5
 119 290 119 290 98 290 c 2,6,-1
 10 290 l 1,7,-1
 10 322 l 1,8,-1
 91 322 l 2,9,10
 115 322 115 322 115 345 c 2,11,-1
 115 394 l 2,12,13
 115 423 115 423 129 437.5 c 128,-1,14
 143 452 143 452 163 452 c 2,15,-1
 237 452 l 1,16,-1
 237 419 l 1,17,-1
 166 419 l 2,0,1
432 -1 m 2,18,-1
 407 -1 l 2,19,20
 387 -1 387 -1 369.5 16 c 128,-1,21
 352 33 352 33 352 60 c 2,22,-1
 352 160 l 2,23,24
 352 185 352 185 369 202 c 128,-1,25
 386 219 386 219 407 219 c 2,26,-1
 457 219 l 1,27,-1
 457 267 l 2,28,29
 457 281 457 281 448.5 287.5 c 128,-1,30
 440 294 440 294 430 294 c 2,31,-1
 295 294 l 1,32,33
 299 282 299 282 300 275.5 c 128,-1,34
 301 269 301 269 301 266 c 2,35,-1
 301 61 l 2,36,37
 301 34 301 34 283.5 17 c 128,-1,38
 266 0 266 0 245 0 c 2,39,-1
 184 0 l 2,40,41
 176 0 176 0 166 4.5 c 128,-1,42
 156 9 156 9 145 20 c 1,43,44
 134 9 134 9 124.5 4.5 c 128,-1,45
 115 0 115 0 108 0 c 2,46,-1
 64 0 l 2,47,48
 43 0 43 0 26 17 c 128,-1,49
 9 34 9 34 9 61 c 2,50,-1
 9 163 l 2,51,52
 9 189 9 189 25.5 205 c 128,-1,53
 42 221 42 221 64 221 c 2,54,-1
 104 221 l 2,55,56
 126 221 126 221 143 205 c 128,-1,57
 160 189 160 189 160 163 c 2,58,-1
 160 61 l 2,59,60
 160 33 160 33 186 33 c 2,61,-1
 243 33 l 2,62,63
 253 33 253 33 261 40 c 128,-1,64
 269 47 269 47 269 61 c 2,65,-1
 269 267 l 2,66,67
 269 281 269 281 261 287.5 c 128,-1,68
 253 294 253 294 243 294 c 2,69,-1
 236 294 l 1,70,-1
 236 327 l 1,71,-1
 245 327 l 1,72,-1
 432 327 l 2,73,74
 453 327 453 327 470.5 309.5 c 128,-1,75
 488 292 488 292 488 266 c 2,76,-1
 488 60 l 2,77,78
 488 33 488 33 470.5 16 c 128,-1,79
 453 -1 453 -1 432 -1 c 2,18,-1
457 187 m 1,80,-1
 409 187 l 2,81,82
 399 187 399 187 391.5 180.5 c 128,-1,83
 384 174 384 174 384 160 c 2,84,-1
 384 61 l 2,85,86
 384 47 384 47 391.5 40 c 128,-1,87
 399 33 399 33 409 33 c 2,88,-1
 430 33 l 2,89,90
 440 33 440 33 448.5 40 c 128,-1,91
 457 47 457 47 457 61 c 2,92,-1
 457 187 l 1,80,-1
129 162 m 2,93,94
 129 189 129 189 102 189 c 2,95,-1
 66 189 l 2,96,97
 40 189 40 189 40 162 c 2,98,-1
 40 61 l 2,99,100
 40 33 40 33 66 33 c 2,101,-1
 102 33 l 2,102,103
 129 33 129 33 129 61 c 2,104,-1
 129 162 l 2,93,94
EndSplineSet
Substitution2: "Single Substitution lookup 21 subtable" uni0C39_uni0C4D.abvs
EndChar

StartChar: uni0C3D
Encoding: 3133 3133 164
Width: 514
GlyphClass: 2
Flags: W
LayerCount: 2
Back
Fore
SplineSet
67 0 m 2,0,1
 45 0 45 0 28 16.5 c 128,-1,2
 11 33 11 33 11 59 c 2,3,-1
 11 94 l 1,4,-1
 11 103 l 2,5,6
 11 108 11 108 12.5 111.5 c 128,-1,7
 14 115 14 115 16 120 c 0,8,9
 21 130 21 130 32 138.5 c 128,-1,10
 43 147 43 147 63 150 c 2,11,-1
 199 168 l 2,12,13
 213 170 213 170 220 177.5 c 128,-1,14
 227 185 227 185 227 205 c 2,15,-1
 227 283 l 2,16,17
 227 310 227 310 198 310 c 2,18,-1
 175 310 l 1,19,-1
 175 264 l 2,20,21
 175 238 175 238 158 221.5 c 128,-1,22
 141 205 141 205 118 205 c 2,23,-1
 93 205 l 2,24,25
 71 205 71 205 54 221.5 c 128,-1,26
 37 238 37 238 37 264 c 2,27,-1
 37 283 l 2,28,29
 37 309 37 309 54 325 c 128,-1,30
 71 341 71 341 93 341 c 2,31,-1
 201 341 l 2,32,33
 223 341 223 341 240.5 324.5 c 128,-1,34
 258 308 258 308 258 282 c 2,35,-1
 258 200 l 2,36,37
 258 172 258 172 241.5 157 c 128,-1,38
 225 142 225 142 199 139 c 2,39,-1
 69 120 l 2,40,41
 41 117 41 117 41 94 c 2,42,-1
 41 59 l 2,43,44
 41 31 41 31 69 31 c 2,45,-1
 470 32 l 1,46,-1
 470 0 l 1,47,-1
 67 0 l 2,0,1
146 310 m 1,48,-1
 95 310 l 2,49,50
 67 310 67 310 67 283 c 2,51,-1
 67 264 l 2,52,53
 67 237 67 237 95 237 c 2,54,-1
 117 237 l 2,55,56
 128 237 128 237 137 243.5 c 128,-1,57
 146 250 146 250 146 264 c 2,58,-1
 146 310 l 1,48,-1
EndSplineSet
EndChar

StartChar: uni0C3E
Encoding: 3134 3134 165
Width: 207
GlyphClass: 2
Flags: W
LayerCount: 2
Back
Fore
SplineSet
83 -1 m 2,0,-1
 58 -1 l 2,1,2
 38 -1 38 -1 21.5 15.5 c 128,-1,3
 5 32 5 32 5 60 c 2,4,-1
 5 160 l 2,5,6
 5 188 5 188 21.5 204 c 128,-1,7
 38 220 38 220 58 220 c 2,8,-1
 108 220 l 1,9,-1
 108 275 l 2,10,11
 108 301 108 301 81 301 c 2,12,-1
 -326 301 l 1,13,-1
 -326 334 l 1,14,-1
 83 334 l 2,15,16
 105 334 105 334 122 317.5 c 128,-1,17
 139 301 139 301 139 273 c 2,18,-1
 139 60 l 2,19,20
 139 32 139 32 122 15.5 c 128,-1,21
 105 -1 105 -1 83 -1 c 2,0,-1
108 188 m 1,22,-1
 61 188 l 2,23,24
 36 188 36 188 36 161 c 2,25,-1
 36 61 l 2,26,27
 36 47 36 47 43.5 40 c 128,-1,28
 51 33 51 33 61 33 c 2,29,-1
 81 33 l 2,30,31
 108 33 108 33 108 61 c 2,32,-1
 108 188 l 1,22,-1
EndSplineSet
EndChar

StartChar: uni0C3F
Encoding: 3135 3135 166
Width: 12
GlyphClass: 2
Flags: W
LayerCount: 2
Back
Fore
SplineSet
-122 283 m 2,0,-1
 -189 283 l 1,1,-1
 -189 316 l 1,2,-1
 -120 316 l 2,3,4
 -106 316 -106 316 -101 321 c 128,-1,5
 -96 326 -96 326 -96 337 c 2,6,-1
 -96 411 l 2,7,8
 -96 430 -96 430 -105.5 439 c 128,-1,9
 -115 448 -115 448 -144 444 c 1,10,-1
 -141 398 l 2,11,12
 -141 380 -141 380 -152 366 c 0,13,14
 -157 361 -157 361 -167.5 357 c 128,-1,15
 -178 353 -178 353 -195 353 c 0,16,17
 -218 353 -218 353 -234 367 c 128,-1,18
 -250 381 -250 381 -250 413 c 0,19,20
 -250 442 -250 442 -235 457.5 c 128,-1,21
 -220 473 -220 473 -193 473 c 2,22,-1
 -115 473 l 2,23,24
 -92 473 -92 473 -80 457.5 c 128,-1,25
 -68 442 -68 442 -68 422 c 2,26,-1
 -68 338 l 2,27,28
 -68 315 -68 315 -81.5 299 c 128,-1,29
 -95 283 -95 283 -122 283 c 2,0,-1
-169 443 m 1,30,-1
 -197 443 l 2,31,32
 -209 443 -209 443 -215.5 436.5 c 128,-1,33
 -222 430 -222 430 -222 413 c 0,34,35
 -222 398 -222 398 -216.5 391 c 128,-1,36
 -211 384 -211 384 -197 384 c 0,37,38
 -178 384 -178 384 -173.5 388 c 128,-1,39
 -169 392 -169 392 -169 402 c 2,40,-1
 -169 443 l 1,30,-1
EndSplineSet
EndChar

StartChar: uni0C40
Encoding: 3136 3136 167
Width: 12
GlyphClass: 2
Flags: W
LayerCount: 2
Back
Fore
SplineSet
-80 497 m 1,0,1
 -83 517 -83 517 -90 523.5 c 128,-1,2
 -97 530 -97 530 -110 530 c 0,3,4
 -128 530 -128 530 -135 522 c 128,-1,5
 -142 514 -142 514 -142 498 c 2,6,-1
 -142 467 l 1,7,-1
 -115 467 l 2,8,9
 -92 467 -92 467 -80 452.5 c 128,-1,10
 -68 438 -68 438 -68 418 c 2,11,-1
 -68 337 l 2,12,13
 -68 312 -68 312 -81.5 297 c 128,-1,14
 -95 282 -95 282 -122 282 c 2,15,-1
 -189 282 l 1,16,-1
 -189 314 l 1,17,-1
 -121 314 l 2,18,19
 -107 314 -107 314 -101.5 318 c 128,-1,20
 -96 322 -96 322 -96 336 c 2,21,-1
 -96 408 l 2,22,23
 -96 425 -96 425 -105 433.5 c 128,-1,24
 -114 442 -114 442 -144 440 c 1,25,-1
 -140 394 l 2,26,27
 -139 375 -139 375 -151 362 c 128,-1,28
 -163 349 -163 349 -195 349 c 0,29,30
 -218 349 -218 349 -234 363.5 c 128,-1,31
 -250 378 -250 378 -250 410 c 0,32,33
 -250 467 -250 467 -193 467 c 2,34,-1
 -171 467 l 1,35,-1
 -171 512 l 2,36,37
 -171 532 -171 532 -158 545.5 c 128,-1,38
 -145 559 -145 559 -114 559 c 2,39,-1
 -89 559 l 2,40,41
 -67 559 -67 559 -60 548.5 c 128,-1,42
 -53 538 -53 538 -53 515 c 2,43,-1
 -53 497 l 1,44,-1
 -80 497 l 1,0,1
-169 437 m 1,45,-1
 -197 437 l 2,46,47
 -211 437 -211 437 -216 430.5 c 128,-1,48
 -221 424 -221 424 -221 410 c 256,49,50
 -221 396 -221 396 -216.5 388.5 c 128,-1,51
 -212 381 -212 381 -197 381 c 0,52,53
 -179 381 -179 381 -174 384.5 c 128,-1,54
 -169 388 -169 388 -169 398 c 2,55,-1
 -169 437 l 1,45,-1
EndSplineSet
EndChar

StartChar: uni0C41
Encoding: 3137 3137 168
Width: 132
GlyphClass: 2
Flags: W
LayerCount: 2
Back
Fore
SplineSet
12 0 m 2,0,-1
 -29 0 l 2,1,2
 -50 0 -50 0 -69 21 c 1,3,-1
 -55 50 l 1,4,5
 -46 38 -46 38 -40.5 34.5 c 128,-1,6
 -35 31 -35 31 -27 31 c 2,7,-1
 9 31 l 2,8,9
 38 31 38 31 38 61 c 2,10,-1
 38 268 l 2,11,12
 38 297 38 297 9 297 c 2,13,-1
 -6 297 l 1,14,-1
 -6 328 l 1,15,-1
 12 328 l 2,16,17
 32 328 32 328 48.5 312 c 128,-1,18
 65 296 65 296 65 267 c 2,19,-1
 65 61 l 2,20,21
 65 32 65 32 48.5 16 c 128,-1,22
 32 0 32 0 12 0 c 2,0,-1
EndSplineSet
EndChar

StartChar: uni0C42
Encoding: 3138 3138 169
Width: 331
GlyphClass: 2
Flags: W
LayerCount: 2
Back
Fore
SplineSet
208 0 m 2,0,-1
 184 0 l 2,1,2
 164 0 164 0 148 16 c 128,-1,3
 132 32 132 32 132 61 c 2,4,-1
 132 164 l 2,5,6
 132 192 132 192 148.5 207 c 128,-1,7
 165 222 165 222 184 222 c 2,8,-1
 234 222 l 1,9,-1
 234 268 l 2,10,11
 234 297 234 297 207 297 c 2,12,-1
 62 297 l 1,13,14
 67 280 67 280 67.5 273.5 c 128,-1,15
 68 267 68 267 68 259 c 2,16,-1
 68 61 l 2,17,18
 68 33 68 33 51 16.5 c 128,-1,19
 34 0 34 0 13 0 c 2,20,-1
 -28 0 l 2,21,22
 -40 0 -40 0 -49 5 c 128,-1,23
 -58 10 -58 10 -69 21 c 1,24,-1
 -54 51 l 1,25,26
 -45 37 -45 37 -39.5 34 c 128,-1,27
 -34 31 -34 31 -26 31 c 2,28,-1
 11 31 l 2,29,30
 39 31 39 31 39 61 c 2,31,-1
 39 257 l 2,32,33
 39 272 39 272 35.5 280.5 c 128,-1,34
 32 289 32 289 18 297 c 1,35,-1
 -1 297 l 1,36,-1
 -1 328 l 1,37,-1
 208 328 l 2,38,39
 231 328 231 328 247 312 c 128,-1,40
 263 296 263 296 263 267 c 2,41,-1
 263 61 l 2,42,43
 263 32 263 32 247 16 c 128,-1,44
 231 0 231 0 208 0 c 2,0,-1
234 192 m 1,45,-1
 187 192 l 2,46,47
 162 192 162 192 162 163 c 2,48,-1
 162 61 l 2,49,50
 162 31 162 31 187 31 c 2,51,-1
 207 31 l 2,52,53
 234 31 234 31 234 61 c 2,54,-1
 234 192 l 1,45,-1
EndSplineSet
EndChar

StartChar: uni0C43
Encoding: 3139 3139 170
Width: 146
GlyphClass: 2
Flags: W
LayerCount: 2
Back
Fore
SplineSet
25 -279 m 2,0,-1
 -82 -279 l 2,1,2
 -110 -279 -110 -279 -124.5 -264 c 128,-1,3
 -139 -249 -139 -249 -139 -228 c 2,4,-1
 -139 -98 l 2,5,6
 -139 -79 -139 -79 -125 -64 c 128,-1,7
 -111 -49 -111 -49 -88 -49 c 2,8,-1
 -56 -49 l 2,9,10
 -33 -49 -33 -49 -19 -64.5 c 128,-1,11
 -5 -80 -5 -80 -5 -98 c 2,12,-1
 -5 -136 l 2,13,14
 -5 -156 -5 -156 -19 -171.5 c 128,-1,15
 -33 -187 -33 -187 -56 -187 c 2,16,-1
 -106 -187 l 1,17,-1
 -106 -217 l 2,18,19
 -106 -232 -106 -232 -96 -239 c 128,-1,20
 -86 -246 -86 -246 -69 -246 c 2,21,-1
 22 -246 l 2,22,23
 32 -246 32 -246 40 -238.5 c 128,-1,24
 48 -231 48 -231 48 -220 c 2,25,-1
 48 205 l 2,26,27
 48 214 48 214 43 221.5 c 128,-1,28
 38 229 38 229 24 229 c 2,29,-1
 2 229 l 1,30,-1
 2 262 l 1,31,-1
 27 262 l 2,32,33
 50 262 50 262 64.5 246 c 128,-1,34
 79 230 79 230 79 211 c 2,35,-1
 79 -220 l 2,36,37
 79 -246 79 -246 62 -262.5 c 128,-1,38
 45 -279 45 -279 25 -279 c 2,0,-1
-37 -105 m 2,39,40
 -37 -97 -37 -97 -41.5 -89 c 128,-1,41
 -46 -81 -46 -81 -60 -81 c 2,42,-1
 -84 -81 l 2,43,44
 -95 -81 -95 -81 -102 -87.5 c 128,-1,45
 -109 -94 -109 -94 -109 -105 c 2,46,-1
 -109 -155 l 1,47,-1
 -60 -155 l 2,48,49
 -46 -155 -46 -155 -41.5 -146.5 c 128,-1,50
 -37 -138 -37 -138 -37 -130 c 2,51,-1
 -37 -105 l 2,39,40
EndSplineSet
Substitution2: "Single Substitution lookup 20 subtable" glyph1236
EndChar

StartChar: uni0C44
Encoding: 3140 3140 171
Width: 323
GlyphClass: 2
Flags: W
LayerCount: 2
Back
Fore
SplineSet
211 -60 m 2,0,-1
 186 -60 l 2,1,2
 165 -60 165 -60 148.5 -43.5 c 128,-1,3
 132 -27 132 -27 132 -1 c 2,4,-1
 132 98 l 2,5,6
 132 124 132 124 148 140 c 128,-1,7
 164 156 164 156 186 156 c 2,8,-1
 235 156 l 1,9,-1
 235 204 l 2,10,11
 235 229 235 229 209 229 c 2,12,-1
 75 229 l 1,13,14
 79 217 79 217 79 216 c 2,15,-1
 79 211 l 1,16,-1
 79 -220 l 2,17,18
 79 -246 79 -246 62 -262.5 c 128,-1,19
 45 -279 45 -279 25 -279 c 2,20,-1
 -82 -279 l 2,21,22
 -110 -279 -110 -279 -124.5 -264 c 128,-1,23
 -139 -249 -139 -249 -139 -228 c 2,24,-1
 -139 -98 l 2,25,26
 -139 -79 -139 -79 -125 -64 c 128,-1,27
 -111 -49 -111 -49 -88 -49 c 2,28,-1
 -56 -49 l 2,29,30
 -33 -49 -33 -49 -19 -64.5 c 128,-1,31
 -5 -80 -5 -80 -5 -98 c 2,32,-1
 -5 -136 l 2,33,34
 -5 -156 -5 -156 -19 -171.5 c 128,-1,35
 -33 -187 -33 -187 -56 -187 c 2,36,-1
 -106 -187 l 1,37,-1
 -106 -217 l 2,38,39
 -106 -232 -106 -232 -96 -239 c 128,-1,40
 -86 -246 -86 -246 -69 -246 c 2,41,-1
 22 -246 l 2,42,43
 32 -246 32 -246 40 -238.5 c 128,-1,44
 48 -231 48 -231 48 -220 c 2,45,-1
 48 205 l 2,46,47
 48 214 48 214 43 221.5 c 128,-1,48
 38 229 38 229 24 229 c 2,49,-1
 2 229 l 1,50,-1
 2 262 l 1,51,-1
 27 262 l 1,52,-1
 211 262 l 2,53,54
 233 262 233 262 250 245.5 c 128,-1,55
 267 229 267 229 267 203 c 2,56,-1
 267 -1 l 2,57,58
 267 -27 267 -27 250 -43.5 c 128,-1,59
 233 -60 233 -60 211 -60 c 2,0,-1
236 124 m 1,60,-1
 190 124 l 2,61,62
 164 124 164 124 164 97 c 2,63,-1
 164 -1 l 2,64,65
 164 -29 164 -29 190 -29 c 2,66,-1
 209 -29 l 2,67,68
 236 -29 236 -29 236 -1 c 2,69,-1
 236 124 l 1,60,-1
-37 -105 m 2,70,71
 -37 -97 -37 -97 -41.5 -89 c 128,-1,72
 -46 -81 -46 -81 -60 -81 c 2,73,-1
 -84 -81 l 2,74,75
 -95 -81 -95 -81 -102 -87.5 c 128,-1,76
 -109 -94 -109 -94 -109 -105 c 2,77,-1
 -109 -155 l 1,78,-1
 -60 -155 l 2,79,80
 -46 -155 -46 -155 -41.5 -146.5 c 128,-1,81
 -37 -138 -37 -138 -37 -130 c 2,82,-1
 -37 -105 l 2,70,71
EndSplineSet
EndChar

StartChar: uni0C46
Encoding: 3142 3142 172
Width: 12
GlyphClass: 2
Flags: W
LayerCount: 2
Back
Fore
SplineSet
-114 284 m 2,0,-1
 -161 284 l 1,1,-1
 -161 314 l 1,2,-1
 -118 314 l 2,3,4
 -110 314 -110 314 -102.5 321 c 128,-1,5
 -95 328 -95 328 -95 342 c 2,6,-1
 -95 366 l 2,7,8
 -95 395 -95 395 -118 395 c 2,9,-1
 -330 395 l 1,10,-1
 -330 426 l 1,11,-1
 -114 426 l 2,12,13
 -94 426 -94 426 -80 410 c 128,-1,14
 -66 394 -66 394 -66 371 c 2,15,-1
 -66 336 l 2,16,17
 -66 313 -66 313 -80 298.5 c 128,-1,18
 -94 284 -94 284 -114 284 c 2,0,-1
EndSplineSet
EndChar

StartChar: uni0C47
Encoding: 3143 3143 173
Width: 12
GlyphClass: 2
Flags: W
LayerCount: 2
Back
Fore
SplineSet
-62 451 m 1,0,-1
 -61 457 l 1,1,2
 -64 483 -64 483 -88 483 c 2,3,-1
 -101 483 l 2,4,5
 -111 483 -111 483 -119 476.5 c 128,-1,6
 -127 470 -127 470 -127 456 c 2,7,-1
 -127 419 l 1,8,-1
 -114 419 l 2,9,10
 -95 419 -95 419 -80.5 405 c 128,-1,11
 -66 391 -66 391 -66 366 c 2,12,-1
 -66 335 l 2,13,14
 -66 312 -66 312 -80.5 297.5 c 128,-1,15
 -95 283 -95 283 -114 283 c 2,16,-1
 -162 283 l 1,17,-1
 -162 313 l 1,18,-1
 -120 313 l 2,19,20
 -95 313 -95 313 -95 340 c 2,21,-1
 -95 362 l 2,22,23
 -95 389 -95 389 -120 389 c 2,24,-1
 -331 389 l 1,25,-1
 -331 419 l 1,26,-1
 -156 419 l 1,27,-1
 -156 460 l 2,28,29
 -156 489 -156 489 -145.5 501.5 c 128,-1,30
 -135 514 -135 514 -110 514 c 2,31,-1
 -78 514 l 2,32,33
 -53 514 -53 514 -43 502.5 c 128,-1,34
 -33 491 -33 491 -33 460 c 2,35,-1
 -33 451 l 1,36,-1
 -62 451 l 1,0,-1
EndSplineSet
EndChar

